<svg width="32" height="32" viewBox="0 0 32 32" fill="none" xmlns="http://www.w3.org/2000/svg">
<path d="M17.5023 3.55557C17.5023 3.14301 17.344 2.74734 17.0623 2.45562C16.7806 2.16389 16.3984 2 16 2C15.6016 2 15.2194 2.16389 14.9377 2.45562C14.656 2.74734 14.4977 3.14301 14.4977 3.55557V24.6896L6.54598 16.4559C6.26264 16.1726 5.88315 16.0158 5.48925 16.0193C5.09535 16.0229 4.71856 16.1865 4.44002 16.4749C4.16148 16.7633 4.00348 17.1535 4.00006 17.5613C3.99663 17.9692 4.14806 18.3621 4.42172 18.6555L14.9379 29.5446C15.2196 29.8362 15.6016 30 16 30C16.3984 30 16.7804 29.8362 17.0621 29.5446L27.5783 18.6555C27.8519 18.3621 28.0034 17.9692 27.9999 17.5613C27.9965 17.1535 27.8385 16.7633 27.56 16.4749C27.2814 16.1865 26.9046 16.0229 26.5107 16.0193C26.1168 16.0158 25.7374 16.1726 25.454 16.4559L17.5023 24.6896V3.55557Z" fill="#252525"/>
</svg>
