<svg width="32" height="32" viewBox="0 0 32 32" fill="none" xmlns="http://www.w3.org/2000/svg">
<path d="M17.5023 28.4444C17.5023 28.857 17.344 29.2527 17.0623 29.5444C16.7806 29.8361 16.3984 30 16 30C15.6016 30 15.2194 29.8361 14.9377 29.5444C14.656 29.2527 14.4977 28.857 14.4977 28.4444V7.3104L6.54598 15.5441C6.26264 15.8274 5.88315 15.9842 5.48925 15.9807C5.09535 15.9771 4.71856 15.8135 4.44002 15.5251C4.16148 15.2367 4.00348 14.8465 4.00006 14.4387C3.99663 14.0308 4.14806 13.6379 4.42172 13.3445L14.9379 2.45545C15.2196 2.16382 15.6016 2 16 2C16.3984 2 16.7804 2.16382 17.0621 2.45545L27.5783 13.3445C27.8519 13.6379 28.0034 14.0308 27.9999 14.4387C27.9965 14.8465 27.8385 15.2367 27.56 15.5251C27.2814 15.8135 26.9046 15.9771 26.5107 15.9807C26.1168 15.9842 25.7374 15.8274 25.454 15.5441L17.5023 7.3104V28.4444Z" fill="#252525"/>
</svg>
