<svg width="109" height="100" viewBox="0 0 109 100" fill="none" xmlns="http://www.w3.org/2000/svg">
<g id="Group 1026 6" opacity="0.2" clip-path="url(#clip0_1025_5392)">
<g id="Group 1026">
<path id="Path 20230" d="M34.4148 97.7264C34.4147 98.2483 34.2282 98.7541 33.8872 99.1576C33.5461 99.5611 33.0716 99.8374 32.5444 99.9394C32.0171 100.041 31.4698 99.9627 30.9955 99.7169C30.5213 99.4711 30.1494 99.0733 29.9433 98.5912C29.7372 98.1091 29.7095 97.5726 29.865 97.0729C30.0205 96.5733 30.3495 96.1414 30.7961 95.8508C31.2427 95.5602 31.7793 95.4289 32.3144 95.4793C32.8495 95.5296 33.35 95.7584 33.7309 96.1269C34.1679 96.5511 34.4139 97.1263 34.4148 97.7264Z" fill="#252525"/>
<path id="Path 20231" d="M49.2976 97.7258C49.2976 98.1722 49.1613 98.6086 48.9058 98.9797C48.6504 99.3509 48.2874 99.6402 47.8626 99.811C47.4378 99.9819 46.9704 100.027 46.5195 99.9395C46.0686 99.8524 45.6544 99.6374 45.3293 99.3218C45.0042 99.0061 44.7828 98.6039 44.6931 98.1661C44.6034 97.7283 44.6495 97.2745 44.8254 96.8621C45.0013 96.4496 45.2993 96.0971 45.6816 95.8491C46.0638 95.6011 46.5133 95.4688 46.973 95.4688C47.5896 95.4688 48.1808 95.7065 48.6167 96.1298C49.0527 96.5531 49.2976 97.1272 49.2976 97.7258Z" fill="#252525"/>
<path id="Path 20232" d="M64.1804 97.7258C64.1804 98.1722 64.0441 98.6086 63.7887 98.9797C63.5333 99.3509 63.1702 99.6402 62.7454 99.811C62.3207 99.9819 61.8533 100.027 61.4023 99.9395C60.9514 99.8524 60.5372 99.6374 60.2121 99.3218C59.887 99.0061 59.6656 98.6039 59.5759 98.1661C59.4862 97.7283 59.5323 97.2745 59.7082 96.8621C59.8842 96.4496 60.1821 96.0971 60.5644 95.8491C60.9466 95.6011 61.3961 95.4688 61.8558 95.4688C62.4724 95.4688 63.0636 95.7065 63.4996 96.1298C63.9355 96.5531 64.1804 97.1272 64.1804 97.7258Z" fill="#252525"/>
<path id="Path 20233" d="M79.0554 97.7258C79.0554 98.1722 78.9191 98.6086 78.6637 98.9797C78.4082 99.3509 78.0452 99.6402 77.6204 99.811C77.1957 99.9819 76.7283 100.027 76.2773 99.9395C75.8264 99.8524 75.4122 99.6374 75.0871 99.3218C74.762 99.0061 74.5406 98.6039 74.4509 98.1661C74.3612 97.7283 74.4072 97.2745 74.5832 96.8621C74.7591 96.4496 75.0571 96.0971 75.4394 95.8491C75.8217 95.6011 76.2711 95.4688 76.7309 95.4688C77.3474 95.4688 77.9386 95.7065 78.3746 96.1298C78.8105 96.5531 79.0554 97.1272 79.0554 97.7258Z" fill="#252525"/>
<path id="Path 20234" d="M19.532 84.093C19.532 84.5394 19.3957 84.9757 19.1402 85.3469C18.8848 85.7181 18.5218 86.0074 18.097 86.1782C17.6722 86.349 17.2048 86.3937 16.7539 86.3066C16.303 86.2196 15.8888 86.0046 15.5637 85.6889C15.2386 85.3733 15.0172 84.9711 14.9275 84.5333C14.8378 84.0955 14.8838 83.6417 15.0598 83.2292C15.2357 82.8168 15.5337 82.4643 15.9159 82.2163C16.2982 81.9683 16.7477 81.8359 17.2074 81.8359C17.8239 81.8359 18.4152 82.0737 18.8511 82.497C19.2871 82.9203 19.532 83.4944 19.532 84.093Z" fill="#252525"/>
<path id="Path 20235" d="M34.4184 84.093C34.4203 84.5416 34.285 84.9807 34.0297 85.3546C33.7743 85.7286 33.4105 86.0205 32.9841 86.1935C32.5578 86.3664 32.0881 86.4126 31.6347 86.3263C31.1813 86.2399 30.7645 86.0247 30.4371 85.7082C30.1097 85.3916 29.8864 84.9878 29.7956 84.5479C29.7047 84.108 29.7504 83.6518 29.9268 83.2372C30.1032 82.8225 30.4023 82.468 30.7864 82.2185C31.1704 81.9691 31.6221 81.8359 32.0842 81.8359C32.7016 81.8359 33.2939 82.0734 33.7313 82.4964C34.1688 82.9195 34.4158 83.4935 34.4184 84.093Z" fill="#252525"/>
<path id="Path 20236" d="M49.2976 84.093C49.2976 84.5394 49.1613 84.9757 48.9058 85.3469C48.6504 85.7181 48.2874 86.0074 47.8626 86.1782C47.4378 86.349 46.9704 86.3937 46.5195 86.3066C46.0686 86.2196 45.6544 86.0046 45.3293 85.6889C45.0042 85.3733 44.7828 84.9711 44.6931 84.5333C44.6034 84.0955 44.6495 83.6417 44.8254 83.2292C45.0013 82.8168 45.2993 82.4643 45.6816 82.2163C46.0638 81.9683 46.5133 81.8359 46.973 81.8359C47.5896 81.8359 48.1808 82.0737 48.6167 82.497C49.0527 82.9203 49.2976 83.4944 49.2976 84.093Z" fill="#252525"/>
<path id="Path 20237" d="M64.1804 84.093C64.1804 84.5394 64.0441 84.9757 63.7887 85.3469C63.5333 85.7181 63.1702 86.0074 62.7454 86.1782C62.3207 86.349 61.8533 86.3937 61.4023 86.3066C60.9514 86.2196 60.5372 86.0046 60.2121 85.6889C59.887 85.3733 59.6656 84.9711 59.5759 84.5333C59.4862 84.0955 59.5323 83.6417 59.7082 83.2292C59.8842 82.8168 60.1821 82.4643 60.5644 82.2163C60.9466 81.9683 61.3961 81.8359 61.8558 81.8359C62.4724 81.8359 63.0636 82.0737 63.4996 82.497C63.9355 82.9203 64.1804 83.4944 64.1804 84.093Z" fill="#252525"/>
<path id="Path 20238" d="M79.0554 84.093C79.0554 84.5394 78.9191 84.9757 78.6637 85.3469C78.4082 85.7181 78.0452 86.0074 77.6204 86.1782C77.1957 86.349 76.7283 86.3937 76.2773 86.3066C75.8264 86.2196 75.4122 86.0046 75.0871 85.6889C74.762 85.3733 74.5406 84.9711 74.4509 84.5333C74.3612 84.0955 74.4072 83.6417 74.5832 83.2292C74.7591 82.8168 75.0571 82.4643 75.4394 82.2163C75.8217 81.9683 76.2711 81.8359 76.7309 81.8359C77.3474 81.8359 77.9386 82.0737 78.3746 82.497C78.8105 82.9203 79.0554 83.4944 79.0554 84.093Z" fill="#252525"/>
<path id="Path 20239" d="M93.9461 84.093C93.9461 84.5394 93.8097 84.9757 93.5543 85.3469C93.2989 85.7181 92.9358 86.0074 92.5111 86.1782C92.0863 86.349 91.6189 86.3937 91.168 86.3066C90.7171 86.2196 90.3028 86.0046 89.9777 85.6889C89.6526 85.3733 89.4312 84.9711 89.3415 84.5333C89.2519 84.0955 89.2979 83.6417 89.4738 83.2292C89.6498 82.8168 89.9477 82.4643 90.33 82.2163C90.7123 81.9683 91.1617 81.8359 91.6215 81.8359C92.238 81.8359 92.8292 82.0737 93.2652 82.497C93.7011 82.9203 93.9461 83.4944 93.9461 84.093Z" fill="#252525"/>
<path id="Path 20240" d="M19.532 70.4445C19.532 70.8909 19.3957 71.3273 19.1402 71.6985C18.8848 72.0696 18.5218 72.3589 18.097 72.5298C17.6722 72.7006 17.2048 72.7453 16.7539 72.6582C16.303 72.5711 15.8888 72.3562 15.5637 72.0405C15.2386 71.7249 15.0172 71.3227 14.9275 70.8849C14.8378 70.447 14.8838 69.9932 15.0598 69.5808C15.2357 69.1684 15.5337 68.8159 15.9159 68.5679C16.2982 68.3199 16.7477 68.1875 17.2074 68.1875C17.8239 68.1875 18.4152 68.4253 18.8511 68.8486C19.2871 69.2718 19.532 69.8459 19.532 70.4445Z" fill="#252525"/>
<path id="Path 20241" d="M34.4184 70.4445C34.4203 70.8932 34.285 71.3323 34.0297 71.7062C33.7743 72.0801 33.4105 72.3721 32.9841 72.545C32.5578 72.718 32.0881 72.7642 31.6347 72.6778C31.1813 72.5914 30.7645 72.3763 30.4371 72.0597C30.1097 71.7431 29.8864 71.3393 29.7956 70.8994C29.7047 70.4596 29.7504 70.0034 29.9268 69.5887C30.1032 69.1741 30.4023 68.8195 30.7864 68.5701C31.1704 68.3206 31.6221 68.1875 32.0842 68.1875C32.7016 68.1875 33.2939 68.425 33.7313 68.848C34.1688 69.271 34.4158 69.8451 34.4184 70.4445Z" fill="#252525"/>
<path id="Path 20242" d="M49.2976 70.4445C49.2976 70.8909 49.1613 71.3273 48.9058 71.6985C48.6504 72.0696 48.2874 72.3589 47.8626 72.5298C47.4378 72.7006 46.9704 72.7453 46.5195 72.6582C46.0686 72.5711 45.6544 72.3562 45.3293 72.0405C45.0042 71.7249 44.7828 71.3227 44.6931 70.8849C44.6034 70.447 44.6495 69.9932 44.8254 69.5808C45.0013 69.1684 45.2993 68.8159 45.6816 68.5679C46.0638 68.3199 46.5133 68.1875 46.973 68.1875C47.5896 68.1875 48.1808 68.4253 48.6167 68.8486C49.0527 69.2718 49.2976 69.8459 49.2976 70.4445Z" fill="#252525"/>
<path id="Path 20243" d="M64.1804 70.4445C64.1804 70.8909 64.0441 71.3273 63.7887 71.6985C63.5333 72.0696 63.1702 72.3589 62.7454 72.5298C62.3207 72.7006 61.8533 72.7453 61.4023 72.6582C60.9514 72.5711 60.5372 72.3562 60.2121 72.0405C59.887 71.7249 59.6656 71.3227 59.5759 70.8849C59.4862 70.447 59.5323 69.9932 59.7082 69.5808C59.8842 69.1684 60.1821 68.8159 60.5644 68.5679C60.9466 68.3199 61.3961 68.1875 61.8558 68.1875C62.4724 68.1875 63.0636 68.4253 63.4996 68.8486C63.9355 69.2718 64.1804 69.8459 64.1804 70.4445Z" fill="#252525"/>
<path id="Path 20244" d="M79.0554 70.4445C79.0554 70.8909 78.9191 71.3273 78.6637 71.6985C78.4082 72.0696 78.0452 72.3589 77.6204 72.5298C77.1957 72.7006 76.7283 72.7453 76.2773 72.6582C75.8264 72.5711 75.4122 72.3562 75.0871 72.0405C74.762 71.7249 74.5406 71.3227 74.4509 70.8849C74.3612 70.447 74.4072 69.9932 74.5832 69.5808C74.7591 69.1684 75.0571 68.8159 75.4394 68.5679C75.8217 68.3199 76.2711 68.1875 76.7309 68.1875C77.3474 68.1875 77.9386 68.4253 78.3746 68.8486C78.8105 69.2718 79.0554 69.8459 79.0554 70.4445Z" fill="#252525"/>
<path id="Path 20245" d="M93.9461 70.4445C93.9461 70.8909 93.8097 71.3273 93.5543 71.6985C93.2989 72.0696 92.9358 72.3589 92.5111 72.5298C92.0863 72.7006 91.6189 72.7453 91.168 72.6582C90.7171 72.5711 90.3028 72.3562 89.9777 72.0405C89.6526 71.7249 89.4312 71.3227 89.3415 70.8849C89.2519 70.447 89.2979 69.9932 89.4738 69.5808C89.6498 69.1684 89.9477 68.8159 90.33 68.5679C90.7123 68.3199 91.1617 68.1875 91.6215 68.1875C92.238 68.1875 92.8292 68.4253 93.2652 68.8486C93.7011 69.2718 93.9461 69.8459 93.9461 70.4445Z" fill="#252525"/>
<path id="Ellipse 23" d="M2.32459 59.0688C3.60843 59.0688 4.64918 58.0583 4.64918 56.8117C4.64918 55.5652 3.60843 54.5547 2.32459 54.5547C1.04075 54.5547 0 55.5652 0 56.8117C0 58.0583 1.04075 59.0688 2.32459 59.0688Z" fill="#252525"/>
<path id="Path 20246" d="M19.532 56.8117C19.532 57.2581 19.3957 57.6945 19.1402 58.0657C18.8848 58.4368 18.5218 58.7261 18.097 58.897C17.6722 59.0678 17.2048 59.1125 16.7539 59.0254C16.303 58.9383 15.8888 58.7233 15.5637 58.4077C15.2386 58.092 15.0172 57.6899 14.9275 57.2521C14.8378 56.8142 14.8838 56.3604 15.0598 55.948C15.2357 55.5356 15.5337 55.1831 15.9159 54.9351C16.2982 54.6871 16.7477 54.5547 17.2074 54.5547C17.8239 54.5547 18.4152 54.7925 18.8511 55.2158C19.2871 55.639 19.532 56.2131 19.532 56.8117Z" fill="#252525"/>
<path id="Path 20247" d="M34.4148 56.8123C34.4147 57.3343 34.2282 57.8401 33.8872 58.2436C33.5461 58.6471 33.0716 58.9233 32.5444 59.0253C32.0171 59.1273 31.4698 59.0487 30.9955 58.8029C30.5213 58.5571 30.1494 58.1592 29.9433 57.6772C29.7372 57.1951 29.7095 56.6585 29.865 56.1589C30.0205 55.6592 30.3495 55.2273 30.7961 54.9368C31.2427 54.6462 31.7793 54.5149 32.3144 54.5652C32.8495 54.6155 33.35 54.8444 33.7309 55.2128C34.1679 55.637 34.4139 56.2122 34.4148 56.8123Z" fill="#252525"/>
<path id="Path 20248" d="M49.2976 56.8117C49.2976 57.2581 49.1613 57.6945 48.9058 58.0657C48.6504 58.4368 48.2874 58.7261 47.8626 58.897C47.4378 59.0678 46.9704 59.1125 46.5195 59.0254C46.0686 58.9383 45.6544 58.7233 45.3293 58.4077C45.0042 58.092 44.7828 57.6899 44.6931 57.2521C44.6034 56.8142 44.6495 56.3604 44.8254 55.948C45.0013 55.5356 45.2993 55.1831 45.6816 54.9351C46.0638 54.6871 46.5133 54.5547 46.973 54.5547C47.5896 54.5547 48.1808 54.7925 48.6167 55.2158C49.0527 55.639 49.2976 56.2131 49.2976 56.8117Z" fill="#252525"/>
<path id="Path 20249" d="M64.1804 56.8117C64.1804 57.2581 64.0441 57.6945 63.7887 58.0657C63.5333 58.4368 63.1702 58.7261 62.7454 58.897C62.3207 59.0678 61.8533 59.1125 61.4023 59.0254C60.9514 58.9383 60.5372 58.7233 60.2121 58.4077C59.887 58.092 59.6656 57.6899 59.5759 57.2521C59.4862 56.8142 59.5323 56.3604 59.7082 55.948C59.8842 55.5356 60.1821 55.1831 60.5644 54.9351C60.9466 54.6871 61.3961 54.5547 61.8558 54.5547C62.4724 54.5547 63.0636 54.7925 63.4996 55.2158C63.9355 55.639 64.1804 56.2131 64.1804 56.8117Z" fill="#252525"/>
<path id="Ellipse 24" d="M76.7308 59.0688C78.0147 59.0688 79.0554 58.0583 79.0554 56.8117C79.0554 55.5652 78.0147 54.5547 76.7308 54.5547C75.447 54.5547 74.4062 55.5652 74.4062 56.8117C74.4062 58.0583 75.447 59.0688 76.7308 59.0688Z" fill="#252525"/>
<path id="Path 20250" d="M93.9461 56.8117C93.9461 57.2581 93.8097 57.6945 93.5543 58.0657C93.2989 58.4368 92.9358 58.7261 92.5111 58.897C92.0863 59.0678 91.6189 59.1125 91.168 59.0254C90.7171 58.9383 90.3028 58.7233 89.9777 58.4077C89.6526 58.092 89.4312 57.6899 89.3415 57.2521C89.2519 56.8142 89.2979 56.3604 89.4738 55.948C89.6498 55.5356 89.9477 55.1831 90.33 54.9351C90.7123 54.6871 91.1617 54.5547 91.6215 54.5547C92.238 54.5547 92.8292 54.7925 93.2652 55.2158C93.7011 55.639 93.9461 56.2131 93.9461 56.8117Z" fill="#252525"/>
<path id="Path 20251" d="M108.821 56.8117C108.821 57.2581 108.685 57.6945 108.429 58.0657C108.174 58.4368 107.811 58.7261 107.386 58.897C106.961 59.0678 106.494 59.1125 106.043 59.0254C105.592 58.9383 105.178 58.7233 104.853 58.4077C104.528 58.092 104.306 57.6899 104.217 57.2521C104.127 56.8142 104.173 56.3604 104.349 55.948C104.525 55.5356 104.823 55.1831 105.205 54.9351C105.587 54.6871 106.037 54.5547 106.496 54.5547C107.113 54.5547 107.704 54.7925 108.14 55.2158C108.576 55.639 108.821 56.2131 108.821 56.8117Z" fill="#252525"/>
<path id="Path 20252" d="M4.6492 43.1711C4.6492 43.6175 4.51287 44.0539 4.25744 44.425C4.00201 44.7962 3.63893 45.0855 3.21417 45.2563C2.7894 45.4271 2.32203 45.4719 1.8711 45.3848C1.42017 45.2977 1.00597 45.0827 0.680875 44.7671C0.355775 44.4514 0.134359 44.0492 0.044664 43.6114C-0.0450309 43.1736 0.00101712 42.7198 0.17696 42.3074C0.352903 41.8949 0.65084 41.5424 1.03312 41.2944C1.41539 41.0464 1.86483 40.9141 2.32459 40.9141C2.94111 40.9141 3.5324 41.1519 3.96834 41.5751C4.40429 41.9984 4.6492 42.5725 4.6492 43.1711Z" fill="#252525"/>
<path id="Path 20253" d="M19.532 43.1711C19.532 43.6175 19.3957 44.0539 19.1402 44.425C18.8848 44.7962 18.5218 45.0855 18.097 45.2563C17.6722 45.4271 17.2048 45.4719 16.7539 45.3848C16.303 45.2977 15.8888 45.0827 15.5637 44.7671C15.2386 44.4514 15.0172 44.0492 14.9275 43.6114C14.8378 43.1736 14.8838 42.7198 15.0598 42.3074C15.2357 41.8949 15.5337 41.5424 15.9159 41.2944C16.2982 41.0464 16.7477 40.9141 17.2074 40.9141C17.8239 40.9141 18.4152 41.1519 18.8511 41.5751C19.2871 41.9984 19.532 42.5725 19.532 43.1711Z" fill="#252525"/>
<path id="Path 20254" d="M34.4148 43.1717C34.4147 43.6936 34.2282 44.1994 33.8872 44.6029C33.5461 45.0064 33.0716 45.2827 32.5444 45.3847C32.0171 45.4866 31.4698 45.408 30.9955 45.1622C30.5213 44.9164 30.1494 44.5186 29.9433 44.0365C29.7372 43.5545 29.7095 43.0179 29.865 42.5182C30.0205 42.0186 30.3495 41.5867 30.7961 41.2961C31.2427 41.0056 31.7793 40.8743 32.3144 40.9246C32.8495 40.9749 33.35 41.2038 33.7309 41.5722C34.1679 41.9964 34.4139 42.5716 34.4148 43.1717Z" fill="#252525"/>
<path id="Path 20255" d="M49.2976 43.1711C49.2976 43.6175 49.1613 44.0539 48.9058 44.425C48.6504 44.7962 48.2874 45.0855 47.8626 45.2563C47.4378 45.4271 46.9704 45.4719 46.5195 45.3848C46.0686 45.2977 45.6544 45.0827 45.3293 44.7671C45.0042 44.4514 44.7828 44.0492 44.6931 43.6114C44.6034 43.1736 44.6495 42.7198 44.8254 42.3074C45.0013 41.8949 45.2993 41.5424 45.6816 41.2944C46.0638 41.0464 46.5133 40.9141 46.973 40.9141C47.5896 40.9141 48.1808 41.1519 48.6167 41.5751C49.0527 41.9984 49.2976 42.5725 49.2976 43.1711Z" fill="#252525"/>
<path id="Path 20256" d="M64.1804 43.1711C64.1804 43.6175 64.0441 44.0539 63.7887 44.425C63.5333 44.7962 63.1702 45.0855 62.7454 45.2563C62.3207 45.4271 61.8533 45.4719 61.4023 45.3848C60.9514 45.2977 60.5372 45.0827 60.2121 44.7671C59.887 44.4514 59.6656 44.0492 59.5759 43.6114C59.4862 43.1736 59.5323 42.7198 59.7082 42.3074C59.8842 41.8949 60.1821 41.5424 60.5644 41.2944C60.9466 41.0464 61.3961 40.9141 61.8558 40.9141C62.4724 40.9141 63.0636 41.1519 63.4996 41.5751C63.9355 41.9984 64.1804 42.5725 64.1804 43.1711Z" fill="#252525"/>
<path id="Path 20257" d="M79.0554 43.1711C79.0554 43.6175 78.9191 44.0539 78.6637 44.425C78.4082 44.7962 78.0452 45.0855 77.6204 45.2563C77.1957 45.4271 76.7283 45.4719 76.2773 45.3848C75.8264 45.2977 75.4122 45.0827 75.0871 44.7671C74.762 44.4514 74.5406 44.0492 74.4509 43.6114C74.3612 43.1736 74.4072 42.7198 74.5832 42.3074C74.7591 41.8949 75.0571 41.5424 75.4394 41.2944C75.8217 41.0464 76.2711 40.9141 76.7309 40.9141C77.3474 40.9141 77.9386 41.1519 78.3746 41.5751C78.8105 41.9984 79.0554 42.5725 79.0554 43.1711Z" fill="#252525"/>
<path id="Path 20258" d="M93.9461 43.1711C93.9461 43.6175 93.8097 44.0539 93.5543 44.425C93.2989 44.7962 92.9358 45.0855 92.5111 45.2563C92.0863 45.4271 91.6189 45.4719 91.168 45.3848C90.7171 45.2977 90.3028 45.0827 89.9777 44.7671C89.6526 44.4514 89.4312 44.0492 89.3415 43.6114C89.2519 43.1736 89.2979 42.7198 89.4738 42.3074C89.6498 41.8949 89.9477 41.5424 90.33 41.2944C90.7123 41.0464 91.1617 40.9141 91.6215 40.9141C92.238 40.9141 92.8292 41.1519 93.2652 41.5751C93.7011 41.9984 93.9461 42.5725 93.9461 43.1711Z" fill="#252525"/>
<path id="Path 20259" d="M108.821 43.1711C108.821 43.6175 108.685 44.0539 108.429 44.425C108.174 44.7962 107.811 45.0855 107.386 45.2563C106.961 45.4271 106.494 45.4719 106.043 45.3848C105.592 45.2977 105.178 45.0827 104.853 44.7671C104.528 44.4514 104.306 44.0492 104.217 43.6114C104.127 43.1736 104.173 42.7198 104.349 42.3074C104.525 41.8949 104.823 41.5424 105.205 41.2944C105.587 41.0464 106.037 40.9141 106.496 40.9141C107.113 40.9141 107.704 41.1519 108.14 41.5751C108.576 41.9984 108.821 42.5725 108.821 43.1711Z" fill="#252525"/>
<path id="Path 20260" d="M19.532 29.5383C19.532 29.9847 19.3957 30.4211 19.1402 30.7923C18.8848 31.1634 18.5218 31.4527 18.097 31.6235C17.6722 31.7944 17.2048 31.8391 16.7539 31.752C16.303 31.6649 15.8888 31.4499 15.5637 31.1343C15.2386 30.8186 15.0172 30.4164 14.9275 29.9786C14.8378 29.5408 14.8838 29.087 15.0598 28.6746C15.2357 28.2622 15.5337 27.9097 15.9159 27.6617C16.2982 27.4136 16.7477 27.2813 17.2074 27.2812C17.8239 27.2812 18.4152 27.519 18.8511 27.9423C19.2871 28.3656 19.532 28.9397 19.532 29.5383Z" fill="#252525"/>
<path id="Path 20261" d="M34.4184 29.5383C34.4203 29.9869 34.285 30.426 34.0297 30.8C33.7743 31.1739 33.4105 31.4658 32.9841 31.6388C32.5578 31.8118 32.0881 31.858 31.6347 31.7716C31.1813 31.6852 30.7645 31.4701 30.4371 31.1535C30.1097 30.8369 29.8864 30.4331 29.7956 29.9932C29.7047 29.5533 29.7504 29.0972 29.9268 28.6825C30.1032 28.2678 30.4023 27.9133 30.7864 27.6639C31.1704 27.4144 31.6221 27.2813 32.0842 27.2813C32.7016 27.2812 33.2939 27.5187 33.7313 27.9418C34.1688 28.3648 34.4158 28.9388 34.4184 29.5383Z" fill="#252525"/>
<path id="Path 20262" d="M49.2976 29.5383C49.2976 29.9847 49.1613 30.4211 48.9058 30.7923C48.6504 31.1634 48.2874 31.4527 47.8626 31.6235C47.4378 31.7944 46.9704 31.8391 46.5195 31.752C46.0686 31.6649 45.6544 31.4499 45.3293 31.1343C45.0042 30.8186 44.7828 30.4164 44.6931 29.9786C44.6034 29.5408 44.6495 29.087 44.8254 28.6746C45.0013 28.2622 45.2993 27.9097 45.6816 27.6617C46.0638 27.4136 46.5133 27.2813 46.973 27.2812C47.5896 27.2812 48.1808 27.519 48.6167 27.9423C49.0527 28.3656 49.2976 28.9397 49.2976 29.5383Z" fill="#252525"/>
<path id="Path 20263" d="M64.1804 29.5383C64.1804 29.9847 64.0441 30.4211 63.7887 30.7923C63.5333 31.1634 63.1702 31.4527 62.7454 31.6235C62.3207 31.7944 61.8533 31.8391 61.4023 31.752C60.9514 31.6649 60.5372 31.4499 60.2121 31.1343C59.887 30.8186 59.6656 30.4164 59.5759 29.9786C59.4862 29.5408 59.5323 29.087 59.7082 28.6746C59.8842 28.2622 60.1821 27.9097 60.5644 27.6617C60.9466 27.4136 61.3961 27.2813 61.8558 27.2812C62.4724 27.2812 63.0636 27.519 63.4996 27.9423C63.9355 28.3656 64.1804 28.9397 64.1804 29.5383Z" fill="#252525"/>
<path id="Path 20264" d="M79.0554 29.5383C79.0554 29.9847 78.9191 30.4211 78.6637 30.7923C78.4082 31.1634 78.0452 31.4527 77.6204 31.6235C77.1957 31.7944 76.7283 31.8391 76.2773 31.752C75.8264 31.6649 75.4122 31.4499 75.0871 31.1343C74.762 30.8186 74.5406 30.4164 74.4509 29.9786C74.3612 29.5408 74.4072 29.087 74.5832 28.6746C74.7591 28.2622 75.0571 27.9097 75.4394 27.6617C75.8217 27.4136 76.2711 27.2813 76.7309 27.2812C77.3474 27.2812 77.9386 27.519 78.3746 27.9423C78.8105 28.3656 79.0554 28.9397 79.0554 29.5383Z" fill="#252525"/>
<path id="Path 20265" d="M93.9461 29.5383C93.9461 29.9847 93.8097 30.4211 93.5543 30.7923C93.2989 31.1634 92.9358 31.4527 92.5111 31.6235C92.0863 31.7944 91.6189 31.8391 91.168 31.752C90.7171 31.6649 90.3028 31.4499 89.9777 31.1343C89.6526 30.8186 89.4312 30.4164 89.3415 29.9786C89.2519 29.5408 89.2979 29.087 89.4738 28.6746C89.6498 28.2622 89.9477 27.9097 90.33 27.6617C90.7123 27.4136 91.1617 27.2812 91.6215 27.2812C92.238 27.2812 92.8292 27.519 93.2652 27.9423C93.7011 28.3656 93.9461 28.9397 93.9461 29.5383Z" fill="#252525"/>
<path id="Path 20266" d="M19.532 15.8997C19.5296 16.4217 19.341 16.9267 18.9983 17.3288C18.6555 17.731 18.1798 18.0053 17.6522 18.1052C17.1245 18.205 16.5775 18.1243 16.1043 17.8766C15.6311 17.6289 15.2609 17.2296 15.0568 16.7467C14.8527 16.2638 14.8274 15.7272 14.985 15.2281C15.1426 14.7291 15.4735 14.2985 15.9213 14.0097C16.3691 13.7209 16.9061 13.5918 17.441 13.6442C17.9759 13.6967 18.4755 13.9275 18.8548 14.2974C19.0708 14.508 19.2418 14.758 19.358 15.033C19.4742 15.308 19.5333 15.6025 19.532 15.8997Z" fill="#252525"/>
<path id="Path 20267" d="M34.4184 15.8992C34.4184 16.3474 34.2815 16.7856 34.025 17.1583C33.7685 17.531 33.404 17.8215 32.9775 17.993C32.5509 18.1646 32.0816 18.2094 31.6288 18.122C31.176 18.0345 30.7601 17.8187 30.4337 17.5017C30.1072 17.1848 29.8849 16.7809 29.7949 16.3413C29.7048 15.9017 29.751 15.446 29.9277 15.0319C30.1043 14.6177 30.4035 14.2638 30.7874 14.0148C31.1712 13.7657 31.6225 13.6328 32.0842 13.6328C32.7033 13.6328 33.297 13.8716 33.7347 14.2966C34.1725 14.7216 34.4184 15.2981 34.4184 15.8992Z" fill="#252525"/>
<path id="Path 20268" d="M49.2976 15.8992C49.2957 16.3452 49.1578 16.7806 48.9012 17.1506C48.6446 17.5205 48.2809 17.8083 47.856 17.9777C47.431 18.1471 46.9639 18.1905 46.5137 18.1024C46.0634 18.0142 45.6501 17.7985 45.3259 17.4825C45.0018 17.1665 44.7813 16.7643 44.6924 16.3267C44.6035 15.8892 44.6501 15.4359 44.8263 15.024C45.0025 14.6121 45.3005 14.2601 45.6825 14.0125C46.0646 13.7649 46.5137 13.6328 46.973 13.6328C47.2791 13.6328 47.5822 13.6915 47.8648 13.8055C48.1475 13.9195 48.4042 14.0866 48.6202 14.2972C48.8361 14.5077 49.0072 14.7577 49.1234 15.0326C49.2397 15.3075 49.2989 15.602 49.2976 15.8992Z" fill="#252525"/>
<path id="Path 20269" d="M64.1804 15.8997C64.1781 16.4217 63.9895 16.9267 63.6467 17.3288C63.304 17.731 62.8283 18.0053 62.3006 18.1052C61.7729 18.205 61.2259 18.1243 60.7527 17.8766C60.2795 17.6289 59.9094 17.2296 59.7053 16.7467C59.5012 16.2638 59.4758 15.7272 59.6334 15.2281C59.791 14.7291 60.1219 14.2985 60.5697 14.0097C61.0175 13.7209 61.5546 13.5918 62.0894 13.6442C62.6243 13.6967 63.1239 13.9275 63.5032 14.2974C63.7192 14.508 63.8902 14.758 64.0064 15.033C64.1226 15.308 64.1818 15.6025 64.1804 15.8997Z" fill="#252525"/>
<path id="Path 20270" d="M79.0554 15.8997C79.0531 16.4217 78.8645 16.9267 78.5217 17.3288C78.179 17.731 77.7033 18.0053 77.1756 18.1052C76.6479 18.205 76.1009 18.1243 75.6277 17.8766C75.1545 17.6289 74.7844 17.2296 74.5803 16.7467C74.3762 16.2638 74.3508 15.7272 74.5084 15.2281C74.666 14.7291 74.9969 14.2985 75.4447 14.0097C75.8925 13.7209 76.4296 13.5918 76.9644 13.6442C77.4993 13.6967 77.9989 13.9275 78.3782 14.2974C78.5942 14.508 78.7652 14.758 78.8814 15.033C78.9976 15.308 79.0568 15.6025 79.0554 15.8997Z" fill="#252525"/>
<path id="Path 20271" d="M93.946 15.8992C93.9441 16.3452 93.8062 16.7806 93.5496 17.1506C93.293 17.5205 92.9293 17.8083 92.5044 17.9777C92.0795 18.1471 91.6124 18.1905 91.1621 18.1024C90.7118 18.0142 90.2985 17.7985 89.9743 17.4825C89.6502 17.1665 89.4298 16.7643 89.3408 16.3267C89.2519 15.8892 89.2985 15.4359 89.4747 15.024C89.6509 14.6121 89.9489 14.2601 90.331 14.0125C90.713 13.7649 91.1621 13.6328 91.6215 13.6328C91.9275 13.6328 92.2306 13.6915 92.5133 13.8055C92.7959 13.9195 93.0526 14.0866 93.2686 14.2972C93.4846 14.5077 93.6556 14.7577 93.7718 15.0326C93.8881 15.3075 93.9473 15.602 93.946 15.8992Z" fill="#252525"/>
<path id="Path 20272" d="M34.4148 2.25761C34.4147 2.77959 34.2282 3.28539 33.8872 3.68888C33.5461 4.09238 33.0716 4.36863 32.5444 4.47061C32.0171 4.57258 31.4698 4.49395 30.9955 4.24814C30.5213 4.00234 30.1494 3.60453 29.9433 3.12245C29.7372 2.64037 29.7095 2.10383 29.865 1.60417C30.0205 1.10451 30.3495 0.672643 30.7961 0.38207C31.2427 0.0914972 31.7793 -0.0398101 32.3144 0.0105197C32.8495 0.0608495 33.35 0.2897 33.7309 0.658101C34.1679 1.08234 34.4139 1.65755 34.4148 2.25761Z" fill="#252525"/>
<path id="Path 20273" d="M49.2976 2.25705C49.2976 2.70346 49.1613 3.13983 48.9058 3.511C48.6504 3.88217 48.2874 4.17145 47.8626 4.34228C47.4378 4.51311 46.9704 4.55782 46.5195 4.47073C46.0686 4.38364 45.6544 4.16866 45.3293 3.85301C45.0042 3.53736 44.7828 3.13519 44.6931 2.69737C44.6034 2.25955 44.6495 1.80575 44.8254 1.39333C45.0013 0.980908 45.2993 0.628409 45.6816 0.380402C46.0638 0.132395 46.5133 0 46.973 0C47.5896 0 48.1808 0.237794 48.6167 0.661072C49.0527 1.08435 49.2976 1.65845 49.2976 2.25705Z" fill="#252525"/>
<path id="Path 20274" d="M64.1804 2.25705C64.1804 2.70346 64.0441 3.13983 63.7887 3.511C63.5333 3.88217 63.1702 4.17145 62.7454 4.34228C62.3207 4.51311 61.8533 4.55782 61.4023 4.47073C60.9514 4.38364 60.5372 4.16866 60.2121 3.85301C59.887 3.53736 59.6656 3.13519 59.5759 2.69737C59.4862 2.25955 59.5323 1.80575 59.7082 1.39333C59.8842 0.980908 60.1821 0.628409 60.5644 0.380402C60.9466 0.132395 61.3961 0 61.8558 0C62.4724 0 63.0636 0.237794 63.4996 0.661072C63.9355 1.08435 64.1804 1.65845 64.1804 2.25705Z" fill="#252525"/>
<path id="Ellipse 25" d="M76.7308 4.51408C78.0147 4.51408 79.0554 3.50357 79.0554 2.25704C79.0554 1.01051 78.0147 0 76.7308 0C75.447 0 74.4062 1.01051 74.4062 2.25704C74.4062 3.50357 75.447 4.51408 76.7308 4.51408Z" fill="#252525"/>
</g>
</g>
<defs>
<clipPath id="clip0_1025_5392">
<rect width="108.824" height="100" fill="white"/>
</clipPath>
</defs>
</svg>
