<svg width="470" height="110" viewBox="0 0 470 110" fill="none" xmlns="http://www.w3.org/2000/svg">
<path d="M146.073 77.5198C147.596 77.5198 148.944 77.7406 150.116 78.182C151.311 78.6234 152.436 79.2856 153.49 80.1684L150.748 83.4095C150.022 82.8519 149.307 82.4337 148.604 82.1549C147.901 81.8761 147.151 81.7367 146.354 81.7367C144.714 81.7367 143.413 82.4221 142.452 83.7928C141.515 85.1636 141.046 87.2778 141.046 90.1355C141.046 92.9468 141.515 95.0378 142.452 96.4085C143.413 97.7561 144.737 98.4298 146.425 98.4298C147.315 98.4298 148.124 98.2672 148.85 97.9419C149.576 97.5934 150.362 97.1055 151.205 96.4782L153.771 99.7541C152.857 100.66 151.744 101.404 150.432 101.985C149.143 102.565 147.713 102.856 146.143 102.856C143.894 102.856 141.937 102.368 140.273 101.392C138.609 100.416 137.308 98.9758 136.371 97.0707C135.457 95.1423 135 92.8306 135 90.1355C135 87.5102 135.469 85.2449 136.406 83.3398C137.367 81.4347 138.679 79.9942 140.343 79.0184C142.03 78.0194 143.94 77.5198 146.073 77.5198Z" fill="white"/>
<path d="M170.73 96.8964C170.73 97.5934 170.824 98.1045 171.011 98.4298C171.222 98.7551 171.55 98.999 171.995 99.1617L170.835 102.751C169.687 102.658 168.75 102.414 168.023 102.019C167.297 101.601 166.734 100.951 166.336 100.068C165.117 101.926 163.242 102.856 160.711 102.856C158.86 102.856 157.384 102.321 156.282 101.253C155.181 100.184 154.63 98.7899 154.63 97.0707C154.63 95.0494 155.38 93.5044 156.88 92.4356C158.38 91.3669 160.547 90.8325 163.383 90.8325H165.281V90.031C165.281 88.939 165.047 88.1955 164.578 87.8006C164.11 87.3824 163.289 87.1733 162.118 87.1733C161.508 87.1733 160.77 87.2662 159.903 87.4521C159.036 87.6147 158.145 87.847 157.231 88.1491L155.966 84.5247C157.138 84.0833 158.333 83.7464 159.551 83.514C160.793 83.2817 161.942 83.1655 162.996 83.1655C165.668 83.1655 167.625 83.7115 168.867 84.8035C170.109 85.8954 170.73 87.5334 170.73 89.7173V96.8964ZM162.328 98.9177C163.594 98.9177 164.578 98.3253 165.281 97.1404V93.8645H163.91C162.645 93.8645 161.696 94.0852 161.063 94.5266C160.454 94.9681 160.149 95.6534 160.149 96.5828C160.149 97.3262 160.336 97.9071 160.711 98.3253C161.11 98.7202 161.649 98.9177 162.328 98.9177Z" fill="white"/>
<path d="M185.735 83.1655C187.961 83.1655 189.672 84.0368 190.867 85.7793C192.062 87.4985 192.66 89.9148 192.66 93.0281C192.66 94.9332 192.355 96.6292 191.746 98.1162C191.16 99.6031 190.304 100.765 189.18 101.601C188.078 102.438 186.766 102.856 185.243 102.856C184.235 102.856 183.309 102.647 182.466 102.228C181.645 101.81 180.942 101.229 180.356 100.486L180.075 102.263H175.154V76.4046L180.708 75.8122V85.6399C181.27 84.8732 181.985 84.2691 182.852 83.8277C183.743 83.3863 184.704 83.1655 185.735 83.1655ZM183.626 98.848C185.805 98.848 186.895 96.908 186.895 93.0281C186.895 90.8209 186.637 89.2991 186.121 88.4627C185.606 87.6263 184.856 87.2081 183.872 87.2081C182.63 87.2081 181.575 87.9284 180.708 89.3688V97.0707C181.059 97.6283 181.481 98.0697 181.973 98.395C182.489 98.697 183.04 98.848 183.626 98.848Z" fill="white"/>
<path d="M201.683 83.758V102.263H196.129V83.758H201.683ZM198.87 74C199.831 74 200.616 74.302 201.226 74.9061C201.858 75.4869 202.175 76.2304 202.175 77.1365C202.175 78.0426 201.858 78.7977 201.226 79.4017C200.616 79.9826 199.831 80.273 198.87 80.273C197.91 80.273 197.125 79.9826 196.515 79.4017C195.906 78.7977 195.601 78.0426 195.601 77.1365C195.601 76.2304 195.906 75.4869 196.515 74.9061C197.125 74.302 197.91 74 198.87 74Z" fill="white"/>
<path d="M216.982 83.1655C218.599 83.1655 219.864 83.6534 220.778 84.6292C221.692 85.605 222.149 86.9758 222.149 88.7415V102.263H216.595V89.6825C216.595 88.7531 216.443 88.1142 216.138 87.7657C215.857 87.394 215.423 87.2081 214.838 87.2081C213.713 87.2081 212.635 88.0097 211.604 89.6128V102.263H206.049V83.758H210.9L211.287 85.9535C212.084 85.0242 212.939 84.3272 213.853 83.8625C214.791 83.3979 215.834 83.1655 216.982 83.1655Z" fill="white"/>
<path d="M242.613 92.6447C242.613 93.4114 242.578 94.0736 242.508 94.6312H230.942C231.13 96.1878 231.575 97.2798 232.278 97.9071C232.981 98.5344 233.954 98.848 235.196 98.848C235.946 98.848 236.672 98.7202 237.375 98.4647C238.078 98.1859 238.84 97.7677 239.66 97.2101L241.945 100.277C239.766 101.996 237.34 102.856 234.669 102.856C231.646 102.856 229.325 101.973 227.708 100.207C226.091 98.4414 225.283 96.0716 225.283 93.0978C225.283 91.2159 225.623 89.5315 226.302 88.0445C226.982 86.5344 227.978 85.3495 229.29 84.4898C230.603 83.607 232.173 83.1655 234.001 83.1655C236.696 83.1655 238.805 84.0019 240.328 85.6747C241.851 87.3475 242.613 89.6709 242.613 92.6447ZM237.164 91.0765C237.118 88.242 236.11 86.8248 234.141 86.8248C233.181 86.8248 232.431 87.1733 231.892 87.8703C231.376 88.5673 231.06 89.7173 230.942 91.3204H237.164V91.0765Z" fill="white"/>
<path d="M257.439 101.392C256.759 101.857 255.962 102.217 255.048 102.472C254.158 102.728 253.267 102.856 252.377 102.856C248.299 102.833 246.26 100.602 246.26 96.1646V87.5915H243.624V83.758H246.26V79.7502L251.814 79.1229V83.758H256.103L255.505 87.5915H251.814V96.0949C251.814 96.9545 251.955 97.5702 252.236 97.9419C252.518 98.3137 252.963 98.4995 253.572 98.4995C254.205 98.4995 254.873 98.302 255.576 97.9071L257.439 101.392Z" fill="white"/>
<path d="M269.417 83.2352C270.096 83.2352 270.717 83.3166 271.28 83.4792L270.401 88.8112C269.698 88.6486 269.135 88.5673 268.714 88.5673C267.612 88.5673 266.769 88.9506 266.183 89.7173C265.62 90.4608 265.175 91.5876 264.847 93.0978V102.263H259.293V83.758H264.144L264.601 87.3475C265.023 86.0697 265.655 85.0707 266.499 84.3504C267.366 83.607 268.339 83.2352 269.417 83.2352Z" fill="white"/>
<path d="M283.701 102.298C282.952 104.691 281.721 106.527 280.01 107.804C278.323 109.106 276.05 109.837 273.191 110L272.593 106.132C274.374 105.899 275.687 105.504 276.53 104.947C277.397 104.389 278.089 103.495 278.604 102.263H276.706L271.011 83.758H276.917L280.257 98.7435L283.912 83.758H289.642L283.701 102.298Z" fill="white"/>
<path d="M327.181 78.1123L323.103 102.263H315.616L312.593 83.8277L309.394 102.263H302.082L298.075 78.1123H303.84L306.265 97.9419L309.64 78.1123H315.686L318.85 97.9419L321.697 78.1123H327.181Z" fill="white"/>
<path d="M337.442 83.1655C340.301 83.1655 342.539 84.0368 344.156 85.7793C345.773 87.4985 346.582 89.9148 346.582 93.0281C346.582 95.0029 346.207 96.7338 345.457 98.2207C344.73 99.6844 343.676 100.823 342.293 101.636C340.934 102.449 339.317 102.856 337.442 102.856C334.607 102.856 332.369 101.996 330.728 100.277C329.111 98.5344 328.303 96.1065 328.303 92.9932C328.303 91.0184 328.666 89.2991 329.392 87.8354C330.142 86.3485 331.197 85.1985 332.556 84.3853C333.939 83.5721 335.567 83.1655 337.442 83.1655ZM337.442 87.2081C336.317 87.2081 335.474 87.6844 334.911 88.637C334.349 89.5663 334.068 91.0184 334.068 92.9932C334.068 95.0145 334.337 96.4898 334.876 97.4192C335.439 98.3485 336.294 98.8132 337.442 98.8132C338.567 98.8132 339.411 98.3485 339.973 97.4192C340.536 96.4666 340.817 95.0029 340.817 93.0281C340.817 91.0068 340.536 89.5315 339.973 88.6021C339.434 87.6728 338.591 87.2081 337.442 87.2081Z" fill="white"/>
<path d="M357.971 83.1655C360.83 83.1655 363.068 84.0368 364.685 85.7793C366.302 87.4985 367.11 89.9148 367.11 93.0281C367.11 95.0029 366.735 96.7338 365.985 98.2207C365.259 99.6844 364.204 100.823 362.822 101.636C361.462 102.449 359.845 102.856 357.971 102.856C355.135 102.856 352.897 101.996 351.257 100.277C349.64 98.5344 348.831 96.1065 348.831 92.9932C348.831 91.0184 349.194 89.2991 349.921 87.8354C350.671 86.3485 351.725 85.1985 353.084 84.3853C354.467 83.5721 356.096 83.1655 357.971 83.1655ZM357.971 87.2081C356.846 87.2081 356.002 87.6844 355.44 88.637C354.877 89.5663 354.596 91.0184 354.596 92.9932C354.596 95.0145 354.866 96.4898 355.405 97.4192C355.967 98.3485 356.822 98.8132 357.971 98.8132C359.096 98.8132 359.939 98.3485 360.502 97.4192C361.064 96.4666 361.345 95.0029 361.345 93.0281C361.345 91.0068 361.064 89.5315 360.502 88.6021C359.963 87.6728 359.119 87.2081 357.971 87.2081Z" fill="white"/>
<path d="M387.147 76.4046V102.263H382.225L381.944 100.103C380.632 101.938 378.862 102.856 376.636 102.856C374.316 102.856 372.547 101.973 371.328 100.207C370.133 98.4414 369.535 96.0252 369.535 92.9584C369.535 91.0765 369.852 89.3921 370.484 87.9051C371.117 86.4182 372.008 85.2565 373.156 84.4201C374.328 83.5837 375.663 83.1655 377.163 83.1655C378.944 83.1655 380.421 83.7464 381.592 84.908V75.8122L387.147 76.4046ZM378.358 98.8132C379.647 98.8132 380.725 98.1162 381.592 96.7222V88.7415C381.147 88.2072 380.69 87.8122 380.222 87.5566C379.776 87.3011 379.261 87.1733 378.675 87.1733C377.644 87.1733 376.823 87.6496 376.214 88.6021C375.605 89.5547 375.3 91.0184 375.3 92.9932C375.3 95.1539 375.558 96.6641 376.074 97.5237C376.613 98.3833 377.374 98.8132 378.358 98.8132Z" fill="white"/>
<path d="M415.466 83.758L411.599 102.263H404.955L402.459 88.6718L399.999 102.263H393.425L389.453 83.758H395.077L397.011 98.151L399.928 83.758H405.342L407.908 98.151L410.158 83.758H415.466Z" fill="white"/>
<path d="M425.907 83.1655C428.766 83.1655 431.004 84.0368 432.621 85.7793C434.238 87.4985 435.046 89.9148 435.046 93.0281C435.046 95.0029 434.671 96.7338 433.921 98.2207C433.195 99.6844 432.14 100.823 430.758 101.636C429.398 102.449 427.781 102.856 425.907 102.856C423.071 102.856 420.833 101.996 419.193 100.277C417.576 98.5344 416.767 96.1065 416.767 92.9932C416.767 91.0184 417.13 89.2991 417.857 87.8354C418.607 86.3485 419.661 85.1985 421.02 84.3853C422.403 83.5721 424.032 83.1655 425.907 83.1655ZM425.907 87.2081C424.782 87.2081 423.938 87.6844 423.376 88.637C422.813 89.5663 422.532 91.0184 422.532 92.9932C422.532 95.0145 422.802 96.4898 423.341 97.4192C423.903 98.3485 424.758 98.8132 425.907 98.8132C427.031 98.8132 427.875 98.3485 428.438 97.4192C429 96.4666 429.281 95.0029 429.281 93.0281C429.281 91.0068 429 89.5315 428.438 88.6021C427.899 87.6728 427.055 87.2081 425.907 87.2081Z" fill="white"/>
<path d="M448.474 83.2352C449.153 83.2352 449.775 83.3166 450.337 83.4792L449.458 88.8112C448.755 88.6486 448.193 88.5673 447.771 88.5673C446.669 88.5673 445.826 88.9506 445.24 89.7173C444.677 90.4608 444.232 91.5876 443.904 93.0978V102.263H438.35V83.758H443.201L443.658 87.3475C444.08 86.0697 444.713 85.0707 445.556 84.3504C446.423 83.607 447.396 83.2352 448.474 83.2352Z" fill="white"/>
<path d="M458.013 75.8122V102.263H452.459V76.4046L458.013 75.8122ZM469.543 83.758L463.884 91.878L470 102.263H463.743L458.189 92.1568L463.884 83.758H469.543Z" fill="white"/>
<path d="M158.651 7.5628C161.905 7.5628 164.783 8.03704 167.286 8.98551C169.838 9.93398 172.241 11.3567 174.493 13.2536L168.637 20.2174C167.085 19.0193 165.559 18.1208 164.057 17.5217C162.555 16.9227 160.954 16.6232 159.252 16.6232C155.748 16.6232 152.97 18.0958 150.918 21.0411C148.915 23.9863 147.914 28.529 147.914 34.6691C147.914 40.7093 148.915 45.2021 150.918 48.1473C152.97 51.0427 155.798 52.4903 159.402 52.4903C161.304 52.4903 163.031 52.1409 164.583 51.442C166.134 50.6932 167.811 49.6449 169.613 48.2971L175.094 55.3358C173.142 57.2826 170.764 58.88 167.961 60.128C165.208 61.376 162.155 62 158.801 62C153.996 62 149.816 60.9517 146.262 58.8551C142.708 56.7585 139.93 53.6634 137.928 49.57C135.976 45.4267 135 40.4597 135 34.6691C135 29.0282 136.001 24.161 138.003 20.0676C140.056 15.9742 142.859 12.8792 146.413 10.7826C150.017 8.63607 154.096 7.5628 158.651 7.5628Z" fill="white"/>
<path d="M201.109 19.843C202.56 19.843 203.887 20.0177 205.088 20.3672L203.211 31.8237C201.709 31.4742 200.508 31.2995 199.607 31.2995C197.254 31.2995 195.452 32.1232 194.201 33.7705C193 35.368 192.049 37.7891 191.348 41.0338V60.7271H179.485V20.9662H189.846L190.822 28.6787C191.723 25.9332 193.075 23.7866 194.877 22.2391C196.729 20.6417 198.806 19.843 201.109 19.843Z" fill="white"/>
<path d="M242.111 40.0604C242.111 41.7077 242.036 43.1304 241.885 44.3285H217.183C217.584 47.6731 218.535 50.0193 220.036 51.3672C221.538 52.715 223.615 53.3889 226.268 53.3889C227.87 53.3889 229.422 53.1143 230.923 52.5652C232.425 51.9662 234.052 51.0676 235.804 49.8696L240.684 56.4589C236.029 60.153 230.848 62 225.142 62C218.685 62 213.729 60.1031 210.276 56.3092C206.822 52.5153 205.095 47.4235 205.095 41.0338C205.095 36.9903 205.821 33.3712 207.272 30.1763C208.724 26.9316 210.851 24.3857 213.654 22.5386C216.457 20.6417 219.811 19.6932 223.715 19.6932C229.472 19.6932 233.977 21.4903 237.23 25.0845C240.484 28.6787 242.111 33.6707 242.111 40.0604ZM230.473 36.6908C230.373 30.6006 228.22 27.5556 224.016 27.5556C221.964 27.5556 220.362 28.3043 219.211 29.8019C218.109 31.2995 217.434 33.7705 217.183 37.215H230.473V36.6908Z" fill="white"/>
<path d="M279.727 49.1957C279.727 50.6932 279.927 51.7915 280.327 52.4903C280.778 53.1892 281.479 53.7134 282.43 54.0628L279.952 61.7754C277.499 61.5757 275.497 61.0515 273.945 60.2029C272.394 59.3043 271.192 57.9066 270.341 56.0097C267.738 60.0032 263.734 62 258.328 62C254.374 62 251.22 60.8519 248.868 58.5556C246.515 56.2593 245.339 53.2641 245.339 49.57C245.339 45.2271 246.94 41.9074 250.144 39.6111C253.348 37.3148 257.978 36.1667 264.034 36.1667H268.089V34.4444C268.089 32.0982 267.588 30.5008 266.587 29.6522C265.586 28.7536 263.834 28.3043 261.331 28.3043C260.03 28.3043 258.453 28.504 256.601 28.9034C254.749 29.2528 252.847 29.752 250.895 30.401L248.192 22.6135C250.695 21.6651 253.247 20.9412 255.85 20.442C258.503 19.9428 260.956 19.6932 263.208 19.6932C268.915 19.6932 273.094 20.8663 275.747 23.2126C278.4 25.5588 279.727 29.0781 279.727 33.7705V49.1957ZM261.782 53.5387C264.485 53.5387 266.587 52.2657 268.089 49.7198V42.6812H265.161C262.458 42.6812 260.43 43.1554 259.079 44.1039C257.777 45.0523 257.127 46.525 257.127 48.5217C257.127 50.1192 257.527 51.3671 258.328 52.2657C259.179 53.1143 260.33 53.5387 261.782 53.5387Z" fill="white"/>
<path d="M314.178 58.8551C312.727 59.8535 311.025 60.6272 309.073 61.1763C307.171 61.7254 305.269 62 303.366 62C294.657 61.9501 290.302 57.1578 290.302 47.6232V29.2029H284.671V20.9662H290.302V12.3551L302.165 11.0072V20.9662H311.325L310.049 29.2029H302.165V47.4734C302.165 49.3205 302.465 50.6433 303.066 51.442C303.667 52.2407 304.618 52.6401 305.919 52.6401C307.271 52.6401 308.697 52.2158 310.199 51.3672L314.178 58.8551Z" fill="white"/>
<path d="M330.001 20.9662V60.7271H318.138V20.9662H330.001ZM323.995 0C326.047 0 327.724 0.648954 329.025 1.94686C330.377 3.19485 331.053 4.79227 331.053 6.73913C331.053 8.68599 330.377 10.3084 329.025 11.6063C327.724 12.8543 326.047 13.4783 323.995 13.4783C321.943 13.4783 320.266 12.8543 318.964 11.6063C317.663 10.3084 317.012 8.68599 317.012 6.73913C317.012 4.79227 317.663 3.19485 318.964 1.94686C320.266 0.648954 321.943 0 323.995 0Z" fill="white"/>
<path d="M373.642 20.9662L361.103 60.7271H347.062L334.223 20.9662H347.137L354.195 51.7416L361.553 20.9662H373.642Z" fill="white"/>
<path d="M412 40.0604C412 41.7077 411.925 43.1304 411.775 44.3285H387.073C387.473 47.6731 388.424 50.0193 389.926 51.3672C391.427 52.715 393.505 53.3889 396.158 53.3889C397.759 53.3889 399.311 53.1143 400.813 52.5652C402.314 51.9662 403.941 51.0676 405.693 49.8696L410.573 56.4589C405.918 60.153 400.738 62 395.031 62C388.574 62 383.619 60.1031 380.165 56.3092C376.711 52.5153 374.984 47.4235 374.984 41.0338C374.984 36.9903 375.71 33.3712 377.162 30.1763C378.613 26.9316 380.741 24.3857 383.544 22.5386C386.347 20.6417 389.7 19.6932 393.605 19.6932C399.361 19.6932 403.866 21.4903 407.12 25.0845C410.373 28.6787 412 33.6707 412 40.0604ZM400.362 36.6908C400.262 30.6006 398.11 27.5556 393.905 27.5556C391.853 27.5556 390.251 28.3043 389.1 29.8019C387.999 31.2995 387.323 33.7705 387.073 37.215H400.362V36.6908Z" fill="white"/>
<g clip-path="url(#clip0_1043_638)">
<path d="M115.295 68.079L96.6825 100.712C95.0718 103.532 92.737 105.877 89.9162 107.509C87.0953 109.14 83.8892 110 80.6247 110H39.3779C36.1121 110 32.9047 109.14 30.0831 107.507C27.2614 105.874 24.9264 103.527 23.3164 100.705L2.39946 64.0383C0.826688 61.282 0 58.1681 0 55C0 51.832 0.826688 48.718 2.39946 45.9617L9.78407 33C9.78407 33.0623 9.78407 33.121 9.78407 33.1833C9.778 39.4471 11.1862 45.6325 13.9051 51.2844C16.624 56.9363 20.5844 61.911 25.4948 65.8423C25.9305 66.209 26.3773 66.539 26.8278 66.869C29.111 68.5632 31.5632 70.0204 34.1459 71.2177C35.9986 72.0848 37.9141 72.8129 39.8764 73.3957C46.9706 75.5052 54.497 75.7365 61.709 74.0667C61.9712 74.2317 62.2333 74.393 62.4992 74.5507C69.2016 78.5605 76.8799 80.6753 84.7047 80.6667H84.7342C86.6616 80.6727 88.5871 80.5502 90.4979 80.3L90.6825 80.2743C100.009 78.9921 108.655 74.7081 115.295 68.079Z" fill="url(#paint0_linear_1043_638)"/>
<path d="M61.7144 74.0667C54.5024 75.7365 46.9761 75.5051 39.8818 73.3957C37.917 72.8132 35.999 72.0852 34.144 71.2177C31.5613 70.0204 29.1091 68.5632 26.8258 66.869C26.3754 66.539 25.9286 66.1943 25.4929 65.8423C20.5851 61.9095 16.6276 56.9342 13.9113 51.2824C11.195 45.6305 9.78906 39.4459 9.79691 33.1833C9.79691 33.121 9.79691 33.0623 9.79691 33L18.4258 17.8787L23.3218 9.295C24.9319 6.47336 27.2669 4.12635 30.0885 2.49343C32.9102 0.860497 36.1175 9.50571e-05 39.3834 0H64.2511C60.1836 2.18105 56.4959 4.99758 53.3292 8.34167C51.9204 9.81831 50.6211 11.3942 49.4412 13.057C47.2862 16.0867 45.5385 19.3828 44.2424 22.8617C43.3755 25.1752 42.7169 27.5605 42.2744 29.9897C42.1538 30.6228 42.0504 31.262 41.9643 31.9073C40.8323 40.0786 42.0943 48.4007 45.5994 55.8785C49.1045 63.3563 54.7043 69.6733 61.7292 74.074L61.7144 74.0667Z" fill="url(#paint1_linear_1043_638)"/>
<path d="M117.603 64.0383L115.299 68.0717C108.657 74.6954 100.011 78.9741 90.686 80.2523L90.5014 80.278C88.5906 80.5282 86.665 80.6507 84.7377 80.6447H84.7082C76.8834 80.6533 69.205 78.5385 62.5026 74.5287C62.2368 74.371 61.9746 74.2097 61.7125 74.0447C54.6913 69.6456 49.0939 63.3321 45.5891 55.8587C42.0842 48.3853 40.82 40.0678 41.9476 31.9C42.0337 31.2547 42.1371 30.6154 42.2577 29.9823C42.7001 27.5532 43.3587 25.1679 44.2257 22.8543C45.5218 19.3755 47.2694 16.0794 49.4245 13.0497C50.6043 11.3869 51.9037 9.81098 53.3125 8.33434C56.4842 4.9916 60.1769 2.17751 64.2491 5.54155e-06H80.6429C81.9148 -0.000983846 83.1833 0.130513 84.4275 0.392339C86.9929 0.924896 89.4144 1.99439 91.5308 3.52952C93.6471 5.06466 95.4096 7.03016 96.7008 9.295L117.618 45.9617C119.188 48.7192 120.012 51.8339 120.01 55.0019C120.007 58.17 119.178 61.2833 117.603 64.0383Z" fill="url(#paint2_linear_1043_638)"/>
<path d="M53.9773 70.3024C43.757 70.5114 37.8271 67.8531 34.3748 64.6557C32.3247 62.784 30.8359 60.3856 30.0733 57.7257C29.9704 56.8213 29.9211 55.9116 29.9256 55.0014C29.8367 49.2488 31.3454 43.5831 34.2862 38.6261C36.3368 35.2518 39.0444 32.3175 42.2505 29.9947C42.6604 29.6941 43.0776 29.4081 43.5022 29.1331C43.5022 29.1331 43.4173 29.2797 43.2991 29.4557C43.181 29.6317 43.1588 29.6977 43.0591 29.8554L42.7342 30.3871V30.4347C42.4536 30.9224 42.1914 31.4174 41.9404 31.9197C40.5367 34.7403 39.5909 37.7635 39.1379 40.8774C38.1779 47.4774 38.9348 59.4307 53.0284 69.4774C53.3295 69.7692 53.6462 70.0446 53.9773 70.3024Z" fill="url(#paint3_linear_1043_638)"/>
<path d="M86.359 76.8926V76.9146C86.2752 77.9166 85.9525 78.8843 85.4175 79.7379C85.2098 80.0687 84.9713 80.3793 84.7049 80.6656C84.2902 81.1148 83.8127 81.5025 83.287 81.8169C82.2173 82.4695 81.1074 83.0549 79.964 83.5696C74.9093 85.7361 69.4476 86.8073 63.943 86.7119C57.8399 86.7999 51.8077 85.4052 46.3713 82.6493C43.8714 81.3606 41.5607 79.7383 39.5036 77.8276C37.4785 75.9434 35.7253 73.7902 34.2938 71.4293L34.172 71.2203C34.0316 70.9783 33.895 70.7363 33.7584 70.4649C33.895 70.5529 34.028 70.6483 34.172 70.7289C34.9101 71.2011 35.6772 71.6273 36.4686 72.0049C37.5828 72.5448 38.7325 73.009 39.9098 73.3946C43.5682 74.5501 47.3772 75.1677 51.2156 75.2279H52.9289C56.1403 75.1958 59.3465 74.9643 62.5289 74.5349C64.1535 74.3149 65.772 74.0436 67.3843 73.7209C67.8273 73.6439 68.2704 73.5596 68.7098 73.4643C68.9203 73.4239 69.1344 73.3799 69.3264 73.3249L69.6624 73.2443C71.8353 72.7079 73.8937 71.7889 75.74 70.5309C76.9334 69.6888 78.3776 69.2702 79.8399 69.3427C81.3022 69.4152 82.6972 69.9746 83.8003 70.9306L84.1695 71.2349C84.9671 71.9313 85.5862 72.8064 85.9753 73.7878C86.3644 74.7691 86.5124 75.8285 86.407 76.8779L86.359 76.8926Z" fill="url(#paint4_linear_1043_638)"/>
<path d="M85.9462 36.2193C85.8469 36.4711 85.731 36.7161 85.5991 36.9526C85.2331 37.6462 84.7426 38.2675 84.1517 38.786L83.8047 39.094C82.6998 40.0479 81.3045 40.6059 79.8422 40.6783C78.38 40.7508 76.9356 40.3336 75.7407 39.4936C72.6164 37.3398 68.9027 36.1882 65.0994 36.1936C59.7862 36.1936 55.4293 37.9463 52.1505 41.4076C50.362 43.293 49.0309 45.5592 48.2588 48.0333C47.5695 50.2912 47.2332 52.6408 47.2619 55C47.2619 55.528 47.2914 56.034 47.321 56.5363C44.4469 52.0977 43.2923 46.7743 44.0717 41.5543C45.2274 33.5243 50.4484 26.796 55.2484 24.519C55.6508 24.323 56.0666 24.1551 56.4927 24.0166V24.0423C56.633 23.991 56.7696 23.9543 56.9025 23.9176C59.2212 23.5368 61.5677 23.3467 63.9179 23.3493C69.421 23.2565 74.881 24.3276 79.9351 26.4916C81.0766 27.005 82.1862 27.5854 83.2582 28.2296C84.1233 28.7483 84.8526 29.4628 85.3865 30.3148C85.9204 31.1668 86.2438 32.1321 86.3302 33.132C86.4517 34.1768 86.3201 35.2353 85.9462 36.2193Z" fill="url(#paint5_linear_1043_638)"/>
<path d="M87.6456 67.5355L87.3015 67.2292C85.3632 65.5389 82.9144 64.542 80.3433 64.3967C77.7723 64.2513 75.2261 64.9658 73.1086 66.4267C70.8064 68.0343 68.0608 68.8904 65.2502 68.877C63.4864 68.9043 61.7327 68.6073 60.0768 68.001C58.7579 67.2414 57.5106 66.4472 56.335 65.6182C56.1937 65.4834 56.0524 65.3548 55.9172 65.2139C53.5456 62.7024 52.3782 59.3823 52.3782 55.0025C52.3782 50.6227 53.5333 47.3149 55.9049 44.8157C58.2766 42.3164 61.2934 41.1403 65.2379 41.1403C68.0485 41.1269 70.7941 41.983 73.0963 43.5905C75.2138 45.0515 77.76 45.766 80.3311 45.6206C82.9021 45.4752 85.3509 44.4784 87.2893 42.7881L87.6333 42.4757C88.998 41.2544 90.0579 39.7325 90.7288 38.0311C91.3997 36.3296 91.6631 34.4955 91.498 32.6747C91.3457 30.8956 90.7724 29.1779 89.825 27.6627C88.8776 26.1474 87.5832 24.8778 86.0481 23.958C84.8013 23.2064 83.5085 22.5333 82.1773 21.9427C76.4834 19.4758 70.3273 18.2478 64.1197 18.3409C61.4054 18.3332 58.6957 18.5628 56.0217 19.0269H55.9664C51.8779 19.7252 47.9217 21.0475 44.2372 22.9473C38.4352 25.9211 33.575 30.4422 30.1978 36.0071C26.864 41.7838 25.1094 48.3317 25.1094 54.9964C25.1094 61.6611 26.864 68.209 30.1978 73.9857C33.5722 79.5497 38.4334 84.0675 44.2372 87.0332C50.3873 90.1687 57.2127 91.7585 64.1197 91.6642C70.3295 91.7587 76.4887 90.5373 82.1896 88.0807C83.5197 87.4856 84.8124 86.8105 86.0604 86.0592C87.5957 85.1412 88.8904 83.8729 89.8379 82.3585C90.7853 80.8441 91.3585 79.1271 91.5103 77.3487C91.6759 75.526 91.4128 73.6899 90.7419 71.9864C90.071 70.2829 89.0108 68.7589 87.6456 67.5355ZM56.6791 24.0438C56.8204 23.9948 56.9556 23.958 57.0908 23.9213C59.4141 23.5396 61.765 23.3491 64.1197 23.3516C69.6219 23.2562 75.0817 24.3273 80.1375 26.494C81.2851 27.0074 82.4012 27.5884 83.4799 28.2337C84.3438 28.7505 85.0726 29.4641 85.6066 30.3159C86.1406 31.1677 86.4645 32.1335 86.552 33.1342C86.6582 34.1826 86.5125 35.2411 86.1268 36.2222C85.7411 37.2033 85.1265 38.0787 84.3339 38.7758L83.9837 39.0821C82.8781 40.0374 81.4833 40.5957 80.022 40.6678C78.5608 40.74 77.1175 40.3219 75.9226 39.4803C72.7943 37.3278 69.0818 36.1781 65.2809 36.1847C59.9662 36.1847 55.61 37.9366 52.329 41.3976C50.5429 43.2825 49.2126 45.5495 48.4398 48.0255C47.7445 50.2854 47.4025 52.6387 47.426 55.0025C47.426 55.5293 47.4567 56.0377 47.4875 56.54C44.6152 52.1048 43.4599 46.779 44.2372 41.5568C45.3923 33.5262 50.6148 26.8003 55.4134 24.5216C55.823 24.3248 56.2459 24.157 56.6791 24.0193V24.0438ZM30.1056 55.027C30.0148 49.2644 31.5246 43.5891 34.468 38.6288C36.7859 34.8141 39.936 31.5689 43.6842 29.1341C43.6842 29.1341 43.5982 29.2812 43.4815 29.4588C43.3647 29.6364 43.3402 29.6977 43.2418 29.857L42.9162 30.3899V30.4328C41.0685 33.6588 39.8431 37.2012 39.3034 40.8769C38.345 47.468 39.1007 59.4313 53.1954 69.4834C53.5026 69.7713 53.8098 70.0408 54.16 70.3042C43.9361 70.5125 38.007 67.854 34.554 64.6564C32.5073 62.7865 31.0188 60.3888 30.2531 57.7284C30.1487 56.8157 30.1056 55.9214 30.1056 55.0025V55.027ZM86.5397 76.9199C86.4552 77.9214 86.1324 78.8883 85.5982 79.7406C85.0639 80.5928 84.3335 81.3058 83.4676 81.8203C82.3919 82.4744 81.2755 83.0596 80.1252 83.5723C75.0694 85.739 69.6096 86.8101 64.1074 86.7147C58.006 86.8046 51.9745 85.4107 46.5351 82.6534C44.0363 81.3651 41.7253 79.7433 39.6659 77.8326C37.6412 75.9488 35.8878 73.7946 34.4557 71.4314C34.2714 71.1189 34.0994 70.8188 33.9212 70.4696C34.0563 70.5554 34.1915 70.6534 34.3328 70.733C35.0718 71.2044 35.8392 71.6299 36.6307 72.0071C40.7043 73.9918 45.6258 75.0699 51.3767 75.2476C51.6532 75.2476 51.9358 75.2476 52.2246 75.2476H53.0909C57.9425 75.1966 62.7787 74.6921 67.5358 73.7407C67.9782 73.6631 68.4206 73.5773 68.8629 73.4834C69.0718 73.4405 69.2869 73.3977 69.4774 73.3425L69.8153 73.2629C71.9864 72.7254 74.0441 71.8065 75.8918 70.5493C77.0868 69.7076 78.5301 69.2895 79.9913 69.3617C81.4525 69.4339 82.8474 69.9922 83.953 70.9474L84.3032 71.2537C85.0995 71.9487 85.7178 72.8232 86.1068 73.8045C86.4958 74.7857 86.6442 75.8454 86.5397 76.8954V76.9199Z" fill="white"/>
</g>
<defs>
<linearGradient id="paint0_linear_1043_638" x1="16.6767" y1="44.1375" x2="61.8737" y2="120.363" gradientUnits="userSpaceOnUse">
<stop stop-color="#EAC85B"/>
<stop offset="1" stop-color="#C59F25"/>
</linearGradient>
<linearGradient id="paint1_linear_1043_638" x1="56.1316" y1="14.027" x2="4.59248" y2="47.1752" gradientUnits="userSpaceOnUse">
<stop stop-color="#EAC85B"/>
<stop offset="1" stop-color="#C59F25"/>
</linearGradient>
<linearGradient id="paint2_linear_1043_638" x1="105.018" y1="72.0044" x2="51.2922" y2="13.1282" gradientUnits="userSpaceOnUse">
<stop stop-color="#EAC85B"/>
<stop offset="1" stop-color="#C59F25"/>
</linearGradient>
<linearGradient id="paint3_linear_1043_638" x1="88.5" y1="59" x2="34.1201" y2="46.4647" gradientUnits="userSpaceOnUse">
<stop stop-color="#EAC85B"/>
<stop offset="1" stop-color="#C59F25"/>
</linearGradient>
<linearGradient id="paint4_linear_1043_638" x1="88.5" y1="59" x2="34.1201" y2="46.4647" gradientUnits="userSpaceOnUse">
<stop stop-color="#EAC85B"/>
<stop offset="1" stop-color="#C59F25"/>
</linearGradient>
<linearGradient id="paint5_linear_1043_638" x1="88.5" y1="59" x2="34.1201" y2="46.4647" gradientUnits="userSpaceOnUse">
<stop stop-color="#EAC85B"/>
<stop offset="1" stop-color="#C59F25"/>
</linearGradient>
<clipPath id="clip0_1043_638">
<rect width="120" height="110" fill="white"/>
</clipPath>
</defs>
</svg>
