<svg width="170" height="40" viewBox="0 0 170 40" fill="none" xmlns="http://www.w3.org/2000/svg">
<path d="M52.9995 28.1862C53.5497 28.1862 54.0364 28.2665 54.4596 28.427C54.8913 28.5875 55.2976 28.8283 55.6785 29.1493L54.6882 30.3279C54.4258 30.1251 54.1676 29.973 53.9137 29.8717C53.6597 29.7703 53.3889 29.7196 53.1011 29.7196C52.5086 29.7196 52.0388 29.9688 51.6917 30.4673C51.3531 30.9657 51.1839 31.7346 51.1839 32.7737C51.1839 33.796 51.3531 34.5563 51.6917 35.0548C52.0388 35.5448 52.517 35.7898 53.1265 35.7898C53.4481 35.7898 53.7401 35.7307 54.0025 35.6124C54.2649 35.4857 54.5485 35.3083 54.8532 35.0801L55.7801 36.2714C55.45 36.6009 55.0479 36.8712 54.5739 37.0824C54.1083 37.2936 53.592 37.3993 53.0249 37.3993C52.2123 37.3993 51.5055 37.2218 50.9045 36.867C50.3035 36.5122 49.8338 35.9884 49.4952 35.2956C49.1651 34.5944 49 33.7537 49 32.7737C49 31.819 49.1693 30.9953 49.5079 30.3025C49.8549 29.6098 50.3289 29.086 50.9299 28.7311C51.5394 28.3678 52.2292 28.1862 52.9995 28.1862Z" fill="#252525"/>
<path d="M61.9054 35.2322C61.9054 35.4857 61.9393 35.6715 62.007 35.7898C62.0832 35.9081 62.2017 35.9968 62.3625 36.0559L61.9435 37.3612C61.5287 37.3274 61.1902 37.2387 60.9278 37.0951C60.6654 36.943 60.4622 36.7065 60.3183 36.3854C59.8782 37.0613 59.201 37.3993 58.2868 37.3993C57.6181 37.3993 57.0849 37.2049 56.687 36.8163C56.2892 36.4277 56.0903 35.9208 56.0903 35.2956C56.0903 34.5606 56.3611 33.9987 56.9029 33.6101C57.4446 33.2215 58.2276 33.0272 59.2518 33.0272H59.9374V32.7357C59.9374 32.3386 59.8528 32.0683 59.6835 31.9246C59.5142 31.7726 59.2179 31.6965 58.7947 31.6965C58.5746 31.6965 58.308 31.7303 57.9948 31.7979C57.6816 31.8571 57.36 31.9415 57.0298 32.0514L56.5728 30.7334C56.996 30.5729 57.4277 30.4504 57.8678 30.3659C58.3164 30.2814 58.7312 30.2392 59.1121 30.2392C60.0771 30.2392 60.7839 30.4377 61.2325 30.8348C61.6811 31.2319 61.9054 31.8275 61.9054 32.6216V35.2322ZM58.8709 35.9672C59.328 35.9672 59.6835 35.7518 59.9374 35.3209V34.1297H59.4422C58.9851 34.1297 58.6423 34.21 58.4138 34.3705C58.1937 34.531 58.0837 34.7802 58.0837 35.1182C58.0837 35.3885 58.1514 35.5997 58.2868 35.7518C58.4307 35.8954 58.6254 35.9672 58.8709 35.9672Z" fill="#252525"/>
<path d="M67.3251 30.2392C68.1292 30.2392 68.7471 30.556 69.1788 31.1896C69.6105 31.8148 69.8263 32.6935 69.8263 33.8255C69.8263 34.5183 69.7163 35.1351 69.4962 35.6758C69.2846 36.2165 68.9757 36.6389 68.5694 36.943C68.1715 37.2472 67.6975 37.3993 67.1473 37.3993C66.7833 37.3993 66.449 37.3232 66.1443 37.1711C65.848 37.0191 65.5941 36.8079 65.3825 36.5375L65.2809 37.1838H63.5033V27.7807L65.5094 27.5652V31.1389C65.7126 30.8601 65.9707 30.6405 66.2839 30.48C66.6056 30.3194 66.9526 30.2392 67.3251 30.2392ZM66.5633 35.9419C67.3505 35.9419 67.7441 35.2364 67.7441 33.8255C67.7441 33.0229 67.651 32.4696 67.4647 32.1654C67.2785 31.8613 67.0076 31.7092 66.6521 31.7092C66.2035 31.7092 65.8226 31.9711 65.5094 32.4949V35.2956C65.6364 35.4983 65.7888 35.6589 65.9665 35.7771C66.1527 35.887 66.3516 35.9419 66.5633 35.9419Z" fill="#252525"/>
<path d="M73.0854 30.4546V37.1838H71.0793V30.4546H73.0854ZM72.0696 26.9062C72.4167 26.9062 72.7002 27.0161 72.9203 27.2357C73.1488 27.447 73.2631 27.7173 73.2631 28.0468C73.2631 28.3763 73.1488 28.6509 72.9203 28.8705C72.7002 29.0817 72.4167 29.1873 72.0696 29.1873C71.7226 29.1873 71.439 29.0817 71.2189 28.8705C70.9988 28.6509 70.8888 28.3763 70.8888 28.0468C70.8888 27.7173 70.9988 27.447 71.2189 27.2357C71.439 27.0161 71.7226 26.9062 72.0696 26.9062Z" fill="#252525"/>
<path d="M78.6113 30.2392C79.1954 30.2392 79.6525 30.4166 79.9826 30.7714C80.3127 31.1263 80.4778 31.6247 80.4778 32.2668V37.1838H78.4717V32.609C78.4717 32.271 78.4167 32.0387 78.3066 31.912C78.205 31.7768 78.0484 31.7092 77.8368 31.7092C77.4305 31.7092 77.0412 32.0007 76.6687 32.5836V37.1838H74.6626V30.4546H76.4148L76.5545 31.253C76.8423 30.9151 77.1512 30.6616 77.4813 30.4926C77.8199 30.3237 78.1966 30.2392 78.6113 30.2392Z" fill="#252525"/>
<path d="M87.8692 33.6861C87.8692 33.9649 87.8565 34.2057 87.8311 34.4085H83.6539C83.7216 34.9745 83.8824 35.3716 84.1363 35.5997C84.3903 35.8278 84.7416 35.9419 85.1902 35.9419C85.461 35.9419 85.7234 35.8954 85.9774 35.8025C86.2313 35.7011 86.5064 35.549 86.8027 35.3463L87.628 36.4615C86.8408 37.0867 85.9647 37.3993 84.9997 37.3993C83.9078 37.3993 83.0698 37.0782 82.4857 36.4361C81.9017 35.794 81.6097 34.9323 81.6097 33.8509C81.6097 33.1666 81.7324 32.5541 81.9779 32.0134C82.2234 31.4642 82.5831 31.0333 83.0571 30.7207C83.5311 30.3997 84.0982 30.2392 84.7585 30.2392C85.7319 30.2392 86.4937 30.5433 87.0439 31.1516C87.5941 31.7599 87.8692 32.6047 87.8692 33.6861ZM85.9012 33.1159C85.8843 32.0852 85.5203 31.5698 84.8093 31.5698C84.4622 31.5698 84.1914 31.6965 83.9967 31.95C83.8105 32.2034 83.6962 32.6216 83.6539 33.2046H85.9012V33.1159Z" fill="#252525"/>
<path d="M93.2242 36.867C92.9787 37.036 92.6909 37.1669 92.3608 37.2599C92.0391 37.3528 91.7175 37.3993 91.3958 37.3993C89.923 37.3908 89.1866 36.5798 89.1866 34.9661V31.8486H88.2343V30.4546H89.1866V28.9972L91.1927 28.7691V30.4546H92.7417L92.5259 31.8486H91.1927V34.9407C91.1927 35.2533 91.2435 35.4772 91.345 35.6124C91.4466 35.7476 91.6074 35.8152 91.8275 35.8152C92.0561 35.8152 92.2973 35.7434 92.5512 35.5997L93.2242 36.867Z" fill="#252525"/>
<path d="M97.5505 30.2645C97.796 30.2645 98.0203 30.2941 98.2234 30.3532L97.906 32.2922C97.6521 32.233 97.4489 32.2034 97.2966 32.2034C96.8987 32.2034 96.594 32.3428 96.3824 32.6216C96.1793 32.892 96.0184 33.3017 95.8999 33.8509V37.1838H93.8938V30.4546H95.646L95.8111 31.7599C95.9634 31.2952 96.192 30.9319 96.4967 30.67C96.8099 30.3997 97.1611 30.2645 97.5505 30.2645Z" fill="#252525"/>
<path d="M102.71 37.1965C102.439 38.0667 101.995 38.7341 101.377 39.1988C100.767 39.6719 99.9464 39.938 98.9137 39.9972L98.6979 38.5905C99.3412 38.506 99.8152 38.3624 100.12 38.1596C100.433 37.9569 100.683 37.6316 100.869 37.1838H100.183L98.1265 30.4546H100.26L101.466 35.9039L102.786 30.4546H104.856L102.71 37.1965Z" fill="#252525"/>
<path d="M118.415 28.4016L116.942 37.1838H114.237L113.145 30.48L111.99 37.1838H109.349L107.902 28.4016H109.984L110.86 35.6124L112.079 28.4016H114.263L115.405 35.6124L116.434 28.4016H118.415Z" fill="#252525"/>
<path d="M122.121 30.2392C123.154 30.2392 123.962 30.556 124.546 31.1896C125.13 31.8148 125.422 32.6935 125.422 33.8255C125.422 34.5437 125.287 35.1731 125.016 35.7138C124.753 36.246 124.372 36.66 123.873 36.9557C123.382 37.2514 122.798 37.3993 122.121 37.3993C121.097 37.3993 120.288 37.0867 119.696 36.4615C119.112 35.8278 118.82 34.945 118.82 33.8129C118.82 33.0948 118.951 32.4696 119.213 31.9373C119.484 31.3966 119.865 30.9784 120.356 30.6827C120.855 30.387 121.444 30.2392 122.121 30.2392ZM122.121 31.7092C121.715 31.7092 121.41 31.8824 121.207 32.2288C121.004 32.5667 120.902 33.0948 120.902 33.8129C120.902 34.5479 120.999 35.0844 121.194 35.4223C121.397 35.7602 121.706 35.9292 122.121 35.9292C122.527 35.9292 122.832 35.7602 123.035 35.4223C123.238 35.0759 123.34 34.5437 123.34 33.8255C123.34 33.0905 123.238 32.5541 123.035 32.2161C122.84 31.8782 122.536 31.7092 122.121 31.7092Z" fill="#252525"/>
<path d="M129.536 30.2392C130.568 30.2392 131.377 30.556 131.961 31.1896C132.545 31.8148 132.837 32.6935 132.837 33.8255C132.837 34.5437 132.701 35.1731 132.431 35.7138C132.168 36.246 131.787 36.66 131.288 36.9557C130.797 37.2514 130.213 37.3993 129.536 37.3993C128.511 37.3993 127.703 37.0867 127.111 36.4615C126.527 35.8278 126.234 34.945 126.234 33.8129C126.234 33.0948 126.366 32.4696 126.628 31.9373C126.899 31.3966 127.28 30.9784 127.771 30.6827C128.27 30.387 128.858 30.2392 129.536 30.2392ZM129.536 31.7092C129.129 31.7092 128.825 31.8824 128.621 32.2288C128.418 32.5667 128.317 33.0948 128.317 33.8129C128.317 34.5479 128.414 35.0844 128.609 35.4223C128.812 35.7602 129.121 35.9292 129.536 35.9292C129.942 35.9292 130.247 35.7602 130.45 35.4223C130.653 35.0759 130.755 34.5437 130.755 33.8255C130.755 33.0905 130.653 32.5541 130.45 32.2161C130.255 31.8782 129.95 31.7092 129.536 31.7092Z" fill="#252525"/>
<path d="M140.074 27.7807V37.1838H138.296L138.195 36.3981C137.721 37.0655 137.082 37.3993 136.277 37.3993C135.439 37.3993 134.8 37.0782 134.36 36.4361C133.929 35.794 133.713 34.9154 133.713 33.8002C133.713 33.1159 133.827 32.5034 134.056 31.9627C134.284 31.422 134.606 30.9995 135.02 30.6954C135.444 30.3912 135.926 30.2392 136.468 30.2392C137.111 30.2392 137.644 30.4504 138.068 30.8728V27.5652L140.074 27.7807ZM136.9 35.9292C137.365 35.9292 137.755 35.6758 138.068 35.1689V32.2668C137.907 32.0725 137.742 31.9289 137.573 31.8359C137.412 31.743 137.225 31.6965 137.014 31.6965C136.641 31.6965 136.345 31.8697 136.125 32.2161C135.905 32.5625 135.795 33.0948 135.795 33.8129C135.795 34.5986 135.888 35.1477 136.074 35.4603C136.269 35.7729 136.544 35.9292 136.9 35.9292Z" fill="#252525"/>
<path d="M150.302 30.4546L148.906 37.1838H146.506L145.605 32.2415L144.716 37.1838H142.342L140.907 30.4546H142.938L143.637 35.6884L144.69 30.4546H146.646L147.573 35.6884L148.385 30.4546H150.302Z" fill="#252525"/>
<path d="M154.074 30.2392C155.106 30.2392 155.915 30.556 156.499 31.1896C157.083 31.8148 157.375 32.6935 157.375 33.8255C157.375 34.5437 157.239 35.1731 156.969 35.7138C156.706 36.246 156.325 36.66 155.826 36.9557C155.335 37.2514 154.751 37.3993 154.074 37.3993C153.05 37.3993 152.241 37.0867 151.649 36.4615C151.065 35.8278 150.773 34.945 150.773 33.8129C150.773 33.0948 150.904 32.4696 151.166 31.9373C151.437 31.3966 151.818 30.9784 152.309 30.6827C152.808 30.387 153.397 30.2392 154.074 30.2392ZM154.074 31.7092C153.667 31.7092 153.363 31.8824 153.16 32.2288C152.956 32.5667 152.855 33.0948 152.855 33.8129C152.855 34.5479 152.952 35.0844 153.147 35.4223C153.35 35.7602 153.659 35.9292 154.074 35.9292C154.48 35.9292 154.785 35.7602 154.988 35.4223C155.191 35.0759 155.293 34.5437 155.293 33.8255C155.293 33.0905 155.191 32.5541 154.988 32.2161C154.793 31.8782 154.488 31.7092 154.074 31.7092Z" fill="#252525"/>
<path d="M162.225 30.2645C162.47 30.2645 162.695 30.2941 162.898 30.3532L162.58 32.2922C162.326 32.233 162.123 32.2034 161.971 32.2034C161.573 32.2034 161.268 32.3428 161.057 32.6216C160.854 32.892 160.693 33.3017 160.574 33.8509V37.1838H158.568V30.4546H160.32L160.485 31.7599C160.638 31.2952 160.866 30.9319 161.171 30.67C161.484 30.3997 161.836 30.2645 162.225 30.2645Z" fill="#252525"/>
<path d="M165.67 27.5652V37.1838H163.664V27.7807L165.67 27.5652ZM169.835 30.4546L167.791 33.4074L170 37.1838H167.74L165.734 33.5087L167.791 30.4546H169.835Z" fill="#252525"/>
<path d="M57.5426 2.75011C58.7178 2.75011 59.7574 2.92256 60.6614 3.26746C61.5834 3.61236 62.4512 4.1297 63.2648 4.8195L61.1495 7.35178C60.589 6.91612 60.0376 6.58937 59.4952 6.37154C58.9528 6.15371 58.3743 6.0448 57.7596 6.0448C56.494 6.0448 55.4906 6.5803 54.7493 7.6513C54.0261 8.7223 53.6645 10.3742 53.6645 12.6069C53.6645 14.8034 54.0261 16.4371 54.7493 17.5081C55.4906 18.561 56.5121 19.0874 57.8138 19.0874C58.5008 19.0874 59.1246 18.9603 59.6851 18.7062C60.2455 18.4339 60.8512 18.0527 61.5021 17.5626L63.4818 20.1221C62.7767 20.83 61.9179 21.4109 60.9054 21.8647C59.911 22.3185 58.8082 22.5455 57.5969 22.5455C55.8612 22.5455 54.3516 22.1643 53.0679 21.4018C51.7843 20.6394 50.7808 19.514 50.0577 18.0255C49.3526 16.5188 49 14.7126 49 12.6069C49 10.5557 49.3616 8.78583 50.0848 7.29732C50.826 5.80881 51.8385 4.68336 53.1222 3.92095C54.4239 3.14039 55.8974 2.75011 57.5426 2.75011Z" fill="#252525"/>
<path d="M72.878 7.21564C73.4023 7.21564 73.8814 7.27917 74.3153 7.40624L73.6374 11.5722C73.095 11.4452 72.6611 11.3816 72.3356 11.3816C71.4859 11.3816 70.835 11.6812 70.383 12.2802C69.9491 12.8611 69.6056 13.7415 69.3525 14.9214V22.0826H65.0676V7.62407H68.8101L69.1627 10.4286C69.4881 9.43024 69.9762 8.64969 70.6271 8.08696C71.2961 7.50608 72.0464 7.21564 72.878 7.21564Z" fill="#252525"/>
<path d="M87.6878 14.5674C87.6878 15.1664 87.6606 15.6838 87.6064 16.1195H78.6841C78.8288 17.3357 79.1723 18.1888 79.7147 18.679C80.257 19.1691 81.0073 19.4141 81.9656 19.4141C82.5441 19.4141 83.1046 19.3143 83.647 19.1146C84.1894 18.8968 84.7769 18.57 85.4097 18.1344L87.1725 20.5305C85.4911 21.8738 83.6199 22.5455 81.5588 22.5455C79.2265 22.5455 77.4366 21.8557 76.1891 20.4761C74.9416 19.0965 74.3179 17.2449 74.3179 14.9214C74.3179 13.451 74.58 12.135 75.1043 10.9732C75.6287 9.7933 76.397 8.86752 77.4095 8.19587C78.422 7.50608 79.6333 7.16118 81.0435 7.16118C83.1227 7.16118 84.7498 7.81467 85.925 9.12165C87.1002 10.4286 87.6878 12.2439 87.6878 14.5674ZM83.4843 13.3421C83.4481 11.1275 82.6707 10.0202 81.152 10.0202C80.4107 10.0202 79.8322 10.2925 79.4163 10.8371C79.0186 11.3816 78.7745 12.2802 78.6841 13.5327H83.4843V13.3421Z" fill="#252525"/>
<path d="M101.274 17.8893C101.274 18.4339 101.347 18.8333 101.491 19.0874C101.654 19.3415 101.907 19.5321 102.251 19.6592L101.356 22.4638C100.47 22.3912 99.7467 22.2006 99.1862 21.892C98.6257 21.5652 98.1918 21.0569 97.8845 20.3671C96.9443 21.8194 95.4979 22.5455 93.5453 22.5455C92.1171 22.5455 90.978 22.1279 90.1283 21.2929C89.2786 20.4579 88.8537 19.3688 88.8537 18.0255C88.8537 16.4462 89.4322 15.2391 90.5893 14.404C91.7464 13.569 93.4188 13.1515 95.6064 13.1515H97.0709V12.5253C97.0709 11.6721 96.8901 11.0912 96.5285 10.7826C96.1669 10.4559 95.5341 10.2925 94.6301 10.2925C94.1601 10.2925 93.5905 10.3651 92.9216 10.5103C92.2527 10.6374 91.5656 10.8189 90.8605 11.0549L89.8842 8.2231C90.7882 7.8782 91.7103 7.61499 92.6504 7.43347C93.6086 7.25194 94.4945 7.16118 95.3081 7.16118C97.3692 7.16118 98.8788 7.58776 99.8371 8.44093C100.795 9.2941 101.274 10.5739 101.274 12.2802V17.8893ZM94.7928 19.4686C95.7691 19.4686 96.5285 19.0057 97.0709 18.0799V15.5204H96.0132C95.0369 15.5204 94.3047 15.6929 93.8165 16.0378C93.3465 16.3827 93.1114 16.9182 93.1114 17.6443C93.1114 18.2252 93.2561 18.679 93.5453 19.0057C93.8527 19.3143 94.2685 19.4686 94.7928 19.4686Z" fill="#252525"/>
<path d="M113.718 21.4018C113.194 21.7649 112.579 22.0463 111.874 22.2459C111.187 22.4456 110.5 22.5455 109.813 22.5455C106.667 22.5273 105.094 20.7847 105.094 17.3175V10.6192H103.06V7.62407H105.094V4.49275L109.379 4.00264V7.62407H112.688L112.227 10.6192H109.379V17.2631C109.379 17.9347 109.488 18.4158 109.704 18.7062C109.921 18.9966 110.265 19.1419 110.735 19.1419C111.223 19.1419 111.738 18.9876 112.281 18.679L113.718 21.4018Z" fill="#252525"/>
<path d="M119.433 7.62407V22.0826H115.149V7.62407H119.433ZM117.264 0C118.005 0 118.611 0.235983 119.081 0.70795C119.569 1.16176 119.813 1.74264 119.813 2.45059C119.813 3.15854 119.569 3.7485 119.081 4.22047C118.611 4.67428 118.005 4.90119 117.264 4.90119C116.523 4.90119 115.917 4.67428 115.447 4.22047C114.977 3.7485 114.742 3.15854 114.742 2.45059C114.742 1.74264 114.977 1.16176 115.447 0.70795C115.917 0.235983 116.523 0 117.264 0Z" fill="#252525"/>
<path d="M135.196 7.62407L130.667 22.0826H125.596L120.958 7.62407H125.623L128.172 18.8151L130.83 7.62407H135.196Z" fill="#252525"/>
<path d="M149.051 14.5674C149.051 15.1664 149.024 15.6838 148.969 16.1195H140.047C140.192 17.3357 140.535 18.1888 141.078 18.679C141.62 19.1691 142.37 19.4141 143.329 19.4141C143.907 19.4141 144.468 19.3143 145.01 19.1146C145.552 18.8968 146.14 18.57 146.773 18.1344L148.535 20.5305C146.854 21.8738 144.983 22.5455 142.922 22.5455C140.589 22.5455 138.8 21.8557 137.552 20.4761C136.305 19.0965 135.681 17.2449 135.681 14.9214C135.681 13.451 135.943 12.135 136.467 10.9732C136.992 9.7933 137.76 8.86752 138.772 8.19587C139.785 7.50608 140.996 7.16118 142.406 7.16118C144.486 7.16118 146.113 7.81467 147.288 9.12165C148.463 10.4286 149.051 12.2439 149.051 14.5674ZM144.847 13.3421C144.811 11.1275 144.034 10.0202 142.515 10.0202C141.774 10.0202 141.195 10.2925 140.779 10.8371C140.382 11.3816 140.138 12.2802 140.047 13.5327H144.847V13.3421Z" fill="#252525"/>
<g clip-path="url(#clip0_1043_681)">
<path d="M42.275 24.756L35.4503 36.6227C34.8597 37.648 34.0036 38.5008 32.9693 39.0941C31.9349 39.6874 30.7594 40 29.5624 40H14.4386C13.2411 40 12.0651 39.6871 11.0305 39.0933C9.99585 38.4995 9.13969 37.6461 8.54934 36.62L0.879802 23.2867C0.303119 22.2844 0 21.152 0 20C0 18.848 0.303119 17.7156 0.879802 16.7133L3.58749 12C3.58749 12.0227 3.58749 12.044 3.58749 12.0667C3.58527 14.3444 4.10161 16.5936 5.09854 18.6489C6.09547 20.7041 7.54761 22.5131 9.34811 23.9427C9.50786 24.076 9.67168 24.196 9.83685 24.316C10.674 24.9321 11.5732 25.462 12.5202 25.8973C13.1995 26.2127 13.9018 26.4774 14.6213 26.6893C17.2226 27.4564 19.9822 27.5405 22.6266 26.9333C22.7228 26.9933 22.8189 27.052 22.9164 27.1093C25.3739 28.5675 28.1893 29.3365 31.0584 29.3333H31.0692C31.7759 29.3355 32.4819 29.291 33.1826 29.2L33.2503 29.1907C36.6701 28.7244 39.8403 27.1666 42.275 24.756Z" fill="url(#paint0_linear_1043_681)"/>
<path d="M22.6302 26.9333C19.9858 27.5405 17.2261 27.4564 14.6249 26.6893C13.9045 26.4775 13.2012 26.2128 12.521 25.8973C11.574 25.462 10.6749 24.9321 9.8377 24.316C9.67253 24.196 9.50872 24.0707 9.34896 23.9427C7.54945 22.5126 6.09834 20.7034 5.10237 18.6481C4.10639 16.5929 3.59088 14.344 3.59376 12.0667C3.59376 12.044 3.59376 12.0227 3.59376 12L6.7577 6.50133L8.5529 3.38C9.14325 2.35395 9.99941 1.50049 11.034 0.9067C12.0686 0.312908 13.2447 3.45662e-05 14.4421 0H23.5603C22.0689 0.793109 20.7167 1.8173 19.5556 3.03333C19.0391 3.57029 18.5626 4.14335 18.13 4.748C17.3398 5.84972 16.699 7.04829 16.2238 8.31333C15.9059 9.15462 15.6644 10.022 15.5022 10.9053C15.458 11.1356 15.4201 11.368 15.3885 11.6027C14.9734 14.574 15.4361 17.6003 16.7213 20.3195C18.0065 23.0387 20.0598 25.3357 22.6356 26.936L22.6302 26.9333Z" fill="url(#paint1_linear_1043_681)"/>
<path d="M43.1216 23.2867L42.2768 24.7533C39.8413 27.162 36.6712 28.7179 33.2521 29.1827L33.1844 29.192C32.4837 29.283 31.7777 29.3275 31.071 29.3253H31.0602C28.1911 29.3285 25.3757 28.5595 22.9182 27.1013C22.8207 27.044 22.7246 26.9853 22.6284 26.9253C20.054 25.3257 18.0016 23.0299 16.7165 20.3123C15.4314 17.5946 14.9679 14.5701 15.3813 11.6C15.4129 11.3653 15.4508 11.1329 15.495 10.9027C15.6572 10.0194 15.8987 9.15195 16.2166 8.31067C16.6918 7.04562 17.3326 5.84706 18.1228 4.74534C18.5554 4.14068 19.0319 3.56763 19.5484 3.03067C20.7114 1.81513 22.0654 0.791823 23.5585 2.01511e-06H29.5696C30.036 -0.000357762 30.5011 0.0474594 30.9573 0.142669C31.8979 0.336326 32.7858 0.725232 33.5618 1.28346C34.3378 1.84169 34.9841 2.55642 35.4575 3.38L43.127 16.7133C43.7029 17.7161 44.0051 18.8487 44.0041 20.0007C44.0032 21.1527 43.6991 22.2848 43.1216 23.2867Z" fill="url(#paint2_linear_1043_681)"/>
<path d="M19.7891 25.5681C16.0416 25.6441 13.8673 24.6774 12.6015 23.5147C11.8498 22.8341 11.3039 21.9619 11.0243 20.9947C10.9865 20.6658 10.9685 20.335 10.9701 20.0041C10.9375 17.9122 11.4907 15.8519 12.569 14.0494C13.3209 12.8224 14.3137 11.7554 15.4892 10.9107C15.6395 10.8014 15.7925 10.6974 15.9482 10.5974C15.9482 10.5974 15.9171 10.6507 15.8737 10.7147C15.8304 10.7787 15.8223 10.8027 15.7857 10.8601L15.6666 11.0534V11.0707C15.5637 11.2481 15.4676 11.4281 15.3755 11.6107C14.8609 12.6364 14.5141 13.7357 14.348 14.8681C13.996 17.2681 14.2735 21.6147 19.4411 25.2681C19.5515 25.3742 19.6677 25.4743 19.7891 25.5681Z" fill="url(#paint3_linear_1043_681)"/>
<path d="M31.6624 27.9645V27.9725C31.6316 28.3369 31.5133 28.6888 31.3171 28.9992C31.241 29.1194 31.1535 29.2324 31.0559 29.3365C30.9038 29.4998 30.7287 29.6408 30.536 29.7552C30.1437 29.9925 29.7368 30.2053 29.3175 30.3925C27.4641 31.1803 25.4615 31.5698 23.4432 31.5352C21.2054 31.5672 18.9935 31.06 17.0002 30.0578C16.0836 29.5892 15.2363 28.9993 14.4821 28.3045C13.7395 27.6193 13.0967 26.8364 12.5718 25.9778L12.5271 25.9018C12.4757 25.8138 12.4256 25.7258 12.3755 25.6272C12.4256 25.6592 12.4743 25.6938 12.5271 25.7232C12.7978 25.8949 13.079 26.0498 13.3692 26.1872C13.7777 26.3835 14.1993 26.5523 14.631 26.6925C15.9724 27.1127 17.369 27.3373 18.7765 27.3592H19.4047C20.5822 27.3475 21.7578 27.2633 22.9247 27.1072C23.5203 27.0272 24.1138 26.9285 24.705 26.8112C24.8674 26.7832 25.0299 26.7525 25.191 26.7178C25.2682 26.7032 25.3467 26.6872 25.4171 26.6672L25.5403 26.6378C26.337 26.4428 27.0918 26.1086 27.7687 25.6512C28.2063 25.3449 28.7359 25.1927 29.272 25.2191C29.8082 25.2454 30.3197 25.4488 30.7242 25.7965L30.8595 25.9072C31.152 26.1604 31.379 26.4786 31.5217 26.8355C31.6644 27.1923 31.7186 27.5775 31.68 27.9592L31.6624 27.9645Z" fill="url(#paint4_linear_1043_681)"/>
<path d="M31.511 13.1742C31.4746 13.2658 31.4321 13.3549 31.3837 13.4409C31.2495 13.6931 31.0697 13.919 30.853 14.1075L30.7258 14.2195C30.3207 14.5664 29.809 14.7693 29.2729 14.7957C28.7367 14.822 28.2071 14.6703 27.769 14.3649C26.6234 13.5817 25.2617 13.1629 23.8672 13.1649C21.919 13.1649 20.3215 13.8022 19.1192 15.0609C18.4635 15.7465 17.9754 16.5705 17.6923 17.4702C17.4395 18.2913 17.3162 19.1456 17.3268 20.0035C17.3268 20.1955 17.3376 20.3795 17.3484 20.5622C16.2946 18.9482 15.8713 17.0124 16.157 15.1142C16.5808 12.1942 18.4951 9.74754 20.2551 8.91954C20.4027 8.84827 20.5552 8.78723 20.7114 8.73687V8.74621C20.7628 8.72754 20.8129 8.71421 20.8616 8.70088C21.7118 8.56237 22.5722 8.49325 23.434 8.49421C25.4518 8.46045 27.4538 8.84997 29.3069 9.63687C29.7255 9.82355 30.1323 10.0346 30.5254 10.2689C30.8426 10.4575 31.11 10.7173 31.3058 11.0271C31.5016 11.3369 31.6201 11.688 31.6518 12.0515C31.6964 12.4315 31.6481 12.8164 31.511 13.1742Z" fill="url(#paint5_linear_1043_681)"/>
<path d="M32.1331 24.5548L32.0069 24.4434C31.2962 23.8288 30.3983 23.4663 29.4556 23.4134C28.5129 23.3606 27.5793 23.6204 26.8028 24.1516C25.9587 24.7362 24.952 25.0475 23.9214 25.0426C23.2747 25.0526 22.6317 24.9446 22.0245 24.7241C21.5409 24.4479 21.0836 24.159 20.6525 23.8576C20.6007 23.8086 20.5489 23.7618 20.4993 23.7106C19.6297 22.7973 19.2017 21.59 19.2017 19.9974C19.2017 18.4047 19.6252 17.2019 20.4948 16.2931C21.3644 15.3842 22.4706 14.9566 23.9169 14.9566C24.9475 14.9517 25.9542 15.263 26.7983 15.8476C27.5748 16.3788 28.5084 16.6386 29.4511 16.5858C30.3938 16.5329 31.2917 16.1704 32.0024 15.5558L32.1286 15.4421C32.6289 14.9981 33.0176 14.4446 33.2636 13.8259C33.5096 13.2072 33.6062 12.5403 33.5456 11.8782C33.4898 11.2312 33.2796 10.6066 32.9322 10.0556C32.5848 9.50459 32.1102 9.0429 31.5473 8.70846C31.0902 8.43514 30.6161 8.19039 30.128 7.97561C28.0403 7.07854 25.783 6.63202 23.5069 6.66585C22.5117 6.66309 21.5181 6.74656 20.5376 6.91533H20.5174C19.0182 7.16926 17.5676 7.6501 16.2167 8.34092C14.0893 9.42232 12.3072 11.0663 11.0689 13.0899C9.84648 15.1905 9.20312 17.5716 9.20313 19.9951C9.20312 22.4186 9.84648 24.7997 11.0689 26.9003C12.3062 28.9236 14.0886 30.5665 16.2167 31.6449C18.4717 32.7851 20.9744 33.3632 23.5069 33.3289C25.7838 33.3633 28.0422 32.9191 30.1325 32.0258C30.6202 31.8094 31.0942 31.5639 31.5518 31.2907C32.1148 30.9569 32.5895 30.4957 32.9369 29.945C33.2843 29.3943 33.4945 28.7699 33.5501 28.1232C33.6108 27.4604 33.5144 26.7928 33.2684 26.1733C33.0224 25.5539 32.6337 24.9997 32.1331 24.5548ZM20.7787 8.73964C20.8305 8.72182 20.8801 8.70846 20.9296 8.69509C21.7815 8.55631 22.6435 8.48702 23.5069 8.48793C25.5244 8.45325 27.5263 8.84275 29.3801 9.63064C29.8009 9.81734 30.2101 10.0286 30.6056 10.2632C30.9224 10.4512 31.1896 10.7107 31.3854 11.0204C31.5812 11.3301 31.7 11.6813 31.7321 12.0452C31.771 12.4265 31.7176 12.8114 31.5762 13.1682C31.4347 13.5249 31.2094 13.8432 30.9188 14.0967L30.7904 14.2081C30.385 14.5555 29.8736 14.7585 29.3378 14.7848C28.802 14.811 28.2728 14.659 27.8346 14.3529C26.6876 13.5702 25.3264 13.1521 23.9327 13.1545C21.984 13.1545 20.3867 13.7916 19.1837 15.0501C18.5287 15.7355 18.041 16.5599 17.7576 17.4603C17.5027 18.2821 17.3773 19.1378 17.3859 19.9974C17.3859 20.1889 17.3972 20.3738 17.4084 20.5565C16.3553 18.9436 15.9316 17.007 16.2167 15.108C16.6402 12.1878 18.5551 9.74201 20.3146 8.91338C20.4648 8.84183 20.6199 8.7808 20.7787 8.73073V8.73964ZM11.0351 20.0063C11.0018 17.9108 11.5554 15.847 12.6346 14.0433C13.4845 12.6561 14.6395 11.476 16.0139 10.5907C16.0139 10.5907 15.9824 10.6441 15.9396 10.7087C15.8968 10.7733 15.8877 10.7956 15.8517 10.8535L15.7323 11.0473V11.0629C15.0548 12.236 14.6055 13.5242 14.4076 14.8608C14.0562 17.2576 14.3333 21.6078 19.5013 25.2631C19.614 25.3678 19.7266 25.4658 19.855 25.5616C16.1063 25.6374 13.9323 24.6706 12.6662 23.5079C11.9157 22.8279 11.3699 21.956 11.0892 20.9886C11.0509 20.6567 11.0351 20.3315 11.0351 19.9974V20.0063ZM31.7276 27.9673C31.6966 28.3315 31.5782 28.6831 31.3823 28.993C31.1864 29.3029 30.9186 29.5622 30.6011 29.7493C30.2067 29.9871 29.7974 30.1999 29.3756 30.3864C27.5218 31.1742 25.5199 31.5637 23.5024 31.5291C21.2652 31.5618 19.0537 31.0549 17.0592 30.0522C16.143 29.5838 15.2956 28.994 14.5405 28.2992C13.7981 27.6142 13.1552 26.8309 12.6301 25.9715C12.5625 25.8579 12.4994 25.7487 12.4341 25.6218C12.4837 25.653 12.5332 25.6886 12.5851 25.7175C12.856 25.889 13.1374 26.0437 13.4276 26.1809C14.9213 26.9026 16.7258 27.2946 18.8345 27.3592C18.9359 27.3592 19.0395 27.3592 19.1454 27.3592H19.463C21.242 27.3407 23.0152 27.1572 24.7595 26.8112C24.9217 26.783 25.0839 26.7518 25.2461 26.7177C25.3227 26.7021 25.4015 26.6865 25.4714 26.6665L25.5953 26.6375C26.3914 26.442 27.1458 26.1079 27.8234 25.6507C28.2615 25.3447 28.7907 25.1926 29.3265 25.2189C29.8623 25.2451 30.3737 25.4481 30.7791 25.7955L30.9075 25.9069C31.1995 26.1596 31.4262 26.4776 31.5689 26.8344C31.7115 27.1913 31.7659 27.5766 31.7276 27.9584V27.9673Z" fill="white"/>
</g>
<defs>
<linearGradient id="paint0_linear_1043_681" x1="6.11478" y1="16.05" x2="22.4843" y2="43.8877" gradientUnits="userSpaceOnUse">
<stop stop-color="#EAC85B"/>
<stop offset="1" stop-color="#C59F25"/>
</linearGradient>
<linearGradient id="paint1_linear_1043_681" x1="20.5831" y1="5.10073" x2="1.77757" y2="17.2966" gradientUnits="userSpaceOnUse">
<stop stop-color="#EAC85B"/>
<stop offset="1" stop-color="#C59F25"/>
</linearGradient>
<linearGradient id="paint2_linear_1043_681" x1="38.507" y1="26.1834" x2="18.9859" y2="4.61256" gradientUnits="userSpaceOnUse">
<stop stop-color="#EAC85B"/>
<stop offset="1" stop-color="#C59F25"/>
</linearGradient>
<linearGradient id="paint3_linear_1043_681" x1="32.4474" y1="21.4581" x2="12.5249" y2="16.8274" gradientUnits="userSpaceOnUse">
<stop stop-color="#EAC85B"/>
<stop offset="1" stop-color="#C59F25"/>
</linearGradient>
<linearGradient id="paint4_linear_1043_681" x1="32.4474" y1="21.4581" x2="12.5249" y2="16.8274" gradientUnits="userSpaceOnUse">
<stop stop-color="#EAC85B"/>
<stop offset="1" stop-color="#C59F25"/>
</linearGradient>
<linearGradient id="paint5_linear_1043_681" x1="32.4474" y1="21.4581" x2="12.5249" y2="16.8274" gradientUnits="userSpaceOnUse">
<stop stop-color="#EAC85B"/>
<stop offset="1" stop-color="#C59F25"/>
</linearGradient>
<clipPath id="clip0_1043_681">
<rect width="44" height="40" fill="white"/>
</clipPath>
</defs>
</svg>
