<svg width="180" height="40" viewBox="0 0 180 40" fill="none" xmlns="http://www.w3.org/2000/svg">
<path d="M57.7873 2.75011C58.9832 2.75011 60.0412 2.92256 60.9611 3.26746C61.8995 3.61236 62.7826 4.1297 63.6106 4.8195L61.4579 7.35178C60.8875 6.91612 60.3263 6.58937 59.7744 6.37154C59.2224 6.15371 58.6336 6.0448 58.0081 6.0448C56.7201 6.0448 55.699 6.5803 54.9446 7.6513C54.2087 8.7223 53.8407 10.3742 53.8407 12.6069C53.8407 14.8034 54.2087 16.4371 54.9446 17.5081C55.699 18.561 56.7385 19.0874 58.0633 19.0874C58.7624 19.0874 59.3972 18.9603 59.9676 18.7062C60.5379 18.4339 61.1543 18.0527 61.8167 17.5626L63.8313 20.1221C63.1138 20.83 62.2398 21.4109 61.2095 21.8647C60.1975 22.3185 59.0752 22.5455 57.8425 22.5455C56.0762 22.5455 54.5399 22.1643 53.2335 21.4018C51.9272 20.6394 50.9061 19.514 50.1701 18.0255C49.4525 16.5188 49.0938 14.7126 49.0938 12.6069C49.0938 10.5557 49.4617 8.78583 50.1977 7.29732C50.952 5.80881 51.9824 4.68336 53.2887 3.92095C54.6134 3.14039 56.113 2.75011 57.7873 2.75011Z" fill="#252525"/>
<path d="M73.3936 7.21564C73.9272 7.21564 74.4147 7.27917 74.8563 7.40624L74.1663 11.5722C73.6144 11.4452 73.1728 11.3816 72.8416 11.3816C71.9769 11.3816 71.3145 11.6812 70.8545 12.2802C70.4129 12.8611 70.0634 13.7415 69.8058 14.9214V22.0826H65.4452V7.62407H69.2538L69.6126 10.4286C69.9438 9.43024 70.4405 8.64969 71.1029 8.08696C71.7837 7.50608 72.5472 7.21564 73.3936 7.21564Z" fill="#252525"/>
<path d="M88.4649 14.5674C88.4649 15.1664 88.4374 15.6838 88.3822 16.1195H79.3022C79.4494 17.3357 79.799 18.1888 80.351 18.679C80.903 19.1691 81.6665 19.4141 82.6417 19.4141C83.2304 19.4141 83.8008 19.3143 84.3528 19.1146C84.9047 18.8968 85.5027 18.57 86.1467 18.1344L87.9406 20.5305C86.2295 21.8738 84.3252 22.5455 82.2277 22.5455C79.8542 22.5455 78.0327 21.8557 76.7632 20.4761C75.4937 19.0965 74.8589 17.2449 74.8589 14.9214C74.8589 13.451 75.1257 12.135 75.6592 10.9732C76.1928 9.7933 76.9748 8.86752 78.0051 8.19587C79.0355 7.50608 80.2682 7.16118 81.7033 7.16118C83.8192 7.16118 85.4751 7.81467 86.671 9.12165C87.867 10.4286 88.4649 12.2439 88.4649 14.5674ZM84.1872 13.3421C84.1504 11.1275 83.3592 10.0202 81.8137 10.0202C81.0593 10.0202 80.4706 10.2925 80.0474 10.8371C79.6426 11.3816 79.3942 12.2802 79.3022 13.5327H84.1872V13.3421Z" fill="#252525"/>
<path d="M102.292 17.8893C102.292 18.4339 102.365 18.8333 102.512 19.0874C102.678 19.3415 102.936 19.5321 103.285 19.6592L102.374 22.4638C101.473 22.3912 100.737 22.2006 100.166 21.892C99.5961 21.5652 99.1545 21.0569 98.8418 20.3671C97.885 21.8194 96.4131 22.5455 94.426 22.5455C92.9725 22.5455 91.8134 22.1279 90.9486 21.2929C90.0838 20.4579 89.6515 19.3688 89.6515 18.0255C89.6515 16.4462 90.2402 15.2391 91.4178 14.404C92.5953 13.569 94.2972 13.1515 96.5235 13.1515H98.0138V12.5253C98.0138 11.6721 97.8298 11.0912 97.4618 10.7826C97.0939 10.4559 96.4499 10.2925 95.5299 10.2925C95.0516 10.2925 94.472 10.3651 93.7912 10.5103C93.1105 10.6374 92.4113 10.8189 91.6938 11.0549L90.7002 8.2231C91.6202 7.8782 92.5585 7.61499 93.5153 7.43347C94.4904 7.25194 95.392 7.16118 96.2199 7.16118C98.3174 7.16118 99.8537 7.58776 100.829 8.44093C101.804 9.2941 102.292 10.5739 102.292 12.2802V17.8893ZM95.6955 19.4686C96.6891 19.4686 97.4618 19.0057 98.0138 18.0799V15.5204H96.9375C95.9439 15.5204 95.1988 15.6929 94.702 16.0378C94.2236 16.3827 93.9844 16.9182 93.9844 17.6443C93.9844 18.2252 94.1316 18.679 94.426 19.0057C94.7388 19.3143 95.162 19.4686 95.6955 19.4686Z" fill="#252525"/>
<path d="M114.955 21.4018C114.422 21.7649 113.796 22.0463 113.078 22.2459C112.379 22.4456 111.68 22.5455 110.981 22.5455C107.78 22.5273 106.179 20.7847 106.179 17.3175V10.6192H104.109V7.62407H106.179V4.49275L110.539 4.00264V7.62407H113.906L113.437 10.6192H110.539V17.2631C110.539 17.9347 110.65 18.4158 110.871 18.7062C111.091 18.9966 111.441 19.1419 111.919 19.1419C112.416 19.1419 112.941 18.9876 113.492 18.679L114.955 21.4018Z" fill="#252525"/>
<path d="M120.771 7.62407V22.0826H116.411V7.62407H120.771ZM118.563 0C119.318 0 119.934 0.235983 120.413 0.70795C120.909 1.16176 121.158 1.74264 121.158 2.45059C121.158 3.15854 120.909 3.7485 120.413 4.22047C119.934 4.67428 119.318 4.90119 118.563 4.90119C117.809 4.90119 117.193 4.67428 116.714 4.22047C116.236 3.7485 115.997 3.15854 115.997 2.45059C115.997 1.74264 116.236 1.16176 116.714 0.70795C117.193 0.235983 117.809 0 118.563 0Z" fill="#252525"/>
<path d="M136.812 7.62407L132.203 22.0826H127.042L122.323 7.62407H127.07L129.664 18.8151L132.369 7.62407H136.812Z" fill="#252525"/>
<path d="M150.912 14.5674C150.912 15.1664 150.884 15.6838 150.829 16.1195H141.749C141.896 17.3357 142.246 18.1888 142.798 18.679C143.35 19.1691 144.114 19.4141 145.089 19.4141C145.677 19.4141 146.248 19.3143 146.8 19.1146C147.352 18.8968 147.95 18.57 148.594 18.1344L150.388 20.5305C148.676 21.8738 146.772 22.5455 144.675 22.5455C142.301 22.5455 140.48 21.8557 139.21 20.4761C137.941 19.0965 137.306 17.2449 137.306 14.9214C137.306 13.451 137.573 12.135 138.106 10.9732C138.64 9.7933 139.422 8.86752 140.452 8.19587C141.482 7.50608 142.715 7.16118 144.15 7.16118C146.266 7.16118 147.922 7.81467 149.118 9.12165C150.314 10.4286 150.912 12.2439 150.912 14.5674ZM146.634 13.3421C146.597 11.1275 145.806 10.0202 144.261 10.0202C143.506 10.0202 142.918 10.2925 142.494 10.8371C142.09 11.3816 141.841 12.2802 141.749 13.5327H146.634V13.3421Z" fill="#252525"/>
<path d="M53.628 29.1409C54.2518 29.1409 54.8036 29.2355 55.2834 29.4246C55.7728 29.6138 56.2334 29.8975 56.6652 30.2758L55.5425 31.6644C55.245 31.4255 54.9523 31.2463 54.6644 31.1269C54.3765 31.0074 54.0694 30.9477 53.7432 30.9477C53.0714 30.9477 52.5388 31.2414 52.1454 31.8287C51.7615 32.416 51.5696 33.3219 51.5696 34.5463C51.5696 35.7508 51.7615 36.6467 52.1454 37.234C52.5388 37.8114 53.081 38.1001 53.772 38.1001C54.1366 38.1001 54.4677 38.0304 54.7652 37.891C55.0627 37.7417 55.3841 37.5327 55.7296 37.2639L56.7804 38.6675C56.4061 39.0557 55.9503 39.3743 55.4129 39.6231C54.8851 39.872 54.2997 39.9964 53.6568 39.9964C52.7355 39.9964 51.9343 39.7874 51.2529 39.3693C50.5716 38.9512 50.039 38.334 49.6551 37.5177C49.2809 36.6915 49.0938 35.701 49.0938 34.5463C49.0938 33.4214 49.2857 32.4508 49.6695 31.6346C50.063 30.8183 50.6004 30.2011 51.2817 29.783C51.9726 29.355 52.7547 29.1409 53.628 29.1409Z" fill="#252525"/>
<path d="M63.7247 37.4431C63.7247 37.7417 63.7631 37.9607 63.8399 38.1001C63.9262 38.2395 64.0606 38.344 64.2429 38.4137L63.7679 39.9517C63.2977 39.9118 62.9138 39.8073 62.6163 39.6381C62.3188 39.4589 62.0885 39.1802 61.9254 38.8019C61.4264 39.5983 60.6587 39.9964 59.6223 39.9964C58.8642 39.9964 58.2596 39.7675 57.8086 39.3096C57.3576 38.8517 57.132 38.2544 57.132 37.5177C57.132 36.6517 57.4391 35.9897 58.0533 35.5318C58.6675 35.0739 59.5551 34.8449 60.7163 34.8449H61.4936V34.5015C61.4936 34.0336 61.3976 33.7151 61.2057 33.5459C61.0138 33.3667 60.6779 33.2771 60.1981 33.2771C59.9486 33.2771 59.6463 33.3169 59.2912 33.3965C58.9362 33.4662 58.5715 33.5658 58.1972 33.6952L57.679 32.1423C58.1589 31.9531 58.6483 31.8088 59.1473 31.7092C59.6559 31.6097 60.1261 31.5599 60.5579 31.5599C61.6519 31.5599 62.4532 31.7938 62.9618 32.2617C63.4704 32.7296 63.7247 33.4314 63.7247 34.3671V37.4431ZM60.2844 38.3091C60.8026 38.3091 61.2057 38.0553 61.4936 37.5476V36.144H60.9322C60.414 36.144 60.0253 36.2386 59.7662 36.4277C59.5167 36.6169 59.392 36.9105 59.392 37.3087C59.392 37.6272 59.4687 37.8761 59.6223 38.0553C59.7854 38.2245 60.0061 38.3091 60.2844 38.3091Z" fill="#252525"/>
<path d="M69.869 31.5599C70.7807 31.5599 71.4812 31.9332 71.9706 32.6798C72.46 33.4164 72.7047 34.4517 72.7047 35.7856C72.7047 36.6019 72.58 37.3286 72.3305 37.9657C72.0906 38.6028 71.7403 39.1005 71.2797 39.4589C70.8286 39.8173 70.2912 39.9964 69.6675 39.9964C69.2548 39.9964 68.8758 39.9069 68.5303 39.7277C68.1945 39.5485 67.9066 39.2996 67.6667 38.9811L67.5515 39.7426H65.5363V28.6631L67.8106 28.4093V32.6201C68.0409 32.2916 68.3336 32.0328 68.6887 31.8436C69.0533 31.6545 69.4468 31.5599 69.869 31.5599ZM69.0053 38.2793C69.8978 38.2793 70.344 37.4481 70.344 35.7856C70.344 34.84 70.2385 34.1879 70.0273 33.8296C69.8162 33.4712 69.5091 33.292 69.1061 33.292C68.5975 33.292 68.1657 33.6006 67.8106 34.2178V37.5177C67.9545 37.7567 68.1273 37.9458 68.3288 38.0852C68.5399 38.2146 68.7654 38.2793 69.0053 38.2793Z" fill="#252525"/>
<path d="M76.3995 31.8138V39.7426H74.1252V31.8138H76.3995ZM75.2479 27.6328C75.6414 27.6328 75.9629 27.7622 76.2124 28.021C76.4715 28.2699 76.601 28.5885 76.601 28.9767C76.601 29.3649 76.4715 29.6884 76.2124 29.9473C75.9629 30.1961 75.6414 30.3206 75.2479 30.3206C74.8545 30.3206 74.533 30.1961 74.2835 29.9473C74.034 29.6884 73.9092 29.3649 73.9092 28.9767C73.9092 28.5885 74.034 28.2699 74.2835 28.021C74.533 27.7622 74.8545 27.6328 75.2479 27.6328Z" fill="#252525"/>
<path d="M82.6643 31.5599C83.3265 31.5599 83.8447 31.769 84.2189 32.1871C84.5932 32.6051 84.7803 33.1925 84.7803 33.949V39.7426H82.506V34.3522C82.506 33.954 82.4436 33.6802 82.3189 33.5309C82.2037 33.3717 82.0262 33.292 81.7863 33.292C81.3256 33.292 80.8842 33.6354 80.462 34.3223V39.7426H78.1877V31.8138H80.1741L80.3324 32.7545C80.6587 32.3563 81.009 32.0576 81.3832 31.8585C81.7671 31.6595 82.1941 31.5599 82.6643 31.5599Z" fill="#252525"/>
<path d="M93.16 35.6214C93.16 35.9499 93.1456 36.2336 93.1169 36.4725H88.3811C88.4578 37.1395 88.6402 37.6073 88.9281 37.8761C89.216 38.1449 89.6142 38.2793 90.1228 38.2793C90.4299 38.2793 90.7274 38.2245 91.0153 38.115C91.3031 37.9956 91.615 37.8164 91.9509 37.5775L92.8865 38.8915C91.9941 39.6281 91.0009 39.9964 89.9069 39.9964C88.669 39.9964 87.7189 39.6182 87.0568 38.8616C86.3946 38.1051 86.0636 37.0897 86.0636 35.8155C86.0636 35.0092 86.2027 34.2875 86.481 33.6504C86.7593 33.0033 87.1671 32.4956 87.7045 32.1273C88.2419 31.749 88.8849 31.5599 89.6334 31.5599C90.737 31.5599 91.6006 31.9183 92.2244 32.635C92.8482 33.3517 93.16 34.3472 93.16 35.6214ZM90.9289 34.9495C90.9097 33.735 90.4971 33.1278 89.691 33.1278C89.2975 33.1278 88.9904 33.2771 88.7697 33.5757C88.5586 33.8744 88.4291 34.3671 88.3811 35.054H90.9289V34.9495Z" fill="#252525"/>
<path d="M99.231 39.3693C98.9527 39.5684 98.6264 39.7227 98.2522 39.8322C97.8875 39.9417 97.5229 39.9964 97.1582 39.9964C95.4884 39.9865 94.6536 39.0309 94.6536 37.1295V33.4563H93.574V31.8138H94.6536V30.0966L96.9279 29.8278V31.8138H98.684L98.4393 33.4563H96.9279V37.0997C96.9279 37.468 96.9855 37.7318 97.1006 37.891C97.2158 38.0503 97.3981 38.13 97.6476 38.13C97.9067 38.13 98.1802 38.0453 98.4681 37.8761L99.231 39.3693Z" fill="#252525"/>
<path d="M102.682 31.5599C103.229 31.5599 103.742 31.6445 104.222 31.8138C104.702 31.983 105.124 32.2219 105.489 32.5305L104.654 33.8594C104.03 33.4513 103.402 33.2472 102.768 33.2472C102.471 33.2472 102.241 33.302 102.077 33.4115C101.924 33.511 101.847 33.6554 101.847 33.8445C101.847 33.9938 101.881 34.1182 101.948 34.2178C102.025 34.3074 102.173 34.402 102.394 34.5015C102.615 34.601 102.955 34.7205 103.416 34.8599C104.213 35.0988 104.803 35.4123 105.187 35.8006C105.58 36.1789 105.777 36.7064 105.777 37.3834C105.777 37.9209 105.628 38.3888 105.331 38.787C105.033 39.1752 104.625 39.4738 104.107 39.6829C103.589 39.8919 103.013 39.9964 102.38 39.9964C101.737 39.9964 101.137 39.8919 100.58 39.6829C100.033 39.4738 99.568 39.1851 99.1841 38.8168L100.292 37.5327C100.935 38.0503 101.612 38.3091 102.322 38.3091C102.668 38.3091 102.936 38.2444 103.128 38.115C103.33 37.9856 103.43 37.8015 103.43 37.5625C103.43 37.3734 103.392 37.2241 103.315 37.1146C103.239 37.0051 103.09 36.9055 102.869 36.8159C102.648 36.7164 102.298 36.5969 101.818 36.4576C101.06 36.2286 100.494 35.9101 100.12 35.5019C99.7455 35.0938 99.5584 34.5861 99.5584 33.9789C99.5584 33.521 99.6831 33.1128 99.9326 32.7545C100.192 32.3861 100.556 32.0975 101.027 31.8884C101.506 31.6694 102.058 31.5599 102.682 31.5599Z" fill="#252525"/>
<path d="M121.52 29.3948L119.85 39.7426H116.784L115.546 31.8436L114.236 39.7426H111.242L109.601 29.3948H111.962L112.955 37.891L114.337 29.3948H116.813L118.109 37.891L119.275 29.3948H121.52Z" fill="#252525"/>
<path d="M125.722 31.5599C126.893 31.5599 127.809 31.9332 128.471 32.6798C129.133 33.4164 129.465 34.4517 129.465 35.7856C129.465 36.6318 129.311 37.3734 129.004 38.0105C128.706 38.6376 128.275 39.1254 127.708 39.4738C127.152 39.8222 126.49 39.9964 125.722 39.9964C124.561 39.9964 123.644 39.6281 122.973 38.8915C122.311 38.1449 121.979 37.1046 121.979 35.7707C121.979 34.9246 122.128 34.1879 122.426 33.5608C122.733 32.9237 123.165 32.4309 123.721 32.0825C124.287 31.7341 124.954 31.5599 125.722 31.5599ZM125.722 33.292C125.261 33.292 124.916 33.4961 124.686 33.9042C124.455 34.3024 124.34 34.9246 124.34 35.7707C124.34 36.6368 124.45 37.2689 124.671 37.6671C124.902 38.0653 125.252 38.2643 125.722 38.2643C126.183 38.2643 126.528 38.0653 126.758 37.6671C126.989 37.2589 127.104 36.6318 127.104 35.7856C127.104 34.9196 126.989 34.2875 126.758 33.8893C126.538 33.4911 126.192 33.292 125.722 33.292Z" fill="#252525"/>
<path d="M134.128 31.5599C135.299 31.5599 136.215 31.9332 136.877 32.6798C137.54 33.4164 137.871 34.4517 137.871 35.7856C137.871 36.6318 137.717 37.3734 137.41 38.0105C137.113 38.6376 136.681 39.1254 136.115 39.4738C135.558 39.8222 134.896 39.9964 134.128 39.9964C132.967 39.9964 132.051 39.6281 131.379 38.8915C130.717 38.1449 130.386 37.1046 130.386 35.7707C130.386 34.9246 130.534 34.1879 130.832 33.5608C131.139 32.9237 131.571 32.4309 132.127 32.0825C132.693 31.7341 133.36 31.5599 134.128 31.5599ZM134.128 33.292C133.668 33.292 133.322 33.4961 133.092 33.9042C132.861 34.3024 132.746 34.9246 132.746 35.7707C132.746 36.6368 132.857 37.2689 133.077 37.6671C133.308 38.0653 133.658 38.2643 134.128 38.2643C134.589 38.2643 134.934 38.0653 135.165 37.6671C135.395 37.2589 135.51 36.6318 135.51 35.7856C135.51 34.9196 135.395 34.2875 135.165 33.8893C134.944 33.4911 134.598 33.292 134.128 33.292Z" fill="#252525"/>
<path d="M146.075 28.6631V39.7426H144.06L143.945 38.8168C143.408 39.6032 142.683 39.9964 141.771 39.9964C140.821 39.9964 140.097 39.6182 139.598 38.8616C139.108 38.1051 138.864 37.0698 138.864 35.7558C138.864 34.9495 138.993 34.2277 139.252 33.5907C139.511 32.9536 139.876 32.4558 140.346 32.0975C140.826 31.7391 141.373 31.5599 141.987 31.5599C142.717 31.5599 143.321 31.8088 143.801 32.3065V28.4093L146.075 28.6631ZM142.477 38.2643C143.005 38.2643 143.446 37.9657 143.801 37.3684V33.949C143.619 33.7201 143.432 33.5508 143.24 33.4413C143.057 33.3318 142.846 33.2771 142.606 33.2771C142.184 33.2771 141.848 33.4812 141.599 33.8893C141.349 34.2974 141.224 34.9246 141.224 35.7707C141.224 36.6965 141.33 37.3435 141.541 37.7119C141.762 38.0802 142.074 38.2643 142.477 38.2643Z" fill="#252525"/>
<path d="M157.672 31.8138L156.088 39.7426H153.368L152.346 33.9192L151.338 39.7426H148.646L147.02 31.8138H149.323L150.115 37.9806L151.309 31.8138H153.526L154.577 37.9806L155.498 31.8138H157.672Z" fill="#252525"/>
<path d="M161.947 31.5599C163.118 31.5599 164.034 31.9332 164.696 32.6798C165.359 33.4164 165.69 34.4517 165.69 35.7856C165.69 36.6318 165.536 37.3734 165.229 38.0105C164.932 38.6376 164.5 39.1254 163.934 39.4738C163.377 39.8222 162.715 39.9964 161.947 39.9964C160.786 39.9964 159.87 39.6281 159.198 38.8915C158.536 38.1449 158.205 37.1046 158.205 35.7707C158.205 34.9246 158.353 34.1879 158.651 33.5608C158.958 32.9237 159.39 32.4309 159.946 32.0825C160.512 31.7341 161.179 31.5599 161.947 31.5599ZM161.947 33.292C161.486 33.292 161.141 33.4961 160.911 33.9042C160.68 34.3024 160.565 34.9246 160.565 35.7707C160.565 36.6368 160.676 37.2689 160.896 37.6671C161.127 38.0653 161.477 38.2643 161.947 38.2643C162.408 38.2643 162.753 38.0653 162.984 37.6671C163.214 37.2589 163.329 36.6318 163.329 35.7856C163.329 34.9196 163.214 34.2875 162.984 33.8893C162.763 33.4911 162.417 33.292 161.947 33.292Z" fill="#252525"/>
<path d="M171.188 31.5898C171.466 31.5898 171.721 31.6246 171.951 31.6943L171.591 33.9789C171.303 33.9092 171.073 33.8744 170.9 33.8744C170.449 33.8744 170.104 34.0386 169.864 34.3671C169.634 34.6857 169.451 35.1685 169.317 35.8155V39.7426H167.043V31.8138H169.029L169.216 33.3517C169.389 32.8042 169.648 32.3762 169.993 32.0676C170.348 31.749 170.747 31.5898 171.188 31.5898Z" fill="#252525"/>
<path d="M175.094 28.4093V39.7426H172.82V28.6631L175.094 28.4093ZM179.816 31.8138L177.498 35.2929L180.003 39.7426H177.441L175.166 35.4123L177.498 31.8138H179.816Z" fill="#252525"/>
<g clip-path="url(#clip0_1117_65)">
<path d="M41.9256 24.756L35.1573 36.6227C34.5716 37.648 33.7226 38.5008 32.6968 39.0941C31.671 39.6874 30.5052 40 29.3181 40H14.3192C13.1317 40 11.9654 39.6871 10.9393 39.0933C9.91324 38.4995 9.06416 37.6461 8.47868 36.62L0.872531 23.2867C0.300614 22.2844 0 21.152 0 20C0 18.848 0.300614 17.7156 0.872531 16.7133L3.55785 12C3.55785 12.0227 3.55785 12.044 3.55785 12.0667C3.55564 14.3444 4.06772 16.5936 5.0564 18.6489C6.04509 20.7041 7.48523 22.5131 9.27085 23.9427C9.42929 24.076 9.59175 24.196 9.75555 24.316C10.5858 24.9321 11.4775 25.462 12.4167 25.8973C13.0904 26.2127 13.7869 26.4774 14.5005 26.6893C17.0802 27.4564 19.8171 27.5405 22.4396 26.9333C22.535 26.9933 22.6303 27.052 22.727 27.1093C25.1642 28.5675 27.9563 29.3365 30.8017 29.3333H30.8124C31.5133 29.3355 32.2135 29.291 32.9083 29.2L32.9755 29.1907C36.367 28.7244 39.511 27.1666 41.9256 24.756Z" fill="url(#paint0_linear_1117_65)"/>
<path d="M22.4416 26.9333C19.8191 27.5405 17.0822 27.4564 14.5025 26.6893C13.788 26.4775 13.0906 26.2128 12.416 25.8973C11.4768 25.462 10.5851 24.9321 9.75485 24.316C9.59104 24.196 9.42858 24.0707 9.27015 23.9427C7.48551 22.5126 6.04639 20.7034 5.05865 18.6481C4.0709 16.5929 3.55966 14.344 3.56251 12.0667C3.56251 12.044 3.56251 12.0227 3.56251 12L6.7003 6.50133L8.48067 3.38C9.06614 2.35395 9.91522 1.50049 10.9413 0.9067C11.9673 0.312908 13.1336 3.45662e-05 14.3212 0H23.364C21.885 0.793109 20.544 1.8173 19.3924 3.03333C18.8802 3.57029 18.4077 4.14335 17.9786 4.748C17.195 5.84972 16.5595 7.04829 16.0882 8.31333C15.7729 9.15462 15.5334 10.022 15.3725 10.9053C15.3287 11.1356 15.2911 11.368 15.2597 11.6027C14.8481 14.574 15.307 17.6003 16.5816 20.3195C17.8562 23.0387 19.8925 25.3357 22.447 26.936L22.4416 26.9333Z" fill="url(#paint1_linear_1117_65)"/>
<path d="M42.7661 23.2867L41.9283 24.7533C39.5129 27.162 36.369 28.7179 32.9782 29.1827L32.911 29.192C32.2162 29.283 31.516 29.3275 30.8151 29.3253H30.8044C27.959 29.3285 25.1669 28.5595 22.7296 27.1013C22.633 27.044 22.5376 26.9853 22.4423 26.9253C19.8892 25.3257 17.8538 23.0299 16.5793 20.3123C15.3048 17.5946 14.8451 14.5701 15.2551 11.6C15.2864 11.3653 15.324 11.1329 15.3679 10.9027C15.5287 10.0194 15.7682 9.15195 16.0835 8.31067C16.5548 7.04562 17.1903 5.84706 17.974 4.74534C18.403 4.14068 18.8755 3.56763 19.3878 3.03067C20.5411 1.81513 21.8839 0.791823 23.3647 2.01511e-06H29.3261C29.7886 -0.000357762 30.2499 0.0474594 30.7023 0.142669C31.6352 0.336326 32.5158 0.725232 33.2853 1.28346C34.0549 1.84169 34.6958 2.55642 35.1653 3.38L42.7715 16.7133C43.3426 17.7161 43.6423 18.8487 43.6413 20.0007C43.6404 21.1527 43.3389 22.2848 42.7661 23.2867Z" fill="url(#paint2_linear_1117_65)"/>
<path d="M19.6302 25.5681C15.9138 25.6441 13.7574 24.6774 12.5021 23.5147C11.7566 22.8341 11.2152 21.9619 10.9379 20.9947C10.9005 20.6658 10.8825 20.335 10.8842 20.0041C10.8518 17.9122 11.4005 15.8519 12.4698 14.0494C13.2155 12.8224 14.2001 11.7554 15.366 10.9107C15.515 10.8014 15.6667 10.6974 15.8211 10.5974C15.8211 10.5974 15.7902 10.6507 15.7473 10.7147C15.7043 10.7787 15.6962 10.8027 15.66 10.8601L15.5418 11.0534V11.0707C15.4398 11.2481 15.3445 11.4281 15.2532 11.6107C14.7428 12.6364 14.3988 13.7357 14.2341 14.8681C13.885 17.2681 14.1602 21.6147 19.2852 25.2681C19.3947 25.3742 19.5099 25.4743 19.6302 25.5681Z" fill="url(#paint3_linear_1117_65)"/>
<path d="M31.4054 27.9645V27.9725C31.3749 28.3369 31.2576 28.6888 31.063 28.9992C30.9875 29.1194 30.9008 29.2324 30.8039 29.3365C30.6531 29.4998 30.4795 29.6408 30.2883 29.7552C29.8993 29.9925 29.4957 30.2053 29.0799 30.3925C27.2419 31.1803 25.2558 31.5698 23.2541 31.5352C21.0348 31.5672 18.8413 31.06 16.8644 30.0578C15.9554 29.5892 15.1151 28.9993 14.3671 28.3045C13.6307 27.6193 12.9931 26.8364 12.4726 25.9778L12.4283 25.9018C12.3773 25.8138 12.3276 25.7258 12.2779 25.6272C12.3276 25.6592 12.3759 25.6938 12.4283 25.7232C12.6967 25.8949 12.9756 26.0498 13.2634 26.1872C13.6686 26.3835 14.0867 26.5523 14.5148 26.6925C15.8451 27.1127 17.2302 27.3373 18.626 27.3592H19.249C20.4168 27.3475 21.5827 27.2633 22.7399 27.1072C23.3307 27.0272 23.9192 26.9285 24.5055 26.8112C24.6666 26.7832 24.8277 26.7525 24.9875 26.7178C25.064 26.7032 25.1419 26.6872 25.2117 26.6672L25.3339 26.6378C26.1241 26.4428 26.8726 26.1086 27.5439 25.6512C27.9779 25.3449 28.5031 25.1927 29.0348 25.2191C29.5666 25.2454 30.0739 25.4488 30.475 25.7965L30.6092 25.9072C30.8993 26.1604 31.1244 26.4786 31.2659 26.8355C31.4074 27.1923 31.4612 27.5775 31.4229 27.9592L31.4054 27.9645Z" fill="url(#paint4_linear_1117_65)"/>
<path d="M31.2553 13.1742C31.2192 13.2658 31.177 13.3549 31.1291 13.4409C30.996 13.6931 30.8176 13.919 30.6028 14.1075L30.4766 14.2195C30.0748 14.5664 29.5674 14.7693 29.0357 14.7957C28.504 14.822 27.9787 14.6703 27.5442 14.3649C26.4081 13.5817 25.0577 13.1629 23.6747 13.1649C21.7426 13.1649 20.1582 13.8022 18.966 15.0609C18.3156 15.7465 17.8315 16.5705 17.5508 17.4702C17.3001 18.2913 17.1779 19.1456 17.1883 20.0035C17.1883 20.1955 17.199 20.3795 17.2098 20.5622C16.1646 18.9482 15.7448 17.0124 16.0282 15.1142C16.4485 12.1942 18.347 9.74754 20.0924 8.91954C20.2388 8.84827 20.39 8.78723 20.5449 8.73687V8.74621C20.5959 8.72754 20.6456 8.71421 20.694 8.70088C21.5371 8.56237 22.3904 8.49325 23.245 8.49421C25.2461 8.46045 27.2316 8.84997 29.0694 9.63687C29.4845 9.82355 29.888 10.0346 30.2778 10.2689C30.5924 10.4575 30.8576 10.7173 31.0518 11.0271C31.2459 11.3369 31.3635 11.688 31.3949 12.0515C31.4391 12.4315 31.3913 12.8164 31.2553 13.1742Z" fill="url(#paint5_linear_1117_65)"/>
<path d="M31.8733 24.5548L31.7481 24.4434C31.0433 23.8288 30.1528 23.4663 29.2179 23.4134C28.283 23.3606 27.3571 23.6204 26.5871 24.1516C25.7499 24.7362 24.7515 25.0475 23.7295 25.0426C23.0881 25.0526 22.4504 24.9446 21.8482 24.7241C21.3686 24.4479 20.9151 24.159 20.4876 23.8576C20.4362 23.8086 20.3848 23.7618 20.3357 23.7106C19.4733 22.7973 19.0487 21.59 19.0487 19.9974C19.0487 18.4047 19.4688 17.2019 20.3312 16.2931C21.1936 15.3842 22.2906 14.9566 23.725 14.9566C24.747 14.9517 25.7454 15.263 26.5826 15.8476C27.3526 16.3788 28.2785 16.6386 29.2134 16.5858C30.1484 16.5329 31.0388 16.1704 31.7437 15.5558L31.8688 15.4421C32.365 14.9981 32.7505 14.4446 32.9944 13.8259C33.2384 13.2072 33.3342 12.5403 33.2741 11.8782C33.2188 11.2312 33.0103 10.6066 32.6658 10.0556C32.3213 9.50459 31.8506 9.0429 31.2924 8.70846C30.839 8.43514 30.3689 8.19039 29.8848 7.97561C27.8143 7.07854 25.5757 6.63202 23.3184 6.66585C22.3314 6.66309 21.346 6.74656 20.3736 6.91533H20.3535C18.8668 7.16926 17.4282 7.6501 16.0884 8.34092C13.9786 9.42232 12.2112 11.0663 10.9832 13.0899C9.77085 15.1905 9.13281 17.5716 9.13281 19.9951C9.13281 22.4186 9.77085 24.7997 10.9832 26.9003C12.2102 28.9236 13.9779 30.5665 16.0884 31.6449C18.3248 32.7851 20.8068 33.3632 23.3184 33.3289C25.5765 33.3633 27.8162 32.9191 29.8893 32.0258C30.3729 31.8094 30.843 31.5639 31.2968 31.2907C31.8551 30.9569 32.3259 30.4957 32.6704 29.945C33.015 29.3943 33.2234 28.7699 33.2786 28.1232C33.3388 27.4604 33.2431 26.7928 32.9992 26.1733C32.7552 25.5539 32.3697 24.9997 31.8733 24.5548ZM20.6127 8.73964C20.6641 8.72182 20.7133 8.70846 20.7624 8.69509C21.6073 8.55631 22.4621 8.48702 23.3184 8.48793C25.3192 8.45325 27.3046 8.84275 29.143 9.63064C29.5604 9.81734 29.9662 10.0286 30.3584 10.2632C30.6726 10.4512 30.9376 10.7107 31.1318 11.0204C31.326 11.3301 31.4438 11.6813 31.4756 12.0452C31.5142 12.4265 31.4612 12.8114 31.321 13.1682C31.1807 13.5249 30.9572 13.8432 30.669 14.0967L30.5417 14.2081C30.1396 14.5555 29.6324 14.7585 29.1011 14.7848C28.5697 14.811 28.0449 14.659 27.6103 14.3529C26.4728 13.5702 25.1228 13.1521 23.7406 13.1545C21.808 13.1545 20.224 13.7916 19.0309 15.0501C18.3814 15.7355 17.8976 16.5599 17.6166 17.4603C17.3637 18.2821 17.2394 19.1378 17.248 19.9974C17.248 20.1889 17.2591 20.3738 17.2703 20.5565C16.2258 18.9436 15.8057 17.007 16.0884 15.108C16.5084 12.1878 18.4075 9.74201 20.1525 8.91338C20.3014 8.84183 20.4552 8.7808 20.6127 8.73073V8.73964ZM10.9496 20.0063C10.9166 17.9108 11.4656 15.847 12.5359 14.0433C13.3788 12.6561 14.5243 11.476 15.8873 10.5907C15.8873 10.5907 15.856 10.6441 15.8136 10.7087C15.7711 10.7733 15.7622 10.7956 15.7264 10.8535L15.608 11.0473V11.0629C14.9361 12.236 14.4905 13.5242 14.2943 14.8608C13.9458 17.2576 14.2206 21.6078 19.3459 25.2631C19.4576 25.3678 19.5693 25.4658 19.6967 25.5616C15.9789 25.6374 13.8229 24.6706 12.5672 23.5079C11.823 22.8279 11.2817 21.956 11.0033 20.9886C10.9653 20.6567 10.9496 20.3315 10.9496 19.9974V20.0063ZM31.4711 27.9673C31.4404 28.3315 31.323 28.6831 31.1287 28.993C30.9345 29.3029 30.6689 29.5622 30.354 29.7493C29.9628 29.9871 29.5568 30.1999 29.1386 30.3864C27.3001 31.1742 25.3147 31.5637 23.3139 31.5291C21.0952 31.5618 18.9019 31.0549 16.924 30.0522C16.0153 29.5838 15.175 28.994 14.4261 28.2992C13.6898 27.6142 13.0522 26.8309 12.5315 25.9715C12.4645 25.8579 12.4019 25.7487 12.3371 25.6218C12.3863 25.653 12.4354 25.6886 12.4868 25.7175C12.7555 25.889 13.0346 26.0437 13.3224 26.1809C14.8037 26.9026 16.5933 27.2946 18.6846 27.3592C18.7851 27.3592 18.8879 27.3592 18.9929 27.3592H19.3079C21.0721 27.3407 22.8307 27.1572 24.5606 26.8112C24.7215 26.783 24.8823 26.7518 25.0432 26.7177C25.1192 26.7021 25.1974 26.6865 25.2666 26.6665L25.3895 26.6375C26.179 26.442 26.9272 26.1079 27.5992 25.6507C28.0337 25.3447 28.5585 25.1926 29.0899 25.2189C29.6212 25.2451 30.1285 25.4481 30.5305 25.7955L30.6578 25.9069C30.9474 26.1596 31.1723 26.4776 31.3137 26.8344C31.4552 27.1913 31.5091 27.5766 31.4711 27.9584V27.9673Z" fill="white"/>
</g>
<defs>
<linearGradient id="paint0_linear_1117_65" x1="6.06424" y1="16.05" x2="22.4995" y2="43.7685" gradientUnits="userSpaceOnUse">
<stop stop-color="#EAC85B"/>
<stop offset="1" stop-color="#C59F25"/>
</linearGradient>
<linearGradient id="paint1_linear_1117_65" x1="20.4115" y1="5.10073" x2="1.66999" y2="17.1546" gradientUnits="userSpaceOnUse">
<stop stop-color="#EAC85B"/>
<stop offset="1" stop-color="#C59F25"/>
</linearGradient>
<linearGradient id="paint2_linear_1117_65" x1="38.1897" y1="26.1834" x2="18.6531" y2="4.77388" gradientUnits="userSpaceOnUse">
<stop stop-color="#EAC85B"/>
<stop offset="1" stop-color="#C59F25"/>
</linearGradient>
<linearGradient id="paint3_linear_1117_65" x1="32.1839" y1="21.4581" x2="12.4094" y2="16.8998" gradientUnits="userSpaceOnUse">
<stop stop-color="#EAC85B"/>
<stop offset="1" stop-color="#C59F25"/>
</linearGradient>
<linearGradient id="paint4_linear_1117_65" x1="32.1839" y1="21.4581" x2="12.4094" y2="16.8998" gradientUnits="userSpaceOnUse">
<stop stop-color="#EAC85B"/>
<stop offset="1" stop-color="#C59F25"/>
</linearGradient>
<linearGradient id="paint5_linear_1117_65" x1="32.1839" y1="21.4581" x2="12.4094" y2="16.8998" gradientUnits="userSpaceOnUse">
<stop stop-color="#EAC85B"/>
<stop offset="1" stop-color="#C59F25"/>
</linearGradient>
<clipPath id="clip0_1117_65">
<rect width="43.6364" height="40" fill="white"/>
</clipPath>
</defs>
</svg>
