<svg width="225" height="50" viewBox="0 0 225 50" fill="none" xmlns="http://www.w3.org/2000/svg">
<path d="M72.2341 3.43764C73.729 3.43764 75.0514 3.6532 76.2014 4.08432C77.3743 4.51544 78.4783 5.16213 79.5132 6.02438L76.8223 9.18972C76.1094 8.64515 75.4079 8.23672 74.718 7.96443C74.028 7.69214 73.292 7.55599 72.5101 7.55599C70.9002 7.55599 69.6237 8.22537 68.6808 9.56412C67.7608 10.9029 67.3009 12.9677 67.3009 15.7587C67.3009 18.5042 67.7608 20.5464 68.6808 21.8852C69.6237 23.2012 70.9232 23.8592 72.5791 23.8592C73.453 23.8592 74.2465 23.7004 74.9594 23.3827C75.6724 23.0424 76.4429 22.5659 77.2708 21.9532L79.7892 25.1526C78.8922 26.0375 77.7998 26.7637 76.5119 27.3309C75.2469 27.8982 73.844 28.1818 72.3031 28.1818C70.0952 28.1818 68.1748 27.7053 66.5419 26.7523C64.909 25.7993 63.6326 24.3925 62.7126 22.5318C61.8157 20.6485 61.3672 18.3908 61.3672 15.7587C61.3672 13.1946 61.8272 10.9823 62.7471 9.12165C63.6901 7.26102 64.978 5.85419 66.6109 4.90119C68.2668 3.92549 70.1412 3.43764 72.2341 3.43764Z" fill="white"/>
<path d="M91.742 9.01954C92.4089 9.01954 93.0184 9.09896 93.5704 9.2578L92.7079 14.4653C92.018 14.3065 91.466 14.2271 91.052 14.2271C89.9711 14.2271 89.1431 14.6014 88.5681 15.3502C88.0162 16.0763 87.5792 17.1768 87.2572 18.6517V27.6032H81.8065V9.53008H86.5673L87.0157 13.0358C87.4297 11.7878 88.0507 10.8121 88.8786 10.1087C89.7296 9.3826 90.684 9.01954 91.742 9.01954Z" fill="white"/>
<path d="M110.581 18.2093C110.581 18.9581 110.547 19.6047 110.478 20.1493H99.1278C99.3118 21.6696 99.7488 22.7361 100.439 23.3487C101.129 23.9614 102.083 24.2677 103.302 24.2677C104.038 24.2677 104.751 24.1429 105.441 23.8933C106.131 23.621 106.878 23.2126 107.683 22.668L109.926 25.6632C107.787 27.3423 105.406 28.1818 102.785 28.1818C99.8178 28.1818 97.5409 27.3196 95.954 25.5951C94.3671 23.8706 93.5736 21.5561 93.5736 18.6517C93.5736 16.8138 93.9071 15.1687 94.5741 13.7165C95.241 12.2416 96.2185 11.0844 97.5064 10.2448C98.7943 9.38259 100.335 8.95147 102.129 8.95147C104.774 8.95147 106.844 9.76834 108.339 11.4021C109.834 13.0358 110.581 15.3049 110.581 18.2093ZM105.234 16.6776C105.188 13.9094 104.199 12.5253 102.267 12.5253C101.324 12.5253 100.588 12.8656 100.059 13.5463C99.5533 14.2271 99.2428 15.3502 99.1278 16.9159H105.234V16.6776Z" fill="white"/>
<path d="M127.864 22.3617C127.864 23.0424 127.956 23.5416 128.14 23.8592C128.347 24.1769 128.669 24.4152 129.106 24.574L127.968 28.0797C126.841 27.9889 125.921 27.7507 125.208 27.365C124.495 26.9565 123.943 26.3212 123.552 25.4589C122.356 27.2742 120.516 28.1818 118.033 28.1818C116.216 28.1818 114.767 27.6599 113.686 26.6162C112.605 25.5724 112.064 24.2109 112.064 22.5318C112.064 20.5578 112.8 19.0488 114.272 18.0051C115.744 16.9613 117.872 16.4394 120.654 16.4394H122.517V15.6566C122.517 14.5901 122.287 13.864 121.827 13.4783C121.367 13.0698 120.562 12.8656 119.412 12.8656C118.814 12.8656 118.09 12.9564 117.239 13.1379C116.388 13.2967 115.514 13.5236 114.617 13.8186L113.375 10.2789C114.525 9.84775 115.698 9.51874 116.894 9.29183C118.113 9.06492 119.24 8.95147 120.275 8.95147C122.897 8.95147 124.817 9.4847 126.036 10.5512C127.255 11.6176 127.864 13.2173 127.864 15.3502V22.3617ZM119.619 24.3357C120.861 24.3357 121.827 23.7571 122.517 22.5999V19.4005H121.172C119.93 19.4005 118.998 19.6161 118.377 20.0472C117.78 20.4783 117.481 21.1477 117.481 22.0553C117.481 22.7814 117.665 23.3487 118.033 23.7571C118.423 24.1429 118.952 24.3357 119.619 24.3357Z" fill="white"/>
<path d="M143.694 26.7523C143.027 27.2061 142.245 27.5578 141.348 27.8074C140.474 28.057 139.6 28.1818 138.726 28.1818C134.724 28.1591 132.724 25.9808 132.724 21.6469V13.274H130.136V9.53008H132.724V5.61594L138.174 5.00329V9.53008H142.383L141.797 13.274H138.174V21.5788C138.174 22.4184 138.312 23.0197 138.588 23.3827C138.864 23.7458 139.301 23.9273 139.899 23.9273C140.52 23.9273 141.176 23.7344 141.866 23.3487L143.694 26.7523Z" fill="white"/>
<path d="M150.964 9.53008V27.6032H145.513V9.53008H150.964ZM148.204 0C149.147 0 149.918 0.294979 150.516 0.884937C151.137 1.4522 151.447 2.1783 151.447 3.06324C151.447 3.94818 151.137 4.68562 150.516 5.27558C149.918 5.84285 149.147 6.12648 148.204 6.12648C147.261 6.12648 146.491 5.84285 145.893 5.27558C145.295 4.68562 144.996 3.94818 144.996 3.06324C144.996 2.1783 145.295 1.4522 145.893 0.884937C146.491 0.294979 147.261 0 148.204 0Z" fill="white"/>
<path d="M171.015 9.53008L165.254 27.6032H158.803L152.904 9.53008H158.838L162.08 23.5189L165.461 9.53008H171.015Z" fill="white"/>
<path d="M188.64 18.2093C188.64 18.9581 188.605 19.6047 188.536 20.1493H177.187C177.371 21.6696 177.808 22.7361 178.497 23.3487C179.187 23.9614 180.142 24.2677 181.361 24.2677C182.097 24.2677 182.81 24.1429 183.5 23.8933C184.19 23.621 184.937 23.2126 185.742 22.668L187.984 25.6632C185.846 27.3423 183.465 28.1818 180.843 28.1818C177.877 28.1818 175.6 27.3196 174.013 25.5951C172.426 23.8706 171.632 21.5561 171.632 18.6517C171.632 16.8138 171.966 15.1687 172.633 13.7165C173.3 12.2416 174.277 11.0844 175.565 10.2448C176.853 9.38259 178.394 8.95147 180.188 8.95147C182.833 8.95147 184.903 9.76834 186.398 11.4021C187.892 13.0358 188.64 15.3049 188.64 18.2093ZM183.293 16.6776C183.247 13.9094 182.258 12.5253 180.326 12.5253C179.383 12.5253 178.647 12.8656 178.118 13.5463C177.612 14.2271 177.302 15.3502 177.187 16.9159H183.293V16.6776Z" fill="white"/>
<path d="M67.035 36.4242C67.8147 36.4242 68.5044 36.5424 69.1042 36.7789C69.716 37.0153 70.2918 37.3699 70.8315 37.8428L69.4281 39.5786C69.0562 39.28 68.6904 39.056 68.3305 38.9067C67.9706 38.7573 67.5868 38.6827 67.179 38.6827C66.3393 38.6827 65.6735 39.0497 65.1817 39.7839C64.7019 40.5181 64.462 41.6504 64.462 43.1809C64.462 44.6866 64.7019 45.8064 65.1817 46.5406C65.6735 47.2623 66.3513 47.6232 67.2149 47.6232C67.6708 47.6232 68.0846 47.5361 68.4565 47.3619C68.8283 47.1752 69.2302 46.9139 69.662 46.5779L70.9755 48.3324C70.5077 48.8177 69.9379 49.2159 69.2661 49.527C68.6064 49.8381 67.8747 49.9936 67.071 49.9936C65.9194 49.9936 64.9178 49.7323 64.0661 49.2097C63.2145 48.6871 62.5487 47.9156 62.0689 46.8952C61.6011 45.8624 61.3672 44.6243 61.3672 43.1809C61.3672 41.7748 61.6071 40.5616 62.0869 39.5413C62.5787 38.5209 63.2505 37.7494 64.1021 37.2268C64.9658 36.6917 65.9434 36.4242 67.035 36.4242Z" fill="white"/>
<path d="M79.6559 46.8019C79.6559 47.1752 79.7039 47.449 79.7998 47.6232C79.9078 47.7974 80.0757 47.928 80.3036 48.0151L79.7099 49.9376C79.1221 49.8878 78.6423 49.7572 78.2704 49.5457C77.8986 49.3217 77.6107 48.9733 77.4068 48.5004C76.783 49.4959 75.8234 49.9936 74.5279 49.9936C73.5802 49.9936 72.8245 49.7074 72.2607 49.135C71.6969 48.5626 71.4151 47.816 71.4151 46.8952C71.4151 45.8127 71.7989 44.9852 72.5666 44.4128C73.3343 43.8404 74.4439 43.5542 75.8953 43.5542H76.867V43.1249C76.867 42.5401 76.747 42.1419 76.5071 41.9304C76.2672 41.7064 75.8474 41.5944 75.2476 41.5944C74.9357 41.5944 74.5578 41.6442 74.114 41.7437C73.6702 41.8308 73.2144 41.9553 72.7465 42.117L72.0988 40.1759C72.6986 39.9394 73.3103 39.759 73.9341 39.6346C74.5698 39.5102 75.1576 39.4479 75.6974 39.4479C77.0649 39.4479 78.0665 39.7404 78.7023 40.3252C79.338 40.91 79.6559 41.7873 79.6559 42.9569V46.8019ZM75.3555 47.8845C76.0033 47.8845 76.5071 47.5672 76.867 46.9326V45.1781H76.1652C75.5175 45.1781 75.0317 45.2963 74.7078 45.5327C74.3959 45.7691 74.24 46.1362 74.24 46.6339C74.24 47.0321 74.3359 47.3432 74.5279 47.5672C74.7318 47.7787 75.0077 47.8845 75.3555 47.8845Z" fill="white"/>
<path d="M87.3363 39.4479C88.4758 39.4479 89.3515 39.9146 89.9632 40.8478C90.575 41.7686 90.8809 43.0627 90.8809 44.7301C90.8809 45.7505 90.725 46.6588 90.4131 47.4552C90.1132 48.2515 89.6754 48.8737 89.0996 49.3217C88.5358 49.7696 87.8641 49.9936 87.0844 49.9936C86.5686 49.9936 86.0947 49.8816 85.6629 49.6576C85.2431 49.4337 84.8832 49.1226 84.5833 48.7244L84.4394 49.6763H81.9203V35.8269L84.7632 35.5096V40.7731C85.0511 40.3625 85.417 40.039 85.8608 39.8026C86.3167 39.5661 86.8085 39.4479 87.3363 39.4479ZM86.2567 47.8471C87.3722 47.8471 87.93 46.8081 87.93 44.7301C87.93 43.548 87.7981 42.733 87.5342 42.285C87.2703 41.837 86.8864 41.6131 86.3826 41.6131C85.7469 41.6131 85.2071 41.9988 84.7632 42.7703V46.8952C84.9432 47.1939 85.1591 47.4303 85.411 47.6045C85.6749 47.7663 85.9568 47.8471 86.2567 47.8471Z" fill="white"/>
<path d="M95.4994 39.7652V49.6763H92.6564V39.7652H95.4994ZM94.0599 34.5391C94.5517 34.5391 94.9536 34.7008 95.2654 35.0244C95.5893 35.3354 95.7513 35.7336 95.7513 36.2189C95.7513 36.7042 95.5893 37.1086 95.2654 37.4321C94.9536 37.7432 94.5517 37.8987 94.0599 37.8987C93.5681 37.8987 93.1663 37.7432 92.8544 37.4321C92.5425 37.1086 92.3866 36.7042 92.3866 36.2189C92.3866 35.7336 92.5425 35.3354 92.8544 35.0244C93.1663 34.7008 93.5681 34.5391 94.0599 34.5391Z" fill="white"/>
<path d="M103.33 39.4479C104.158 39.4479 104.806 39.7092 105.274 40.2319C105.741 40.7545 105.975 41.4886 105.975 42.4343V49.6763H103.132V42.9383C103.132 42.4405 103.055 42.0984 102.899 41.9117C102.755 41.7126 102.533 41.6131 102.233 41.6131C101.657 41.6131 101.105 42.0424 100.577 42.9009V49.6763H97.7346V39.7652H100.218L100.416 40.9411C100.823 40.4434 101.261 40.0701 101.729 39.8212C102.209 39.5724 102.743 39.4479 103.33 39.4479Z" fill="white"/>
<path d="M116.45 44.5248C116.45 44.9354 116.432 45.2901 116.396 45.5887H110.476C110.572 46.4224 110.8 47.0072 111.16 47.3432C111.52 47.6792 112.018 47.8471 112.653 47.8471C113.037 47.8471 113.409 47.7787 113.769 47.6418C114.129 47.4925 114.519 47.2685 114.939 46.9699L116.108 48.6124C114.993 49.5332 113.751 49.9936 112.384 49.9936C110.836 49.9936 109.649 49.5208 108.821 48.5751C107.993 47.6294 107.579 46.3602 107.579 44.7674C107.579 43.7595 107.753 42.8574 108.101 42.061C108.449 41.2522 108.959 40.6176 109.631 40.1572C110.302 39.6844 111.106 39.4479 112.042 39.4479C113.421 39.4479 114.501 39.8959 115.28 40.7918C116.06 41.6877 116.45 42.9321 116.45 44.5248ZM113.661 43.6849C113.637 42.1668 113.121 41.4077 112.114 41.4077C111.622 41.4077 111.238 41.5944 110.962 41.9677C110.698 42.341 110.536 42.9569 110.476 43.8155H113.661V43.6849Z" fill="white"/>
<path d="M124.039 49.2097C123.691 49.4585 123.283 49.6514 122.815 49.7883C122.359 49.9252 121.904 49.9936 121.448 49.9936C119.361 49.9812 118.317 48.7866 118.317 46.4099V41.8184H116.967V39.7652H118.317V37.6188L121.16 37.2828V39.7652H123.355L123.049 41.8184H121.16V46.3726C121.16 46.833 121.232 47.1628 121.376 47.3619C121.52 47.5609 121.748 47.6605 122.06 47.6605C122.383 47.6605 122.725 47.5547 123.085 47.3432L124.039 49.2097Z" fill="white"/>
<path d="M128.352 39.4479C129.036 39.4479 129.678 39.5537 130.278 39.7652C130.877 39.9768 131.405 40.2754 131.861 40.6612L130.818 42.3223C130.038 41.8122 129.252 41.5571 128.46 41.5571C128.089 41.5571 127.801 41.6255 127.597 41.7624C127.405 41.8868 127.309 42.0672 127.309 42.3037C127.309 42.4903 127.351 42.6459 127.435 42.7703C127.531 42.8823 127.717 43.0005 127.993 43.1249C128.268 43.2494 128.694 43.3987 129.27 43.5729C130.266 43.8715 131.003 44.2635 131.483 44.7488C131.975 45.2216 132.221 45.8811 132.221 46.7272C132.221 47.3992 132.035 47.984 131.663 48.4818C131.291 48.967 130.782 49.3403 130.134 49.6016C129.486 49.863 128.766 49.9936 127.975 49.9936C127.171 49.9936 126.421 49.863 125.725 49.6016C125.042 49.3403 124.46 48.9795 123.98 48.5191L125.366 46.9139C126.169 47.5609 127.015 47.8845 127.903 47.8845C128.334 47.8845 128.67 47.8036 128.91 47.6418C129.162 47.4801 129.288 47.2499 129.288 46.9512C129.288 46.7148 129.24 46.5282 129.144 46.3913C129.048 46.2544 128.862 46.13 128.586 46.018C128.31 45.8935 127.873 45.7442 127.273 45.57C126.325 45.2838 125.618 44.8856 125.15 44.3755C124.682 43.8653 124.448 43.2307 124.448 42.4716C124.448 41.8993 124.604 41.3891 124.916 40.9411C125.24 40.4807 125.695 40.1199 126.283 39.8586C126.883 39.5848 127.573 39.4479 128.352 39.4479Z" fill="white"/>
<path d="M151.9 36.7415L149.813 49.6763H145.98L144.433 39.8026L142.796 49.6763H139.053L137.002 36.7415H139.953L141.194 47.3619L142.922 36.7415H146.016L147.636 47.3619L149.093 36.7415H151.9Z" fill="white"/>
<path d="M157.152 39.4479C158.616 39.4479 159.761 39.9146 160.589 40.8478C161.417 41.7686 161.831 43.0627 161.831 44.7301C161.831 45.7878 161.639 46.7148 161.255 47.5112C160.883 48.2951 160.343 48.9048 159.636 49.3403C158.94 49.7759 158.112 49.9936 157.152 49.9936C155.701 49.9936 154.555 49.5332 153.716 48.6124C152.888 47.6792 152.474 46.3788 152.474 44.7114C152.474 43.6538 152.66 42.733 153.032 41.949C153.416 41.1527 153.956 40.5367 154.651 40.1012C155.359 39.6657 156.193 39.4479 157.152 39.4479ZM157.152 41.6131C156.577 41.6131 156.145 41.8682 155.857 42.3783C155.569 42.8761 155.425 43.6538 155.425 44.7114C155.425 45.794 155.563 46.5842 155.839 47.0819C156.127 47.5796 156.565 47.8285 157.152 47.8285C157.728 47.8285 158.16 47.5796 158.448 47.0819C158.736 46.5717 158.88 45.7878 158.88 44.7301C158.88 43.6475 158.736 42.8574 158.448 42.3597C158.172 41.8619 157.74 41.6131 157.152 41.6131Z" fill="white"/>
<path d="M167.66 39.4479C169.124 39.4479 170.269 39.9146 171.097 40.8478C171.925 41.7686 172.338 43.0627 172.338 44.7301C172.338 45.7878 172.146 46.7148 171.763 47.5112C171.391 48.2951 170.851 48.9048 170.143 49.3403C169.447 49.7759 168.62 49.9936 167.66 49.9936C166.209 49.9936 165.063 49.5332 164.223 48.6124C163.396 47.6792 162.982 46.3788 162.982 44.7114C162.982 43.6538 163.168 42.733 163.54 41.949C163.924 41.1527 164.463 40.5367 165.159 40.1012C165.867 39.6657 166.701 39.4479 167.66 39.4479ZM167.66 41.6131C167.084 41.6131 166.653 41.8682 166.365 42.3783C166.077 42.8761 165.933 43.6538 165.933 44.7114C165.933 45.794 166.071 46.5842 166.347 47.0819C166.635 47.5796 167.072 47.8285 167.66 47.8285C168.236 47.8285 168.668 47.5796 168.956 47.0819C169.244 46.5717 169.388 45.7878 169.388 44.7301C169.388 43.6475 169.244 42.8574 168.956 42.3597C168.68 41.8619 168.248 41.6131 167.66 41.6131Z" fill="white"/>
<path d="M182.594 35.8269V49.6763H180.075L179.931 48.5191C179.259 49.5021 178.354 49.9936 177.214 49.9936C176.027 49.9936 175.121 49.5208 174.497 48.5751C173.885 47.6294 173.58 46.3353 173.58 44.6928C173.58 43.6849 173.742 42.7827 174.065 41.9864C174.389 41.19 174.845 40.5678 175.433 40.1199C176.033 39.6719 176.716 39.4479 177.484 39.4479C178.396 39.4479 179.151 39.759 179.751 40.3812V35.5096L182.594 35.8269ZM178.096 47.8285C178.756 47.8285 179.307 47.4552 179.751 46.7086V42.4343C179.523 42.1481 179.289 41.9366 179.049 41.7997C178.822 41.6628 178.558 41.5944 178.258 41.5944C177.73 41.5944 177.31 41.8495 176.998 42.3597C176.686 42.8698 176.53 43.6538 176.53 44.7114C176.53 45.8687 176.662 46.6775 176.926 47.1379C177.202 47.5983 177.592 47.8285 178.096 47.8285Z" fill="white"/>
<path d="M197.09 39.7652L195.11 49.6763H191.71L190.432 42.397L189.173 49.6763H185.808L183.775 39.7652H186.654L187.643 47.4738L189.137 39.7652H191.908L193.221 47.4738L194.373 39.7652H197.09Z" fill="white"/>
<path d="M202.434 39.4479C203.897 39.4479 205.043 39.9146 205.871 40.8478C206.698 41.7686 207.112 43.0627 207.112 44.7301C207.112 45.7878 206.92 46.7148 206.536 47.5112C206.164 48.2951 205.625 48.9048 204.917 49.3403C204.221 49.7759 203.394 49.9936 202.434 49.9936C200.982 49.9936 199.837 49.5332 198.997 48.6124C198.17 47.6792 197.756 46.3788 197.756 44.7114C197.756 43.6538 197.942 42.733 198.313 41.949C198.697 41.1527 199.237 40.5367 199.933 40.1012C200.641 39.6657 201.474 39.4479 202.434 39.4479ZM202.434 41.6131C201.858 41.6131 201.426 41.8682 201.138 42.3783C200.851 42.8761 200.707 43.6538 200.707 44.7114C200.707 45.794 200.845 46.5842 201.12 47.0819C201.408 47.5796 201.846 47.8285 202.434 47.8285C203.01 47.8285 203.441 47.5796 203.729 47.0819C204.017 46.5717 204.161 45.7878 204.161 44.7301C204.161 43.6475 204.017 42.8574 203.729 42.3597C203.453 41.8619 203.022 41.6131 202.434 41.6131Z" fill="white"/>
<path d="M213.985 39.4853C214.333 39.4853 214.651 39.5288 214.939 39.6159L214.489 42.4716C214.129 42.3845 213.841 42.341 213.625 42.341C213.062 42.341 212.63 42.5463 212.33 42.9569C212.042 43.3551 211.814 43.9586 211.646 44.7674V49.6763H208.803V39.7652H211.286L211.52 41.6877C211.736 41.0033 212.06 40.4683 212.492 40.0825C212.936 39.6844 213.433 39.4853 213.985 39.4853Z" fill="white"/>
<path d="M218.868 35.5096V49.6763H216.025V35.8269L218.868 35.5096ZM224.77 39.7652L221.873 44.1142L225.004 49.6763H221.801L218.958 44.2635L221.873 39.7652H224.77Z" fill="white"/>
<g clip-path="url(#clip0_1294_2478)">
<path d="M52.407 30.945L43.9466 45.7783C43.2145 47.06 42.1532 48.126 40.871 48.8676C39.5888 49.6093 38.1314 50 36.6476 50H17.8991C16.4146 50 14.9567 49.6089 13.6741 48.8666C12.3915 48.1244 11.3302 47.0576 10.5984 45.775L1.09066 29.1083C0.375767 27.8555 0 26.44 0 25C0 23.56 0.375767 22.1445 1.09066 20.8917L4.44731 15C4.44731 15.0283 4.44731 15.055 4.44731 15.0833C4.44455 17.9305 5.08465 20.742 6.32051 23.3111C7.55637 25.8802 9.35654 28.1414 11.5886 29.9283C11.7866 30.095 11.9897 30.245 12.1944 30.395C13.2323 31.1651 14.3469 31.8275 15.5209 32.3717C16.363 32.7658 17.2337 33.0968 18.1256 33.3617C21.3503 34.3205 24.7713 34.4257 28.0495 33.6667C28.1687 33.7417 28.2879 33.815 28.4087 33.8867C31.4553 35.7093 34.9454 36.6706 38.5021 36.6667H38.5156C39.3916 36.6694 40.2669 36.6137 41.1354 36.5L41.2193 36.4883C45.4588 35.9055 49.3888 33.9582 52.407 30.945Z" fill="url(#paint0_linear_1294_2478)"/>
<path d="M28.052 33.6667C24.7738 34.4257 21.3528 34.3205 18.1281 33.3617C17.235 33.0969 16.3632 32.766 15.52 32.3717C14.346 31.8275 13.2314 31.1651 12.1936 30.395C11.9888 30.245 11.7857 30.0883 11.5877 29.9283C9.35688 28.1407 7.55799 25.8792 6.32331 23.3102C5.08863 20.7412 4.44957 17.9299 4.45314 15.0833C4.45314 15.055 4.45314 15.0283 4.45314 15L8.37538 8.12667L10.6008 4.225C11.3327 2.94244 12.394 1.87562 13.6766 1.13338C14.9592 0.391135 16.4171 4.32078e-05 17.9015 0H29.205C27.3562 0.991386 25.68 2.27163 24.2406 3.79167C23.6002 4.46287 23.0096 5.17918 22.4733 5.935C21.4937 7.31215 20.6993 8.81036 20.1102 10.3917C19.7161 11.4433 19.4168 12.5275 19.2157 13.6317C19.1608 13.9194 19.1138 14.21 19.0747 14.5033C18.5601 18.2175 19.1338 22.0003 20.727 25.3993C22.3202 28.7983 24.8656 31.6697 28.0587 33.67L28.052 33.6667Z" fill="url(#paint1_linear_1294_2478)"/>
<path d="M53.4538 29.1083L52.4065 30.9417C49.3873 33.9525 45.4574 35.8973 41.2188 36.4783L41.1349 36.49C40.2663 36.6037 39.3911 36.6594 38.515 36.6567H38.5016C34.9449 36.6606 31.4547 35.6993 28.4082 33.8767C28.2873 33.805 28.1682 33.7317 28.049 33.6567C24.8576 31.6571 22.3133 28.7873 20.7202 25.3903C19.127 21.9933 18.5524 18.2126 19.0649 14.5C19.1041 14.2067 19.1511 13.9161 19.2059 13.6283C19.407 12.5242 19.7064 11.4399 20.1005 10.3883C20.6896 8.80702 21.484 7.30882 22.4635 5.93167C22.9998 5.17585 23.5905 4.45954 24.2308 3.78834C25.6725 2.26891 27.351 0.989779 29.202 2.51889e-06H36.6537C37.2319 -0.000447203 37.8085 0.0593242 38.374 0.178336C39.5401 0.420407 40.6408 0.906541 41.6028 1.60433C42.5647 2.30212 43.3659 3.19553 43.9528 4.225L53.4605 20.8917C54.1743 22.1451 54.5489 23.5609 54.5478 25.0009C54.5466 26.4409 54.1697 27.856 53.4538 29.1083Z" fill="url(#paint2_linear_1294_2478)"/>
<path d="M24.5358 31.9542C19.8902 32.0492 17.1949 30.8409 15.6256 29.3876C14.6937 28.5368 14.017 27.4466 13.6704 26.2376C13.6236 25.8264 13.6012 25.4129 13.6033 24.9992C13.5628 22.3844 14.2486 19.8091 15.5853 17.5559C16.5175 16.0221 17.7482 14.6884 19.2055 13.6326C19.3918 13.4959 19.5814 13.3659 19.7744 13.2409C19.7744 13.2409 19.7358 13.3076 19.6821 13.3876C19.6284 13.4676 19.6184 13.4976 19.573 13.5692L19.4253 13.8109V13.8326C19.2978 14.0542 19.1786 14.2792 19.0645 14.5076C18.4265 15.7896 17.9966 17.1638 17.7907 18.5792C17.3543 21.5792 17.6984 27.0126 24.1045 31.5792C24.2414 31.7118 24.3854 31.837 24.5358 31.9542Z" fill="url(#paint3_linear_1294_2478)"/>
<path d="M39.2548 34.9498V34.9598C39.2167 35.4152 39.07 35.8551 38.8268 36.2431C38.7325 36.3935 38.624 36.5346 38.5029 36.6648C38.3144 36.8689 38.0974 37.0452 37.8585 37.1881C37.3722 37.4847 36.8677 37.7508 36.348 37.9848C34.0504 38.9695 31.5678 39.4564 29.0657 39.4131C26.2916 39.4531 23.5497 38.8191 21.0786 37.5664C19.9423 36.9807 18.892 36.2433 17.9569 35.3748C17.0364 34.5183 16.2395 33.5396 15.5888 32.4664L15.5334 32.3714C15.4696 32.2614 15.4075 32.1514 15.3454 32.0281C15.4075 32.0681 15.468 32.1114 15.5334 32.1481C15.869 32.3627 16.2176 32.5564 16.5773 32.7281C17.0838 32.9735 17.6064 33.1845 18.1415 33.3598C19.8044 33.885 21.5358 34.1657 23.2806 34.1931H24.0593C25.519 34.1785 26.9764 34.0733 28.4229 33.8781C29.1614 33.7781 29.8971 33.6548 30.6299 33.5081C30.8313 33.4731 31.0327 33.4348 31.2324 33.3914C31.3281 33.3731 31.4254 33.3531 31.5127 33.3281L31.6654 33.2914C32.6531 33.0476 33.5888 32.6299 34.428 32.0581C34.9704 31.6753 35.6269 31.485 36.2916 31.518C36.9562 31.5509 37.5904 31.8052 38.0917 32.2398L38.2596 32.3781C38.6221 32.6946 38.9035 33.0924 39.0804 33.5385C39.2573 33.9846 39.3245 34.4661 39.2766 34.9431L39.2548 34.9498Z" fill="url(#paint4_linear_1294_2478)"/>
<path d="M39.0672 16.4619C39.0221 16.5764 38.9693 16.6877 38.9094 16.7952C38.743 17.1105 38.5201 17.3929 38.2515 17.6286L38.0937 17.7686C37.5915 18.2022 36.9573 18.4558 36.2926 18.4887C35.628 18.5217 34.9715 18.332 34.4283 17.9502C33.0082 16.9712 31.3201 16.4477 29.5914 16.4502C27.1763 16.4502 25.1958 17.2469 23.7055 18.8202C22.8925 19.6772 22.2875 20.7073 21.9365 21.8319C21.6232 22.8582 21.4704 23.9262 21.4834 24.9986C21.4834 25.2386 21.4968 25.4686 21.5102 25.6969C20.2038 23.6794 19.679 21.2596 20.0333 18.8869C20.5586 15.2369 22.9318 12.1786 25.1136 11.1436C25.2965 11.0545 25.4855 10.9782 25.6792 10.9152V10.9269C25.743 10.9036 25.8051 10.8869 25.8655 10.8702C26.9195 10.6971 27.986 10.6107 29.0543 10.6119C31.5557 10.5697 34.0375 11.0566 36.3349 12.0402C36.8537 12.2736 37.3581 12.5374 37.8453 12.8302C38.2386 13.066 38.5701 13.3907 38.8128 13.778C39.0555 14.1653 39.2024 14.6041 39.2417 15.0586C39.297 15.5335 39.2371 16.0146 39.0672 16.4619Z" fill="url(#paint5_linear_1294_2478)"/>
<path d="M39.8396 30.6994L39.6832 30.5601C38.8022 29.7918 37.6891 29.3387 36.5204 29.2726C35.3518 29.2066 34.1944 29.5313 33.2319 30.1954C32.1854 30.9261 30.9374 31.3152 29.6599 31.3091C28.8582 31.3215 28.061 31.1866 27.3084 30.911C26.7088 30.5657 26.1419 30.2047 25.6075 29.8279C25.5433 29.7666 25.4791 29.7081 25.4176 29.6441C24.3396 28.5025 23.809 26.9934 23.809 25.0026C23.809 23.0117 24.334 21.5082 25.412 20.3722C26.4901 19.2362 27.8613 18.7016 29.6543 18.7016C30.9319 18.6955 32.1799 19.0846 33.2263 19.8153C34.1888 20.4794 35.3462 20.8041 36.5148 20.7381C37.6835 20.672 38.7966 20.2189 39.6776 19.4506L39.834 19.3085C40.4543 18.7534 40.9361 18.0617 41.2411 17.2883C41.546 16.5149 41.6658 15.6812 41.5907 14.8536C41.5215 14.0449 41.2609 13.2641 40.8302 12.5754C40.3996 11.8866 39.8113 11.3095 39.1135 10.8914C38.5467 10.5498 37.9591 10.2438 37.354 9.97538C34.7659 8.85404 31.9677 8.29589 29.146 8.33817C27.9123 8.33472 26.6806 8.43906 25.4651 8.65002H25.44C23.5816 8.96743 21.7833 9.56848 20.1085 10.432C17.4712 11.7838 15.2621 13.8388 13.727 16.3683C12.2116 18.994 11.4141 21.9704 11.4141 24.9998C11.4141 28.0292 12.2116 31.0055 13.727 33.6313C15.2608 36.1604 17.4704 38.2139 20.1085 39.562C22.904 40.9872 26.0065 41.7098 29.146 41.667C31.9687 41.7099 34.7683 41.1547 37.3596 40.0381C37.9642 39.7676 38.5518 39.4607 39.1191 39.1193C39.8169 38.702 40.4054 38.1254 40.8361 37.4371C41.2668 36.7487 41.5273 35.9683 41.5963 35.1599C41.6716 34.3314 41.552 33.4969 41.247 32.7225C40.9421 31.9482 40.4602 31.2555 39.8396 30.6994ZM25.7639 10.9304C25.8282 10.9081 25.8896 10.8914 25.9511 10.8747C27.0071 10.7012 28.0757 10.6146 29.146 10.6158C31.647 10.5724 34.1288 11.0593 36.4268 12.0442C36.9485 12.2775 37.4558 12.5416 37.9461 12.8349C38.3388 13.0698 38.6701 13.3942 38.9128 13.7814C39.1555 14.1685 39.3028 14.6075 39.3425 15.0624C39.3908 15.5389 39.3246 16.0201 39.1492 16.4661C38.9739 16.912 38.6946 17.3099 38.3343 17.6268L38.1751 17.766C37.6726 18.2002 37.0386 18.454 36.3744 18.4868C35.7102 18.5196 35.0541 18.3296 34.511 17.947C33.089 16.9686 31.4015 16.446 29.6739 16.449C27.2581 16.449 25.278 17.2453 23.7866 18.8185C22.9747 19.6753 22.3701 20.7057 22.0188 21.8312C21.7027 22.8584 21.5473 23.9281 21.558 25.0026C21.558 25.242 21.572 25.4731 21.5859 25.7014C20.2803 23.6854 19.7552 21.2646 20.1085 18.8909C20.6336 15.2406 23.0074 12.1834 25.1886 11.1476C25.3748 11.0581 25.567 10.9819 25.7639 10.9193V10.9304ZM13.6851 25.0137C13.6438 22.3943 14.3301 19.8146 15.668 17.56C16.7216 15.826 18.1534 14.3509 19.8572 13.2442C19.8572 13.2442 19.8181 13.311 19.765 13.3918C19.7119 13.4725 19.7008 13.5004 19.6561 13.5728L19.5081 13.815V13.8345C18.6682 15.3009 18.1112 16.9111 17.8659 18.5818C17.4302 21.5778 17.7737 27.0157 24.1804 31.5848C24.3201 31.7156 24.4597 31.8382 24.6189 31.9579C19.9717 32.0526 17.2766 30.8441 15.7071 29.3907C14.7767 28.5407 14.1002 27.4509 13.7521 26.2416C13.7046 25.8267 13.6851 25.4202 13.6851 25.0026V25.0137ZM39.3369 34.965C39.2985 35.4202 39.1518 35.8597 38.909 36.2471C38.6661 36.6345 38.3341 36.9586 37.9405 37.1925C37.4516 37.4898 36.9441 37.7558 36.4212 37.9888C34.1232 38.9737 31.6414 39.4605 29.1404 39.4172C26.3671 39.4581 23.6255 38.8244 21.153 37.5712C20.0172 36.9856 18.9668 36.2484 18.0307 35.3799C17.1103 34.5236 16.3133 33.5444 15.6624 32.4702C15.5786 32.3282 15.5004 32.1918 15.4194 32.0331C15.4809 32.0721 15.5423 32.1166 15.6065 32.1528C15.9424 32.3671 16.2913 32.5605 16.651 32.7319C18.5027 33.6341 20.7397 34.1241 23.3538 34.2049C23.4794 34.2049 23.6079 34.2049 23.7392 34.2049H24.1329C26.3382 34.1817 28.5365 33.9524 30.6988 33.5199C30.8999 33.4846 31.101 33.4457 31.302 33.403C31.397 33.3835 31.4948 33.364 31.5813 33.3389L31.7349 33.3027C32.7218 33.0584 33.6571 32.6407 34.497 32.0693C35.0401 31.6867 35.6962 31.4967 36.3604 31.5295C37.0246 31.5623 37.6586 31.816 38.1612 32.2502L38.3203 32.3895C38.6823 32.7054 38.9634 33.1029 39.1402 33.5489C39.317 33.9949 39.3844 34.4766 39.3369 34.9539V34.965Z" fill="white"/>
</g>
<defs>
<linearGradient id="paint0_linear_1294_2478" x1="7.5803" y1="20.0625" x2="28.1244" y2="54.7107" gradientUnits="userSpaceOnUse">
<stop stop-color="#EAC85B"/>
<stop offset="1" stop-color="#C59F25"/>
</linearGradient>
<linearGradient id="paint1_linear_1294_2478" x1="25.5143" y1="6.37591" x2="2.08749" y2="21.4433" gradientUnits="userSpaceOnUse">
<stop stop-color="#EAC85B"/>
<stop offset="1" stop-color="#C59F25"/>
</linearGradient>
<linearGradient id="paint2_linear_1294_2478" x1="47.7332" y1="32.7293" x2="23.3125" y2="5.96735" gradientUnits="userSpaceOnUse">
<stop stop-color="#EAC85B"/>
<stop offset="1" stop-color="#C59F25"/>
</linearGradient>
<linearGradient id="paint3_linear_1294_2478" x1="40.228" y1="26.8168" x2="15.5098" y2="21.1189" gradientUnits="userSpaceOnUse">
<stop stop-color="#EAC85B"/>
<stop offset="1" stop-color="#C59F25"/>
</linearGradient>
<linearGradient id="paint4_linear_1294_2478" x1="40.228" y1="26.8168" x2="15.5098" y2="21.1189" gradientUnits="userSpaceOnUse">
<stop stop-color="#EAC85B"/>
<stop offset="1" stop-color="#C59F25"/>
</linearGradient>
<linearGradient id="paint5_linear_1294_2478" x1="40.228" y1="26.8168" x2="15.5098" y2="21.1189" gradientUnits="userSpaceOnUse">
<stop stop-color="#EAC85B"/>
<stop offset="1" stop-color="#C59F25"/>
</linearGradient>
<clipPath id="clip0_1294_2478">
<rect width="54.5455" height="50" fill="white"/>
</clipPath>
</defs>
</svg>
