<?xml version="1.0" encoding="UTF-8"?>
<svg id="_Слой_2" data-name="Слой 2" xmlns="http://www.w3.org/2000/svg" xmlns:xlink="http://www.w3.org/1999/xlink" viewBox="0 0 531.32 357.3">
  <defs>
    <style>
      .cls-1 {
        fill: url(#_Безымянный_градиент_132);
      }

      .cls-1, .cls-2, .cls-3 {
        stroke-width: 0px;
      }

      .cls-2 {
        fill: url(#_Безымянный_градиент_132-2);
      }

      .cls-3 {
        fill: #0b4494;
      }
    </style>
    <linearGradient id="_Безымянный_градиент_132" data-name="Безымянный градиент 132" x1="226.71" y1="319.06" x2="417.63" y2="85.14" gradientUnits="userSpaceOnUse">
      <stop offset="0" stop-color="#0077c0"/>
      <stop offset=".39" stop-color="#0963b1"/>
      <stop offset="1" stop-color="#17479e"/>
    </linearGradient>
    <linearGradient id="_Безымянный_градиент_132-2" data-name="Безымянный градиент 132" x1="102.3" y1="217.52" x2="293.22" y2="-16.4" xlink:href="#_Безымянный_градиент_132"/>
  </defs>
  <g id="_Слой_1-2" data-name="Слой 1">
    <g>
      <g>
        <path class="cls-3" d="M0,356.43v-77.23h15.03v36.71l32.46-36.82h16.56l-29.63,34.31,31.48,43.02h-16.88l-24.07-33.44-9.91,10.35v23.09H0Z"/>
        <path class="cls-3" d="M72.87,356.43v-77.33h15.03v77.33h-15.03Z"/>
        <path class="cls-3" d="M161.86,292.28h-24.73v64.16h-14.92v-64.16h-24.73v-13.18h64.37v13.18Z"/>
        <path class="cls-3" d="M166.76,317.22c0-4.72.85-9.38,2.56-14,1.71-4.61,4.19-8.73,7.46-12.36,3.27-3.63,7.26-6.57,11.98-8.82,4.72-2.25,10.09-3.38,16.12-3.38,7.12,0,13.27,1.56,18.46,4.68,5.19,3.12,9.06,7.19,11.6,12.2l-11.55,7.95c-1.02-2.18-2.25-4.01-3.7-5.5-1.45-1.49-3.01-2.67-4.68-3.54-1.67-.87-3.41-1.51-5.23-1.91-1.82-.4-3.59-.6-5.34-.6-3.78,0-7.06.76-9.86,2.29-2.8,1.52-5.12,3.5-6.97,5.94-1.85,2.43-3.25,5.19-4.19,8.28-.94,3.09-1.42,6.15-1.42,9.2,0,3.41.54,6.7,1.63,9.86,1.09,3.16,2.63,5.94,4.63,8.33,2,2.4,4.39,4.32,7.19,5.77,2.79,1.45,5.86,2.18,9.2,2.18,1.74,0,3.56-.22,5.45-.65,1.89-.44,3.68-1.12,5.39-2.07,1.71-.94,3.28-2.16,4.74-3.65,1.45-1.49,2.61-3.28,3.49-5.39l12.31,7.08c-1.24,2.91-3,5.46-5.28,7.68-2.29,2.22-4.87,4.08-7.73,5.61-2.87,1.52-5.94,2.69-9.2,3.49-3.27.8-6.46,1.2-9.59,1.2-5.52,0-10.56-1.16-15.14-3.49-4.57-2.32-8.51-5.35-11.82-9.1-3.31-3.74-5.88-7.99-7.73-12.74-1.85-4.76-2.78-9.6-2.78-14.54Z"/>
        <path class="cls-3" d="M311.19,279.1v77.33h-14.92v-33h-35.07v33h-15.03v-77.33h15.03v31.26h35.07v-31.26h14.92Z"/>
        <path class="cls-3" d="M381,343.25v13.18h-53.7v-77.33h52.72v13.18h-37.69v18.63h32.57v12.2h-32.57v20.15h38.67Z"/>
        <path class="cls-3" d="M407.8,306.87v49.56h-15.03v-77.33h11.65l40.3,50.76v-50.65h15.03v77.23h-12.2l-39.76-49.56Z"/>
        <path class="cls-3" d="M521.95,299.36c-.51-.51-1.43-1.2-2.78-2.07-1.34-.87-2.98-1.72-4.9-2.56-1.92-.83-4.01-1.54-6.26-2.12-2.25-.58-4.54-.87-6.86-.87-4.14,0-7.23.76-9.26,2.29-2.03,1.52-3.05,3.67-3.05,6.43,0,1.6.38,2.92,1.14,3.98.76,1.05,1.87,1.98,3.32,2.78,1.45.8,3.28,1.53,5.5,2.18,2.21.65,4.77,1.34,7.68,2.07,3.77,1.02,7.21,2.11,10.29,3.27,3.09,1.16,5.7,2.61,7.84,4.36,2.14,1.74,3.79,3.83,4.96,6.26,1.16,2.43,1.74,5.43,1.74,8.99,0,4.14-.78,7.68-2.34,10.62-1.56,2.94-3.67,5.32-6.32,7.13-2.65,1.82-5.7,3.14-9.15,3.98-3.45.83-7.06,1.25-10.84,1.25-5.81,0-11.55-.87-17.21-2.61-5.66-1.74-10.75-4.21-15.25-7.41l6.64-12.96c.65.65,1.83,1.51,3.54,2.56,1.71,1.05,3.72,2.11,6.05,3.16,2.32,1.05,4.9,1.94,7.73,2.67,2.83.73,5.74,1.09,8.71,1.09,8.28,0,12.42-2.65,12.42-7.95,0-1.67-.47-3.09-1.42-4.25-.94-1.16-2.29-2.18-4.03-3.05-1.74-.87-3.85-1.67-6.32-2.4-2.47-.73-5.23-1.52-8.28-2.4-3.7-1.02-6.92-2.12-9.64-3.32-2.72-1.2-4.99-2.61-6.81-4.25-1.82-1.63-3.18-3.52-4.08-5.66-.91-2.14-1.36-4.7-1.36-7.68,0-3.92.73-7.41,2.18-10.46,1.45-3.05,3.47-5.59,6.05-7.62,2.58-2.03,5.57-3.58,8.99-4.63,3.41-1.05,7.08-1.58,11-1.58,5.45,0,10.46.85,15.03,2.56,4.57,1.71,8.57,3.72,11.98,6.05l-6.64,12.2Z"/>
      </g>
      <g>
        <path class="cls-1" d="M468.25,112.7v-6.11c0-3.15-2.55-5.7-5.7-5.7h-228.91c-3.15,0-5.7,2.55-5.7,5.7v66.8c0,3.15,2.55,5.7,5.7,5.7h211.4c3.15,0,5.7,2.55,5.7,5.7v31.77c0,3.15-2.55,5.7-5.7,5.7h-211.4c-3.15,0-5.7,2.55-5.7,5.7v6.11c0,3.15,2.55,5.7,5.7,5.7h228.91c3.15,0,5.7-2.55,5.7-5.7v-66.8h0c0-3.15-2.55-5.7-5.7-5.7h-211.4c-3.15,0-5.7-2.55-5.7-5.7v-31.77c0-3.15,2.55-5.7,5.7-5.7h211.4c3.15,0,5.7-2.55,5.7-5.7Z"/>
        <path class="cls-2" d="M158,0l41.97.17c1.94,0,3.51,1.57,3.51,3.51h0v31.59c0,1.94-1.57,3.51-3.51,3.51h-10.49c-1.94,0-3.51-1.57-3.51-3.51v-14.08c0-1.94-1.57-3.51-3.51-3.51h-20.95c-1.94,0-3.51,1.57-3.51,3.51v39.45c0,1.94,1.57,3.51,3.51,3.51h217.37c1.94,0,3.51,1.57,3.51,3.51v10.49c0,1.94-1.57,3.51-3.51,3.51H79.29c-1.94,0-3.51,1.57-3.51,3.51v133.58c0,1.94,1.57,3.51,3.51,3.51h57.4c1.94,0,3.51-1.57,3.51-3.51v-114.36c0-1.94,1.57-3.51,3.51-3.51h10.49c1.94,0,3.51,1.57,3.51,3.51v131.87c0,1.94-1.57,3.51-3.51,3.51H61.78c-1.94,0-3.51-1.57-3.51-3.51V67.66c0-1.94,1.57-3.51,3.51-3.51h75.19c1.94,0,3.51-1.57,3.51-3.51V4.15c0-2.29,1.86-4.15,4.15-4.15h13.36Z"/>
      </g>
    </g>
  </g>
</svg>