<svg width="28" height="28" viewBox="0 0 28 28" fill="none" xmlns="http://www.w3.org/2000/svg">
<rect width="28" height="28" rx="10" fill="white"/>
<path d="M14.0033 5C10.4087 5 7.48438 7.92437 7.48438 11.5189C7.48438 15.9798 13.3182 22.5287 13.5665 22.8053C13.7998 23.0651 14.2072 23.0647 14.44 22.8053C14.6884 22.5287 20.5222 15.9798 20.5222 11.5189C20.5221 7.92437 17.5978 5 14.0033 5ZM14.0033 14.7987C12.1948 14.7987 10.7235 13.3274 10.7235 11.5189C10.7235 9.71037 12.1948 8.23909 14.0033 8.23909C15.8118 8.23909 17.2831 9.71041 17.2831 11.5189C17.2831 13.3274 15.8118 14.7987 14.0033 14.7987Z" fill="#252525"/>
</svg>
