<svg width="28" height="28" viewBox="0 0 28 28" fill="none" xmlns="http://www.w3.org/2000/svg">
<path d="M26.4889 13.1739L18.3222 5.00719C18.1022 4.79467 17.8075 4.67707 17.5016 4.67973C17.1957 4.68239 16.9031 4.80509 16.6868 5.0214C16.4705 5.23771 16.3478 5.53032 16.3451 5.83622C16.3425 6.14211 16.46 6.43682 16.6726 6.65685L22.8477 12.832L2.33073 12.832C2.02131 12.832 1.72456 12.9549 1.50577 13.1737C1.28698 13.3925 1.16406 13.6893 1.16406 13.9987C1.16406 14.3081 1.28698 14.6049 1.50577 14.8236C1.72456 15.0424 2.02131 15.1654 2.33073 15.1654L22.8477 15.1654L16.6726 21.3405C16.5611 21.4481 16.4723 21.5769 16.4111 21.7192C16.35 21.8616 16.3178 22.0146 16.3164 22.1696C16.3151 22.3245 16.3446 22.4781 16.4033 22.6215C16.4619 22.7648 16.5486 22.8951 16.6581 23.0046C16.7676 23.1142 16.8979 23.2008 17.0413 23.2595C17.1847 23.3181 17.3383 23.3477 17.4932 23.3463C17.6481 23.345 17.8012 23.3128 17.9435 23.2516C18.0859 23.1905 18.2146 23.1016 18.3222 22.9902L26.4889 14.8235C26.7076 14.6047 26.8305 14.308 26.8305 13.9987C26.8305 13.6893 26.7076 13.3926 26.4889 13.1739Z" fill="#252525"/>
</svg>
