<svg width="28" height="28" viewBox="0 0 28 28" fill="none" xmlns="http://www.w3.org/2000/svg">
<g clip-path="url(#clip0_114_2779)">
<path d="M22.234 4.58329L10.6845 4.58329C10.3787 4.58861 10.0871 4.71385 9.87272 4.93203C9.6583 5.15021 9.53815 5.44388 9.53815 5.74978C9.53815 6.05569 9.6583 6.34936 9.87272 6.56754C10.0871 6.78572 10.3787 6.91096 10.6845 6.91627L19.4175 6.91628L4.90984 21.424C4.69105 21.6428 4.56813 21.9395 4.56813 22.2489C4.56813 22.5584 4.69105 22.8551 4.90984 23.0739C5.12863 23.2927 5.42538 23.4156 5.7348 23.4156C6.04422 23.4156 6.34096 23.2927 6.55975 23.0739L21.0675 8.56619V17.2992C21.0648 17.4541 21.093 17.608 21.1504 17.7518C21.2078 17.8957 21.2933 18.0267 21.4019 18.1372C21.5104 18.2477 21.6399 18.3355 21.7828 18.3954C21.9257 18.4553 22.079 18.4861 22.234 18.4861C22.3889 18.4861 22.5422 18.4553 22.6851 18.3954C22.828 18.3355 22.9575 18.2477 23.0661 18.1372C23.1746 18.0267 23.2601 17.8957 23.3175 17.7518C23.375 17.608 23.4031 17.4541 23.4004 17.2992L23.4004 5.74978C23.4004 5.44043 23.2775 5.14375 23.0587 4.925C22.84 4.70625 22.5433 4.58334 22.234 4.58329Z" fill="#252525"/>
</g>
<defs>
<clipPath id="clip0_114_2779">
<rect width="28" height="28" fill="white"/>
</clipPath>
</defs>
</svg>
