<svg width="24" height="24" viewBox="0 0 24 24" fill="none" xmlns="http://www.w3.org/2000/svg">
<path d="M13.1267 21.3333C13.1267 21.6427 13.008 21.9395 12.7967 22.1583C12.5854 22.3771 12.2988 22.5 12 22.5C11.7012 22.5 11.4146 22.3771 11.2033 22.1583C10.992 21.9395 10.8733 21.6427 10.8733 21.3333V5.4828L4.90948 11.658C4.69698 11.8706 4.41237 11.9882 4.11694 11.9855C3.82151 11.9828 3.53892 11.8601 3.33001 11.6438C3.12111 11.4275 3.00261 11.1349 3.00004 10.829C2.99748 10.5231 3.11104 10.2284 3.31629 10.0084L11.2034 1.84159C11.4147 1.62287 11.7012 1.5 12 1.5C12.2988 1.5 12.5853 1.62287 12.7966 1.84159L20.6837 10.0084C20.889 10.2284 21.0025 10.5231 21 10.829C20.9974 11.1349 20.8789 11.4275 20.67 11.6438C20.4611 11.8601 20.1785 11.9828 19.8831 11.9855C19.5876 11.9882 19.303 11.8706 19.0905 11.658L13.1267 5.4828V21.3333Z" fill="#252525"/>
</svg>
