<svg width="28" height="28" viewBox="0 0 28 28" fill="none" xmlns="http://www.w3.org/2000/svg">
<path d="M1.5111 14.8261L9.67777 22.9928C9.89781 23.2053 10.1925 23.3229 10.4984 23.3203C10.8043 23.3176 11.0969 23.1949 11.3132 22.9786C11.5295 22.7623 11.6522 22.4697 11.6549 22.1638C11.6575 21.8579 11.54 21.5632 11.3274 21.3431L5.15227 15.168L25.6693 15.168C25.9787 15.168 26.2754 15.0451 26.4942 14.8263C26.713 14.6075 26.8359 14.3107 26.8359 14.0013C26.8359 13.6919 26.713 13.3951 26.4942 13.1764C26.2754 12.9576 25.9787 12.8346 25.6693 12.8346L5.15227 12.8346L11.3274 6.65948C11.4389 6.55186 11.5277 6.42312 11.5889 6.28079C11.65 6.13845 11.6822 5.98536 11.6836 5.83045C11.6849 5.67554 11.6554 5.52191 11.5967 5.37854C11.5381 5.23516 11.4514 5.1049 11.3419 4.99535C11.2324 4.88581 11.1021 4.79918 10.9587 4.74052C10.8153 4.68186 10.6617 4.65234 10.5068 4.65369C10.3519 4.65503 10.1988 4.68722 10.0565 4.74836C9.91413 4.80951 9.78539 4.89838 9.67777 5.00981L1.5111 13.1765C1.29239 13.3953 1.16952 13.692 1.16952 14.0013C1.16952 14.3107 1.29239 14.6074 1.5111 14.8261Z" fill="#252525"/>
</svg>
