<svg width="30" height="30" viewBox="0 0 30 30" fill="none" xmlns="http://www.w3.org/2000/svg">
<path d="M23.4301 25.0008L4.86857 6.43934C4.13631 5.70708 4.01763 4.63862 4.6034 4.05285C5.18917 3.46708 6.25763 3.58576 6.98989 4.31802L25.5514 22.8796C26.2837 23.6118 26.4024 24.6803 25.8166 25.2661C25.2308 25.8518 24.1623 25.7331 23.4301 25.0008Z" fill="#252525"/>
<path d="M16.6524 16.1459H13.3529C13.2227 16.1459 13.1172 15.3017 13.1172 14.2605C13.1172 13.2192 13.2227 12.375 13.3529 12.375H16.6524C16.7825 12.375 16.888 13.2191 16.888 14.2605C16.888 15.3018 16.7825 16.1459 16.6524 16.1459Z" fill="#252525"/>
<path d="M25.0086 6.55431L6.44715 25.1158C5.71489 25.8481 4.64647 25.9668 4.06066 25.381C3.47485 24.7952 3.59357 23.7267 4.32583 22.9945L22.8874 4.43294C23.6196 3.70072 24.6881 3.58196 25.2739 4.16777C25.8597 4.75358 25.7409 5.82205 25.0086 6.55431Z" fill="#252525"/>
</svg>
