<svg width="24" height="24" viewBox="0 0 24 24" fill="none" xmlns="http://www.w3.org/2000/svg">
<path d="M20.4301 22.0008L1.86857 3.43934C1.13631 2.70708 1.01763 1.63862 1.6034 1.05285C2.18917 0.467077 3.25763 0.585756 3.98989 1.31802L22.5514 19.8796C23.2837 20.6118 23.4024 21.6803 22.8166 22.2661C22.2308 22.8518 21.1623 22.7331 20.4301 22.0008Z" fill="#252525"/>
<path d="M13.6524 13.1459H10.3529C10.2227 13.1459 10.1172 12.3017 10.1172 11.2605C10.1172 10.2192 10.2227 9.375 10.3529 9.375H13.6524C13.7825 9.375 13.888 10.2191 13.888 11.2605C13.888 12.3018 13.7825 13.1459 13.6524 13.1459Z" fill="#252525"/>
<path d="M22.0086 3.55431L3.44715 22.1158C2.71489 22.8481 1.64647 22.9668 1.06066 22.381C0.474853 21.7952 0.593569 20.7267 1.32583 19.9945L19.8874 1.43294C20.6196 0.700725 21.6881 0.581963 22.2739 1.16777C22.8597 1.75358 22.7409 2.82205 22.0086 3.55431Z" fill="#252525"/>
</svg>
