<svg width="24" height="24" viewBox="0 0 24 24" fill="none" xmlns="http://www.w3.org/2000/svg">
<g id="Close">
<g id="Group">
<path id="Vector" d="M13.2828 12.0002L18.7344 6.54852C19.0891 6.19391 19.0891 5.62053 18.7344 5.26596C18.3798 4.91135 17.8064 4.91135 17.4518 5.26596L12.0001 10.7176L6.54865 5.26596C6.19387 4.91135 5.6207 4.91135 5.26609 5.26596C4.9113 5.62057 4.9113 6.19391 5.26609 6.54852L10.7175 12.0002L5.26613 17.4518C4.91135 17.8064 4.91135 18.3798 5.26613 18.7344C5.35025 18.8187 5.4502 18.8856 5.56025 18.9312C5.67031 18.9768 5.78828 19.0002 5.90741 19.0001C6.13957 19.0001 6.37181 18.9112 6.54869 18.7344L12.0001 13.2827L17.4518 18.7344C17.536 18.8187 17.6359 18.8856 17.746 18.9312C17.856 18.9768 17.974 19.0002 18.0931 19.0001C18.3253 19.0001 18.5575 18.9112 18.7344 18.7344C19.0891 18.3797 19.0891 17.8064 18.7344 17.4518L13.2828 12.0002Z" fill="black"/>
</g>
</g>
</svg>
