<svg width="28" height="28" viewBox="0 0 28 28" fill="none" xmlns="http://www.w3.org/2000/svg">
<rect width="28" height="28" rx="10" fill="white"/>
<path d="M21.418 7.67188H6.58203C5.71149 7.67188 5 8.38024 5 9.25391V18.7461C5 19.6201 5.71195 20.3281 6.58203 20.3281H21.418C22.2885 20.3281 23 19.6198 23 18.7461V9.25391C23 8.38003 22.2882 7.67188 21.418 7.67188ZM21.175 8.72656L14.4087 15.515C14.2025 15.7218 13.7976 15.722 13.5913 15.515L6.82496 8.72656H21.175ZM6.05469 18.5522V9.44779L10.5921 14L6.05469 18.5522ZM6.82496 19.2734L11.3367 14.747L12.8444 16.2596C13.4622 16.8794 14.538 16.8792 15.1557 16.2596L16.6633 14.747L21.175 19.2734H6.82496ZM21.9453 18.5522L17.4079 14L21.9453 9.44779V18.5522Z" fill="#252525"/>
</svg>
