<svg width="28" height="28" viewBox="0 0 28 28" fill="none" xmlns="http://www.w3.org/2000/svg">
<rect width="28" height="28" rx="10" fill="white"/>
<path d="M12.2694 14.9383H10.4874C10.1994 14.9383 10.1094 14.8303 10.1094 14.5603V12.3823C10.1094 12.0943 10.2174 12.0043 10.4874 12.0043H12.2694V10.4203C12.2694 9.70031 12.3954 9.01631 12.7554 8.38631C13.1334 7.73831 13.6734 7.30631 14.3574 7.05431C14.8074 6.89231 15.2574 6.82031 15.7434 6.82031H17.5074C17.7594 6.82031 17.8674 6.92831 17.8674 7.18031V9.23231C17.8674 9.48431 17.7594 9.59231 17.5074 9.59231C17.0214 9.59231 16.5354 9.59231 16.0494 9.61031C15.5634 9.61031 15.3114 9.84431 15.3114 10.3483C15.2934 10.8883 15.3114 11.4103 15.3114 11.9683H17.3994C17.6874 11.9683 17.7954 12.0763 17.7954 12.3643V14.5423C17.7954 14.8303 17.7054 14.9203 17.3994 14.9203H15.3114V20.7883C15.3114 21.0943 15.2214 21.2023 14.8974 21.2023H12.6474C12.3774 21.2023 12.2694 21.0943 12.2694 20.8243V14.9383Z" fill="#252525"/>
</svg>
