<svg width="28" height="28" viewBox="0 0 28 28" fill="none" xmlns="http://www.w3.org/2000/svg">
<rect width="28" height="28" rx="10" fill="white"/>
<g clip-path="url(#clip0_114_3444)">
<path d="M22.9821 10.292C22.9399 9.33561 22.7852 8.67813 22.5636 8.10835C22.3351 7.50358 21.9834 6.96214 21.5228 6.51201C21.0726 6.05489 20.5276 5.69968 19.9298 5.4747C19.3568 5.25317 18.7027 5.09846 17.7463 5.05633C16.7827 5.01055 16.4768 5 14.033 5C11.5892 5 11.2833 5.01055 10.3233 5.05274C9.3669 5.09494 8.70938 5.24973 8.13978 5.47112C7.53483 5.69968 6.99339 6.05131 6.54326 6.51201C6.08614 6.9621 5.7311 7.50713 5.50595 8.1049C5.28442 8.67813 5.12974 9.3321 5.08758 10.2885C5.04183 11.252 5.03125 11.5579 5.03125 14.0018C5.03125 16.4456 5.04183 16.7515 5.08399 17.7115C5.12619 18.6679 5.28098 19.3254 5.50254 19.8952C5.7311 20.4999 6.08614 21.0414 6.54326 21.4915C6.99339 21.9486 7.53842 22.3038 8.13619 22.5288C8.70935 22.7503 9.36331 22.9051 10.3199 22.9472C11.2797 22.9895 11.5858 22.9999 14.0296 22.9999C16.4734 22.9999 16.7793 22.9895 17.7393 22.9472C18.6957 22.905 19.3532 22.7504 19.9228 22.5288C20.5211 22.2975 21.0644 21.9438 21.518 21.4902C21.9715 21.0367 22.3253 20.4934 22.5567 19.8952C22.778 19.322 22.9329 18.6679 22.975 17.7115C23.0172 16.7515 23.0278 16.4456 23.0278 14.0018C23.0278 11.5579 23.0242 11.252 22.9821 10.292ZM21.3611 17.6411C21.3224 18.5202 21.1747 18.9949 21.0516 19.3114C20.7492 20.0955 20.1268 20.7179 19.3426 21.0204C19.0262 21.1435 18.5481 21.2911 17.6724 21.3297C16.723 21.372 16.4383 21.3824 14.0366 21.3824C11.6349 21.3824 11.3466 21.372 10.4006 21.3297C9.52154 21.2911 9.04684 21.1435 8.73038 21.0204C8.34017 20.8761 7.98499 20.6476 7.69665 20.3487C7.39776 20.0568 7.1692 19.7052 7.02496 19.315C6.90189 18.9985 6.75424 18.5202 6.71567 17.6447C6.67333 16.6953 6.66292 16.4104 6.66292 14.0088C6.66292 11.6071 6.67333 11.3188 6.71567 10.373C6.75424 9.49388 6.90189 9.01918 7.02496 8.70271C7.1692 8.31233 7.39776 7.95722 7.70024 7.66881C7.99195 7.36992 8.34358 7.14136 8.73396 6.9973C9.05043 6.87423 9.52872 6.72654 10.4042 6.68783C11.3536 6.64563 11.6385 6.63508 14.04 6.63508C16.4453 6.63508 16.73 6.64563 17.676 6.68783C18.5551 6.72658 19.0298 6.87419 19.3462 6.99726C19.7364 7.14136 20.0916 7.36992 20.38 7.66881C20.6788 7.9607 20.9074 8.31233 21.0516 8.70271C21.1747 9.01918 21.3224 9.49729 21.3611 10.373C21.4033 11.3224 21.4138 11.6071 21.4138 14.0088C21.4138 16.4104 21.4033 16.6917 21.3611 17.6411Z" fill="#252525"/>
<path d="M14.0302 9.37947C11.4774 9.37947 9.40625 11.4505 9.40625 14.0034C9.40625 16.5563 11.4774 18.6274 14.0302 18.6274C16.583 18.6274 18.6542 16.5563 18.6542 14.0034C18.6542 11.4505 16.583 9.37947 14.0302 9.37947ZM14.0302 17.0028C12.3741 17.0028 11.0307 15.6597 11.0307 14.0034C11.0307 12.3472 12.3741 11.004 14.0302 11.004C15.6864 11.004 17.0296 12.3472 17.0296 14.0034C17.0296 15.6597 15.6864 17.0028 14.0302 17.0028ZM19.9166 9.19663C19.9166 9.79278 19.4332 10.2761 18.8369 10.2761C18.2408 10.2761 17.7575 9.79278 17.7575 9.19663C17.7575 8.6004 18.2408 8.11719 18.837 8.11719C19.4332 8.11719 19.9166 8.60036 19.9166 9.19663Z" fill="#252525"/>
</g>
<defs>
<clipPath id="clip0_114_3444">
<rect width="18" height="18" fill="white" transform="translate(5 5)"/>
</clipPath>
</defs>
</svg>
