<svg width="28" height="28" viewBox="0 0 28 28" fill="none" xmlns="http://www.w3.org/2000/svg">
<rect width="28" height="28" rx="10" fill="white"/>
<path d="M21.1969 21.1969V15.9229C21.1969 13.3309 20.6389 11.3509 17.6149 11.3509C16.1569 11.3509 15.1849 12.1429 14.7889 12.8989H14.7529V11.5849H11.8909V21.1969H14.8789V16.4269C14.8789 15.1669 15.1129 13.9609 16.6609 13.9609C18.1909 13.9609 18.2089 15.3829 18.2089 16.4989V21.1789H21.1969V21.1969ZM7.03088 11.5849H10.0189V21.1969H7.03088V11.5849ZM8.52488 6.79688C7.57087 6.79688 6.79688 7.57087 6.79688 8.52488C6.79688 9.47887 7.57087 10.2709 8.52488 10.2709C9.47887 10.2709 10.2529 9.47887 10.2529 8.52488C10.2529 7.57087 9.47887 6.79688 8.52488 6.79688Z" fill="#252525"/>
</svg>
