<svg width="30" height="30" viewBox="0 0 30 30" fill="none" xmlns="http://www.w3.org/2000/svg">
<path d="M25.4999 24H4.50001C3.67155 24 3 23.3284 3 22.5C3 21.6716 3.67155 21 4.50001 21H25.5C26.3284 21 27 21.6716 27 22.5C26.9999 23.3284 26.3284 24 25.4999 24Z" fill="#252525"/>
<path d="M25.4999 16.5H4.50001C3.67155 16.5 3 15.8284 3 15C3 14.1716 3.67155 13.5 4.50001 13.5H25.5C26.3284 13.5 27 14.1715 27 15C27 15.8285 26.3284 16.5 25.4999 16.5Z" fill="#252525"/>
<path d="M25.4999 9.00002H4.50001C3.67155 9.00002 3 8.32847 3 7.50001C3 6.67155 3.67155 6 4.50001 6H25.5C26.3284 6 27 6.67155 27 7.50001C27 8.32847 26.3284 9.00002 25.4999 9.00002Z" fill="#252525"/>
</svg>
