<svg width="28" height="28" viewBox="0 0 28 28" fill="none" xmlns="http://www.w3.org/2000/svg">
<rect width="28" height="28" rx="10" fill="white"/>
<path d="M21.5336 18.14C21.0419 17.7277 18.1586 15.9018 17.6793 15.9856C17.4543 16.0256 17.2822 16.2174 16.8215 16.7669C16.6085 17.0374 16.3745 17.2908 16.1217 17.5246C15.6587 17.4128 15.2105 17.2466 14.7864 17.0296C13.1232 16.2199 11.7796 14.8759 10.9704 13.2125C10.7534 12.7884 10.5872 12.3402 10.4754 11.8771C10.7092 11.6244 10.9626 11.3904 11.2331 11.1774C11.7821 10.7167 11.9744 10.5457 12.0144 10.3196C12.0982 9.83919 10.2706 6.95694 9.86 6.46531C9.68788 6.26169 9.5315 6.125 9.33125 6.125C8.75075 6.125 6.125 9.37175 6.125 9.7925C6.125 9.82681 6.18125 13.2069 10.4501 17.5499C14.7931 21.8188 18.1732 21.875 18.2075 21.875C18.6283 21.875 21.875 19.2492 21.875 18.6687C21.875 18.4685 21.7383 18.3121 21.5336 18.14ZM17.9375 13.4375H19.0625C19.0612 12.2444 18.5866 11.1006 17.743 10.257C16.8994 9.41338 15.7556 8.93884 14.5625 8.9375V10.0625C15.4573 10.0634 16.3153 10.4193 16.948 11.052C17.5807 11.6847 17.9366 12.5427 17.9375 13.4375Z" fill="#252525"/>
<path d="M20.75 13.4375H21.875C21.8728 11.4988 21.1016 9.64012 19.7308 8.26925C18.3599 6.89837 16.5012 6.12723 14.5625 6.125V7.25C16.2029 7.25194 17.7756 7.90445 18.9356 9.06441C20.0955 10.2244 20.7481 11.7971 20.75 13.4375Z" fill="#252525"/>
</svg>
