<svg width="28" height="28" viewBox="0 0 28 28" fill="none" xmlns="http://www.w3.org/2000/svg">
<rect width="28" height="28" rx="10" fill="white"/>
<g clip-path="url(#clip0_114_3465)">
<path d="M14.2445 5C9.31112 5 6.6875 8.16139 6.6875 11.6085C6.6875 13.2072 7.58079 15.2008 9.01073 15.8331C9.22786 15.931 9.34599 15.8894 9.39437 15.688C9.43712 15.535 9.62501 14.7981 9.71614 14.4504C9.74426 14.339 9.72964 14.2423 9.63963 14.1377C9.16486 13.5886 8.78797 12.5885 8.78797 11.6502C8.78797 9.24594 10.6994 6.91146 13.952 6.91146C16.7646 6.91146 18.7323 8.73854 18.7323 11.352C18.7323 14.3053 17.1696 16.3484 15.1389 16.3484C14.015 16.3484 13.1779 15.4663 13.4434 14.375C13.7641 13.0756 14.393 11.6783 14.393 10.7411C14.393 9.90072 13.9182 9.20544 12.9484 9.20544C11.8042 9.20544 10.8761 10.3384 10.8761 11.8594C10.8761 12.8259 11.2181 13.4784 11.2181 13.4784C11.2181 13.4784 10.0863 18.0506 9.87589 18.9045C9.52038 20.3502 9.92427 22.6914 9.95915 22.8928C9.98052 23.0042 10.1054 23.0391 10.1752 22.9479C10.2865 22.8017 11.6546 20.8497 12.0382 19.4389C12.1777 18.9248 12.7504 16.84 12.7504 16.84C13.1273 17.5207 14.2152 18.0911 15.374 18.0911C18.8212 18.0911 21.312 15.0613 21.312 11.3014C21.2997 7.69675 18.2148 5 14.2445 5Z" fill="#252525"/>
</g>
<defs>
<clipPath id="clip0_114_3465">
<rect width="18" height="18" fill="white" transform="translate(5 5)"/>
</clipPath>
</defs>
</svg>
