<svg width="50" height="50" viewBox="0 0 50 50" fill="none" xmlns="http://www.w3.org/2000/svg">
<g clip-path="url(#clip0_1316_1324)">
<path d="M33.3938 32.07C32.2091 32.07 31.2453 31.2358 31.2453 30.2105C31.2453 29.1852 32.2091 28.351 33.3938 28.351C34.5784 28.351 35.5422 29.1852 35.5422 30.2105C35.5422 30.7498 35.9795 31.1871 36.5188 31.1871C37.058 31.1871 37.4953 30.7498 37.4953 30.2105C37.4953 28.421 36.1619 26.9163 34.3703 26.5079V26C34.3703 25.4607 33.933 25.0234 33.3938 25.0234C32.8545 25.0234 32.4172 25.4607 32.4172 26V26.5079C30.6256 26.9163 29.2922 28.421 29.2922 30.2105C29.2922 32.3128 31.1321 34.0231 33.3938 34.0231C34.5784 34.0231 35.5422 34.8573 35.5422 35.8827C35.5422 36.9081 34.5784 37.7423 33.3938 37.7423C32.2091 37.7423 31.2453 36.9081 31.2453 35.8827C31.2453 35.3435 30.808 34.9062 30.2688 34.9062C29.7295 34.9062 29.2922 35.3435 29.2922 35.8827C29.2922 37.6723 30.6256 39.177 32.4172 39.5854V40.0072C32.4172 40.5465 32.8545 40.9838 33.3938 40.9838C33.933 40.9838 34.3703 40.5465 34.3703 40.0072V39.5854C36.1619 39.177 37.4953 37.6723 37.4953 35.8827C37.4953 33.7804 35.6554 32.07 33.3938 32.07ZM44.0898 26.2612C42.8171 24.276 41.0176 22.6835 38.8924 21.6615C38.4062 21.4277 37.8227 21.6324 37.5891 22.1186C37.3554 22.6047 37.56 23.1881 38.0461 23.4218C41.7483 25.2015 44.1404 29.0041 44.1404 33.1094C44.1404 34.866 43.7074 36.6081 42.8884 38.1476C42.6351 38.6236 42.8156 39.215 43.2918 39.4684C43.5204 39.59 43.788 39.6158 44.0357 39.5402C44.2834 39.4645 44.4909 39.2936 44.6126 39.0649C45.5814 37.2442 46.0936 35.1848 46.0936 33.1094C46.0936 30.6719 45.4007 28.3038 44.0898 26.2612ZM34.9288 20.4142L34.8631 20.4141C34.3238 20.4141 33.8865 20.8513 33.8865 21.3906C33.8865 21.93 34.3238 22.3672 34.8631 22.3672L34.9196 22.3673H34.9243C35.4615 22.3673 35.8982 21.9331 35.9008 21.3953C35.9032 20.856 35.4681 20.4167 34.9288 20.4142ZM28.7505 42.797C25.0483 41.0172 22.6562 37.2146 22.6562 33.1094C22.6562 31.3527 23.0893 29.6106 23.9083 28.0712C24.1616 27.5951 23.9811 27.0037 23.5049 26.7504C23.0289 26.4971 22.4373 26.6776 22.1841 27.1538C21.2152 28.9746 20.7031 31.034 20.7031 33.1094C20.7031 35.5469 21.396 37.9148 22.7068 39.9575C23.9796 41.9428 25.7791 43.5353 27.9043 44.5573C28.137 44.6638 28.4021 44.6748 28.6428 44.5878C28.8834 44.5009 29.0803 44.323 29.1912 44.0924C29.302 43.8618 29.318 43.5968 29.2356 43.3546C29.1532 43.1124 28.979 42.9121 28.7505 42.797ZM31.9336 43.8516L31.8771 43.8514C31.3353 43.8504 30.8985 44.2839 30.8961 44.8233C30.8936 45.3627 31.3289 45.802 31.8682 45.8045L31.9336 45.8047C32.4729 45.8047 32.9102 45.3674 32.9102 44.8281C32.9102 44.2889 32.4729 43.8516 31.9336 43.8516Z" fill="black"/>
<path d="M37.8328 17.1101C37.7156 16.8302 37.5702 16.563 37.3989 16.3125H39.9413C42.4183 16.3125 44.4335 14.2972 44.4335 11.8203C44.4335 9.34334 42.4183 7.32811 39.9413 7.32811H32.121C32.6357 6.58149 32.9109 5.69589 32.9101 4.78905C32.9101 2.31211 30.8949 0.296875 28.4179 0.296875H4.49218C2.01523 0.296875 0 2.31211 0 4.78905C0 7.266 2.01523 9.28123 4.49218 9.28123H12.3125C11.8153 10.0041 11.5234 10.8786 11.5234 11.8203C11.5234 12.762 11.8152 13.6365 12.3125 14.3593H9.76561C7.28866 14.3593 5.27343 16.3746 5.27343 18.8515C5.27343 20.2741 5.93886 21.5435 6.97411 22.3671C5.93886 23.1908 5.27343 24.4602 5.27343 25.8828C5.27343 27.3053 5.93886 28.5747 6.97411 29.3984C5.93886 30.222 5.27343 31.4914 5.27343 32.914C5.27343 34.3366 5.93886 35.606 6.97411 36.4296C5.93886 37.2532 5.27343 38.5227 5.27343 39.9452C5.27343 42.4222 7.28866 44.4374 9.76561 44.4374H21.2744C24.3062 47.6803 28.6193 49.7109 33.3985 49.7109C42.5526 49.7109 50 42.2635 50 33.1094C50 25.4906 44.8408 19.0549 37.8328 17.1101ZM39.9413 9.28123C41.3414 9.28123 42.4804 10.4203 42.4804 11.8203C42.4804 13.2203 41.3414 14.3593 39.9413 14.3593H16.0156C14.6155 14.3593 13.4765 13.2203 13.4765 11.8203C13.4765 10.4203 14.6155 9.28123 16.0156 9.28123H39.9413ZM4.49218 7.32811C3.09208 7.32811 1.95312 6.18905 1.95312 4.78905C1.95312 3.38906 3.09208 2.25 4.49218 2.25H28.4179C29.818 2.25 30.957 3.38906 30.957 4.78905C30.957 6.18905 29.818 7.32811 28.4179 7.32811H4.49218ZM9.76561 16.3125H33.6913C34.0847 16.3125 34.4614 16.4039 34.7992 16.5675C34.3373 16.5288 33.8703 16.5079 33.3985 16.5079C28.814 16.5079 24.6578 18.3759 21.6505 21.3906H9.76561C8.36561 21.3906 7.22655 20.2515 7.22655 18.8515C7.22655 17.4515 8.36561 16.3125 9.76561 16.3125ZM9.76561 23.3437H19.9819C18.8733 24.8625 18.0162 26.5756 17.4718 28.4218H9.76561C8.36551 28.4218 7.22655 27.2829 7.22655 25.8828C7.22655 24.4828 8.36551 23.3437 9.76561 23.3437ZM9.76561 30.3749H17.0234C16.8728 31.2786 16.797 32.1932 16.7969 33.1094C16.7969 33.9049 16.8545 34.6871 16.9632 35.4531H9.76561C8.36551 35.4531 7.22655 34.3141 7.22655 32.914C7.22655 31.5139 8.36551 30.3749 9.76561 30.3749ZM9.76561 42.4843C8.36551 42.4843 7.22655 41.3453 7.22655 39.9452C7.22655 38.5451 8.36551 37.4062 9.76561 37.4062H17.3619C17.8489 39.2196 18.6413 40.9369 19.7049 42.4843H9.76561ZM33.3985 47.7578C25.3213 47.7578 18.7501 41.1865 18.7501 33.1094C18.7501 25.0323 25.3213 18.461 33.3985 18.461C41.4756 18.461 48.0469 25.0323 48.0469 33.1094C48.0469 41.1865 41.4756 47.7578 33.3985 47.7578Z" fill="black"/>
</g>
<defs>
<clipPath id="clip0_1316_1324">
<rect width="50" height="50" fill="white"/>
</clipPath>
</defs>
</svg>
