<svg width="50" height="50" viewBox="0 0 50 50" fill="none" xmlns="http://www.w3.org/2000/svg">
<rect width="50" height="50" fill="#F0F0F0"/>
<g id="Home page - Tablet 1024px" clip-path="url(#clip0_1_2)">
<rect width="1024" height="13895" transform="translate(-52 -3750)" fill="white"/>
<g id="Structure">
<g id="Why choose us">
<rect id="bg" x="-52" y="-384" width="1024" height="1600" fill="#F4F4F4"/>
<g id="feature">
<g id="Frame">
<g id="Group">
<path id="Vector" d="M46.2308 7.30769H24.7488C23.9575 4.26417 21.2107 2 17.9231 2C14.6354 2 11.8887 4.26417 11.0974 7.30769H3.76923C3.3 7.30769 2.84999 7.49409 2.5182 7.82589C2.1864 8.15768 2 8.60769 2 9.07692C2 9.54615 2.1864 9.99616 2.5182 10.328C2.84999 10.6598 3.3 10.8462 3.76923 10.8462H11.0974C11.8887 13.8897 14.6354 16.1538 17.9231 16.1538C21.2107 16.1538 23.9575 13.8897 24.7488 10.8462H46.2308C46.7 10.8462 47.15 10.6598 47.4818 10.328C47.8136 9.99616 48 9.54615 48 9.07692C48 8.60769 47.8136 8.15768 47.4818 7.82589C47.15 7.49409 46.7 7.30769 46.2308 7.30769ZM17.9231 12.6154C15.9716 12.6154 14.3846 11.0284 14.3846 9.07692C14.3846 7.12546 15.9716 5.53846 17.9231 5.53846C19.8745 5.53846 21.4615 7.12546 21.4615 9.07692C21.4615 11.0284 19.8745 12.6154 17.9231 12.6154ZM46.2308 23.2308H38.9026C38.1113 20.1873 35.3646 17.9231 32.0769 17.9231C28.7892 17.9231 26.0425 20.1873 25.2512 23.2308H3.76923C3.3 23.2308 2.84999 23.4172 2.5182 23.749C2.1864 24.0808 2 24.5308 2 25C2 25.4692 2.1864 25.9192 2.5182 26.251C2.84999 26.5828 3.3 26.7692 3.76923 26.7692H25.2512C26.0425 29.8127 28.7892 32.0769 32.0769 32.0769C35.3646 32.0769 38.1113 29.8127 38.9026 26.7692H46.2308C46.7 26.7692 47.15 26.5828 47.4818 26.251C47.8136 25.9192 48 25.4692 48 25C48 24.5308 47.8136 24.0808 47.4818 23.749C47.15 23.4172 46.7 23.2308 46.2308 23.2308ZM32.0769 28.5385C30.1255 28.5385 28.5385 26.9515 28.5385 25C28.5385 23.0485 30.1255 21.4615 32.0769 21.4615C34.0284 21.4615 35.6154 23.0485 35.6154 25C35.6154 26.9515 34.0284 28.5385 32.0769 28.5385ZM46.2308 39.1538H24.7488C23.9575 36.1103 21.2107 33.8462 17.9231 33.8462C14.6354 33.8462 11.8887 36.1103 11.0974 39.1538H3.76923C3.3 39.1538 2.84999 39.3402 2.5182 39.672C2.1864 40.0038 2 40.4538 2 40.9231C2 41.3923 2.1864 41.8423 2.5182 42.1741C2.84999 42.5059 3.3 42.6923 3.76923 42.6923H11.0974C11.8887 45.7358 14.6354 48 17.9231 48C21.2107 48 23.9575 45.7358 24.7488 42.6923H46.2308C46.7 42.6923 47.15 42.5059 47.4818 42.1741C47.8136 41.8423 48 41.3923 48 40.9231C48 40.4538 47.8136 40.0038 47.4818 39.672C47.15 39.3402 46.7 39.1538 46.2308 39.1538ZM17.9231 44.4615C15.9716 44.4615 14.3846 42.8745 14.3846 40.9231C14.3846 38.9716 15.9716 37.3846 17.9231 37.3846C19.8745 37.3846 21.4615 38.9716 21.4615 40.9231C21.4615 42.8745 19.8745 44.4615 17.9231 44.4615Z" fill="black"/>
</g>
</g>
</g>
</g>
</g>
</g>
<defs>
<clipPath id="clip0_1_2">
<rect width="1024" height="13895" fill="white" transform="translate(-52 -3750)"/>
</clipPath>
</defs>
</svg>
