<svg width="28" height="28" viewBox="0 0 28 28" fill="none" xmlns="http://www.w3.org/2000/svg">
<rect width="28" height="28" rx="10" fill="white"/>
<g clip-path="url(#clip0_114_3420)">
<path d="M14 5.5625C12.3312 5.5625 10.6999 6.05735 9.31238 6.98448C7.92484 7.9116 6.84338 9.22936 6.20477 10.7711C5.56616 12.3129 5.39907 14.0094 5.72463 15.6461C6.05019 17.2828 6.85378 18.7862 8.03379 19.9662C9.2138 21.1462 10.7172 21.9498 12.3539 22.2754C13.9906 22.6009 15.6871 22.4338 17.2289 21.7952C18.7706 21.1566 20.0884 20.0752 21.0155 18.6876C21.9427 17.3001 22.4375 15.6688 22.4375 14C22.435 11.763 21.5452 9.61837 19.9634 8.03658C18.3816 6.45479 16.237 5.56503 14 5.5625ZM14 21.3125C12.8384 21.3125 11.6223 19.8151 11.0188 17.375H16.9813C16.3777 19.8151 15.1616 21.3125 14 21.3125ZM10.7904 16.25C10.5699 14.7581 10.5699 13.2419 10.7904 11.75H17.2096C17.3212 12.4948 17.3765 13.2469 17.375 14C17.3765 14.7531 17.3212 15.5052 17.2096 16.25H10.7904ZM6.6875 14C6.68791 13.2359 6.80864 12.4766 7.04525 11.75H9.66088C9.44638 13.2423 9.44638 14.7577 9.66088 16.25H7.04525C6.80864 15.5234 6.68791 14.7641 6.6875 14ZM14 6.6875C15.1616 6.6875 16.3777 8.18488 16.9813 10.625H11.0188C11.6223 8.18488 12.8384 6.6875 14 6.6875ZM18.3391 11.75H20.9548C21.4316 13.2121 21.4316 14.7879 20.9548 16.25H18.3391C18.4458 15.5047 18.4996 14.7529 18.5 14C18.4996 13.2471 18.4458 12.4953 18.3391 11.75ZM20.4806 10.625H18.1366C17.8863 9.40157 17.3955 8.24004 16.6927 7.20781C18.3229 7.85795 19.6666 9.07012 20.4806 10.625ZM11.3073 7.20781C10.6045 8.24004 10.1137 9.40157 9.86338 10.625H7.51944C8.33345 9.07012 9.67711 7.85795 11.3073 7.20781ZM7.51944 17.375H9.86338C10.1137 18.5984 10.6045 19.76 11.3073 20.7922C9.67711 20.142 8.33345 18.9299 7.51944 17.375ZM16.6927 20.7922C17.3955 19.76 17.8863 18.5984 18.1366 17.375H20.4806C19.6666 18.9299 18.3229 20.142 16.6927 20.7922Z" fill="#252525"/>
</g>
<defs>
<clipPath id="clip0_114_3420">
<rect width="18" height="18" fill="white" transform="translate(5 5)"/>
</clipPath>
</defs>
</svg>
