<svg width="50" height="50" viewBox="0 0 50 50" fill="none" xmlns="http://www.w3.org/2000/svg">
<g clip-path="url(#clip0_1027_10535)">
<path d="M24.9964 8.92969C16.1333 8.92969 8.92969 16.1333 8.92969 25.0011C8.92969 33.8642 16.1333 41.0725 24.9964 41.0725C33.8594 41.0725 41.0678 33.8642 41.0678 25.0011C41.0678 16.1333 33.8594 8.92969 24.9964 8.92969ZM24.9964 39.2868C17.0952 39.2868 10.7059 32.9023 10.7059 25.0011C10.7059 17.0999 17.0952 10.7154 24.9964 10.7154C32.8975 10.7154 39.2821 17.0999 39.2821 25.0011C39.2821 32.8975 32.8975 39.2868 24.9964 39.2868Z" fill="#252525" stroke="#252525" stroke-width="0.8"/>
<path d="M49.5679 20.3726C49.5301 20.1669 49.4216 19.9809 49.2611 19.8468C49.1007 19.7126 48.8984 19.6388 48.6893 19.6381H45.7452C45.2398 17.7016 44.4732 15.8429 43.4667 14.1131L45.5357 12.0393C45.6848 11.8924 45.7773 11.6976 45.7969 11.4892C45.8165 11.2808 45.7619 11.0721 45.6429 10.9C43.89 8.32929 41.6707 6.11 39.1 4.35714C38.9285 4.23963 38.7214 4.18557 38.5143 4.20426C38.3073 4.22294 38.1132 4.31321 37.9655 4.45952L35.9702 6.45952C34.2631 5.45952 32.2738 4.75238 30.3571 4.25476V1.31191C30.3576 1.10307 30.2848 0.900679 30.1515 0.739942C30.0182 0.579205 29.8327 0.470291 29.6274 0.432143C28.1001 0.144341 26.5494 -0.000333317 24.9952 5.76615e-07C23.4418 0.00511274 21.8924 0.157783 20.3679 0.455953C20.1639 0.493822 19.9797 0.601988 19.8472 0.761637C19.7147 0.921286 19.6424 1.12232 19.6429 1.32976V4.25476C17.7107 4.76628 15.8569 5.5376 14.1321 6.54762L12.0345 4.45952C11.8869 4.313 11.6928 4.22259 11.4857 4.2039C11.2786 4.18521 11.0714 4.23941 10.9 4.35714C8.33146 6.11262 6.11262 8.33146 4.35714 10.9C4.24024 11.072 4.18698 11.2795 4.20653 11.4865C4.22609 11.6936 4.31724 11.8874 4.46429 12.0345L6.54762 14.1131C5.54762 15.8155 4.7619 17.7321 4.26429 19.6381H1.325C1.11741 19.6391 0.91654 19.7118 0.756424 19.8439C0.596308 19.976 0.486792 20.1595 0.446429 20.3631C0.153682 21.8915 0.00422475 23.4438 0 25C0.0047619 26.5536 0.153571 28.106 0.446429 29.6321C0.529762 30.0512 0.897619 30.3571 1.325 30.3571H4.26429C4.77126 32.2893 5.53946 34.1433 6.54762 35.8679L4.46429 37.9607C4.31744 38.1079 4.22644 38.3017 4.20689 38.5087C4.18734 38.7157 4.24046 38.9231 4.35714 39.0952C6.11363 41.6656 8.3322 43.8874 10.9 45.6476C11.0716 45.7657 11.2793 45.8196 11.4867 45.8C11.6941 45.7804 11.888 45.6886 12.0345 45.5405L14.1321 43.4524C15.8569 44.4624 17.7107 45.2337 19.6429 45.7452V48.675C19.6429 49.1024 19.9452 49.4702 20.3679 49.5488C21.8925 49.8454 23.442 49.9965 24.9952 50C26.5514 49.9916 28.1035 49.8405 29.6321 49.5488C29.8361 49.5109 30.0203 49.4028 30.1528 49.2431C30.2853 49.0835 30.3576 48.8824 30.3571 48.675V45.7452C32.2893 45.2337 34.1431 44.4624 35.8679 43.4524L37.9655 45.5405C38.1121 45.6884 38.306 45.7801 38.5133 45.7996C38.7206 45.8192 38.9283 45.7654 39.1 45.6476C41.6699 43.89 43.889 41.6677 45.6429 39.0952C45.7595 38.9231 45.8127 38.7157 45.7931 38.5087C45.7736 38.3017 45.6826 38.1079 45.5357 37.9607L43.4476 35.8679C44.46 34.1488 45.233 32.2996 45.7452 30.3714L48.675 30.3571C48.8826 30.3562 49.0835 30.2834 49.2436 30.1513C49.4037 30.0192 49.5132 29.8358 49.5536 29.6321C49.8464 28.1071 49.9952 26.5583 50 25.0048C50 23.9631 49.9298 22.1964 49.5679 20.3726ZM47.8702 28.5714H45.0429C44.8392 28.5695 44.6411 28.6379 44.482 28.7649C44.3228 28.892 44.2123 29.07 44.169 29.269C43.6699 31.4914 42.7903 33.6107 41.569 35.5333C41.4608 35.7043 41.4139 35.907 41.436 36.1082C41.458 36.3093 41.5478 36.497 41.6905 36.6405L43.7417 38.6964C42.3313 40.6308 40.6274 42.3331 38.6917 43.7417L36.6405 41.6857C36.4959 41.543 36.307 41.4537 36.105 41.4325C35.9029 41.4113 35.6996 41.4594 35.5286 41.569C33.6102 42.793 31.4939 43.6744 29.2738 44.1738C29.0755 44.2175 28.898 44.3274 28.7704 44.4853C28.6428 44.6432 28.5726 44.8398 28.5714 45.0429V47.9214C27.3905 48.1119 26.2 48.2048 25 48.2095C23.8054 48.2067 22.6129 48.1103 21.4333 47.9214L21.4286 45.0429C21.4287 44.8402 21.3596 44.6436 21.2328 44.4855C21.1059 44.3275 20.9289 44.2175 20.731 44.1738C18.5105 43.6757 16.3938 42.7943 14.4762 41.569C14.3045 41.4594 14.1007 41.4112 13.8981 41.4324C13.6954 41.4536 13.506 41.5429 13.3607 41.6857L11.3095 43.7405C9.37489 42.3306 7.67121 40.6285 6.25952 38.6952L8.31429 36.6393C8.45625 36.4952 8.5451 36.3073 8.5663 36.1061C8.58749 35.905 8.53977 35.7026 8.43095 35.5321C7.20955 33.6101 6.33141 31.4905 5.83571 29.2679C5.79045 29.0691 5.6787 28.8917 5.51894 28.7651C5.35919 28.6385 5.161 28.5701 4.95714 28.5714H2.12976C1.94405 27.3905 1.79048 26.2048 1.78571 25.0048C1.79196 23.8052 1.89147 22.6079 2.08333 21.4238H4.95714C5.16002 21.4262 5.35765 21.3593 5.51738 21.2342C5.67711 21.1091 5.78941 20.9333 5.83571 20.7357C6.33161 18.5131 7.20974 16.3935 8.43095 14.4714C8.54069 14.3006 8.58893 14.0975 8.56772 13.8956C8.54651 13.6937 8.45712 13.505 8.31429 13.3607L6.25952 11.3C7.66447 9.36572 9.36362 7.66336 11.2952 6.25476L13.3607 8.30952C13.6583 8.60714 14.1226 8.65833 14.4762 8.43571C16.3944 7.21144 18.5108 6.33006 20.731 5.83095C20.9285 5.78667 21.1052 5.67654 21.232 5.51863C21.3588 5.36072 21.4281 5.1644 21.4286 4.96191V2.13452C22.6143 1.94405 23.8 1.79048 25 1.78571C26.2 1.78571 27.3905 1.93452 28.5714 2.12024V4.95238C28.5714 5.37619 28.8595 5.7381 29.269 5.83095C31.4937 6.32269 33.6153 7.19937 35.5381 8.42143C35.7098 8.52975 35.9131 8.57681 36.115 8.55498C36.3168 8.53316 36.5054 8.44371 36.65 8.30119L38.6036 6.34762C40.5382 7.75748 42.2419 9.45956 43.6536 11.3929L41.7048 13.3512C41.5606 13.4945 41.4697 13.6826 41.447 13.8846C41.4242 14.0865 41.4711 14.2902 41.5798 14.4619C42.801 16.384 43.6791 18.5036 44.175 20.7262C44.2187 20.9241 44.3286 21.1011 44.4867 21.228C44.6447 21.3549 44.8414 21.424 45.044 21.4238H47.881C48.0607 22.6095 48.2143 23.8 48.2143 25C48.2095 26.2 48.0607 27.3857 47.8702 28.5714Z" fill="#252525" stroke="#252525" stroke-width="0.8"/>
<path d="M24.9569 24.1105H25.0034C25.5057 24.1105 25.8915 24.4962 25.8915 25.0033C25.8915 25.5057 25.5057 25.8962 25.0034 25.8962C24.501 25.8962 24.1057 25.5057 24.1057 25.0033C24.1057 24.5153 24.4736 24.1343 24.9569 24.1105ZM25.0034 14.2891C19.0974 14.2891 14.2891 19.0926 14.2891 25.0033C14.2867 26.4102 14.5625 27.8037 15.1004 29.1037C15.6383 30.4036 16.4278 31.5845 17.4236 32.5784C17.5061 32.6624 17.6044 32.7291 17.713 32.7747C17.8215 32.8202 17.938 32.8437 18.0557 32.8437C18.1735 32.8437 18.29 32.8202 18.3985 32.7747C18.5071 32.7291 18.6054 32.6624 18.6879 32.5784C18.8553 32.4103 18.9493 32.1828 18.9493 31.9456C18.9493 31.7084 18.8553 31.4809 18.6879 31.3129C17.8588 30.4847 17.2012 29.5011 16.7528 28.4184C16.3044 27.3357 16.074 26.1752 16.0748 25.0033C16.0729 23.8305 16.3026 22.6689 16.7507 21.585C17.1988 20.5012 17.8565 19.5165 18.686 18.6874C19.5155 17.8583 20.5006 17.2011 21.5847 16.7536C22.6688 16.3061 23.8305 16.077 25.0034 16.0795C27.0634 16.0736 29.0618 16.7821 30.6581 18.0843L26.1569 22.5903C25.7973 22.416 25.403 22.3252 25.0034 22.3248C24.2946 22.3285 23.6159 22.6121 23.1152 23.1138C22.6144 23.6154 22.3321 24.2945 22.3296 25.0033C22.3296 26.4676 23.5343 27.6819 25.0034 27.6819C26.4724 27.6819 27.6819 26.4676 27.6819 25.0033C27.6815 24.6053 27.5907 24.2125 27.4165 23.8545L27.4212 23.8498L31.9236 19.3486C33.2275 20.9444 33.9385 22.9426 33.9355 25.0033C33.9351 26.1756 33.7037 27.3364 33.2545 28.4192C32.8053 29.502 32.1472 30.4857 31.3176 31.3141C30.9688 31.6676 30.9688 32.2307 31.3176 32.5795C31.6665 32.9284 32.2296 32.9284 32.5784 32.5795C33.5757 31.5864 34.367 30.4059 34.9065 29.1059C35.4461 27.8059 35.7234 26.4121 35.7224 25.0045C35.7236 22.4711 34.8235 20.0198 33.1831 18.0891L33.6712 17.601C33.8389 17.4332 33.933 17.2056 33.9329 16.9684C33.9328 16.7312 33.8384 16.5037 33.6706 16.3361C33.5028 16.1684 33.2753 16.0743 33.0381 16.0744C32.8008 16.0745 32.5734 16.1689 32.4057 16.3367L31.9129 16.8248C29.9833 15.1868 27.5344 14.2881 25.0034 14.2891Z" fill="#252525" stroke="#252525" stroke-width="0.8"/>
</g>
<defs>
<clipPath id="clip0_1027_10535">
<rect width="50" height="50" fill="white"/>
</clipPath>
</defs>
</svg>
