<svg width="50" height="50" viewBox="0 0 50 50" fill="none" xmlns="http://www.w3.org/2000/svg">
<g clip-path="url(#clip0_1306_505)">
<path d="M25.0024 9.71843C16.5755 9.71843 9.71977 16.5739 9.71977 25.001C9.71977 33.4282 16.5755 40.2837 25.0024 40.2837C33.4292 40.2837 40.285 33.4279 40.285 25.001C40.285 16.5742 33.4292 9.71843 25.0024 9.71843ZM25.0024 37.1587C22.5978 37.1587 20.2473 36.4456 18.248 35.1097C16.2487 33.7738 14.6904 31.8751 13.7702 29.6536C12.85 27.4321 12.6093 24.9876 13.0784 22.6292C13.5475 20.2709 14.7054 18.1046 16.4057 16.4043C18.1059 14.704 20.2722 13.5461 22.6306 13.077C24.9889 12.6079 27.4334 12.8487 29.6549 13.7689C31.8764 14.6891 33.7752 16.2473 35.1111 18.2466C36.447 20.2459 37.16 22.5965 37.16 25.001C37.1564 28.2243 35.8743 31.3145 33.5951 33.5938C31.3159 35.873 28.2257 37.155 25.0024 37.1587ZM48.7894 30.4086L47.1899 25.2111C47.1416 25.0753 47.1416 24.927 47.1899 24.7912L48.7895 19.5937C49.0277 18.8389 49.0243 18.0284 48.7797 17.2756C48.5351 16.5228 48.0615 15.8652 47.425 15.3945L43.0758 12.13C42.9568 12.0485 42.8696 11.9284 42.8289 11.7901L41.0681 6.6446C40.8172 5.89383 40.338 5.24017 39.6976 4.77489C39.0572 4.30961 38.2874 4.05593 37.4958 4.04929L32.0583 3.96442C31.9142 3.96843 31.7731 3.92259 31.6589 3.83464L27.2101 0.707198C26.5658 0.247243 25.7939 0 25.0023 0C24.2107 0 23.4388 0.247243 22.7945 0.707198L18.3459 3.83464C18.2317 3.92259 18.0906 3.96843 17.9464 3.96442L12.5089 4.04929C11.7174 4.05593 10.9476 4.30961 10.3072 4.77489C9.66676 5.24017 9.18762 5.89383 8.93667 6.6446L7.17583 11.7898C7.13504 11.9281 7.04785 12.0481 6.92895 12.1296L2.57983 15.3941C1.94337 15.8648 1.46978 16.5224 1.22516 17.2752C0.980546 18.028 0.977125 18.8385 1.21538 19.5933L2.81489 24.791C2.86311 24.9268 2.86311 25.0751 2.81489 25.2109L1.21528 30.4085C0.977028 31.1633 0.980449 31.9738 1.22506 32.7266C1.46968 33.4794 1.94328 34.137 2.57973 34.6077L6.92895 37.8721C7.04788 37.9536 7.13507 38.0736 7.17583 38.2119L8.93667 43.3575C9.18762 44.1083 9.66676 44.7619 10.3072 45.2272C10.9476 45.6925 11.7174 45.9462 12.5089 45.9528L17.9462 46.0377C18.0904 46.0336 18.2315 46.0794 18.3457 46.1674L22.7947 49.2949C23.439 49.7548 24.2108 50.002 25.0024 50.002C25.794 50.002 26.5658 49.7548 27.2101 49.2949L31.6588 46.1674C31.7731 46.0795 31.9142 46.0337 32.0583 46.0377L37.4958 45.9528C38.2874 45.9462 39.0572 45.6925 39.6976 45.2272C40.338 44.7619 40.8171 44.1082 41.068 43.3574L42.8289 38.2123C42.8696 38.074 42.9568 37.954 43.0757 37.8725L47.4248 34.608C48.0614 34.1374 48.535 33.4797 48.7797 32.7268C49.0243 31.9739 49.0277 31.1635 48.7894 30.4086ZM45.5493 32.1088L41.2001 35.3733C40.5791 35.8302 40.1153 36.4686 39.8727 37.2005L38.1118 42.3456C38.0686 42.4873 37.9804 42.6111 37.8606 42.6982C37.7408 42.7853 37.5958 42.8309 37.4477 42.8282L32.01 42.913C31.2391 42.9177 30.4887 43.1616 29.8623 43.6109L25.413 46.7383C25.2947 46.8276 25.1506 46.8759 25.0024 46.8759C24.8542 46.8759 24.71 46.8276 24.5917 46.7383L20.1428 43.6107C19.5164 43.1614 18.766 42.9176 17.9952 42.9129L12.5577 42.8281C12.4096 42.8308 12.2646 42.7851 12.1448 42.698C12.0249 42.611 11.9368 42.4872 11.8936 42.3455L10.1328 37.2004C9.89013 36.4685 9.42627 35.8301 8.80522 35.3732L4.45551 32.1088C4.33398 32.0239 4.24345 31.9017 4.19763 31.7607C4.15181 31.6197 4.15321 31.4676 4.20161 31.3275L5.80122 26.1301C6.035 25.3954 6.035 24.6063 5.80122 23.8717L4.20161 18.6742C4.15321 18.5341 4.15181 18.382 4.19763 18.241C4.24345 18.1 4.33398 17.9778 4.45551 17.8929L8.80473 14.6284C9.42568 14.1715 9.88947 13.533 10.1321 12.8012L11.893 7.65612C11.9362 7.51442 12.0244 7.39065 12.1442 7.30356C12.264 7.21647 12.409 7.17081 12.5571 7.17351L17.9944 7.08864C18.7655 7.08418 19.5162 6.84033 20.1428 6.39079L24.5922 3.26374C24.7105 3.17445 24.8546 3.12614 25.0028 3.12614C25.151 3.12614 25.2951 3.17445 25.4133 3.26374L29.8618 6.39118C30.4882 6.8406 31.2387 7.08444 32.0096 7.08903L37.4471 7.1739C37.5952 7.17122 37.7402 7.21688 37.86 7.30397C37.9798 7.39106 38.068 7.51482 38.1112 7.65651L39.872 12.8015C40.1146 13.5334 40.5785 14.1718 41.1995 14.6288L45.5493 17.8933C45.6708 17.9782 45.7614 18.1004 45.8072 18.2414C45.853 18.3824 45.8516 18.5345 45.8032 18.6746L44.2036 23.872C43.9697 24.6067 43.9697 25.3958 44.2036 26.1304L45.8032 31.3278C45.8515 31.4679 45.8529 31.6199 45.807 31.7608C45.7612 31.9017 45.6707 32.0239 45.5493 32.1088ZM33.479 19.4752C33.6176 19.6264 33.7251 19.8035 33.7953 19.9963C33.8655 20.1892 33.897 20.3939 33.8881 20.5989C33.8791 20.8039 33.8299 21.0051 33.7432 21.1911C33.6565 21.3771 33.534 21.5441 33.3828 21.6828L23.6284 30.623C23.3402 30.8869 22.9635 31.0333 22.5727 31.0332C22.5431 31.0332 22.5135 31.0323 22.4838 31.0306C22.2755 31.0188 22.0716 30.9653 21.8842 30.8733C21.6968 30.7813 21.5298 30.6528 21.3929 30.4952L16.4989 24.8604C16.3636 24.7056 16.2603 24.5256 16.1947 24.3308C16.1292 24.136 16.1027 23.9301 16.1169 23.725C16.131 23.52 16.1855 23.3197 16.2772 23.1357C16.3688 22.9517 16.4959 22.7876 16.6511 22.6528C16.8063 22.5181 16.9866 22.4152 17.1816 22.3502C17.3766 22.2852 17.5825 22.2593 17.7876 22.2741C17.9926 22.2888 18.1927 22.3438 18.3764 22.436C18.5602 22.5282 18.7239 22.6557 18.8582 22.8113L22.6999 27.2351L31.2713 19.3793C31.5768 19.0992 31.981 18.952 32.395 18.97C32.809 18.988 33.1989 19.1697 33.479 19.4752Z" fill="black"/>
</g>
<defs>
<clipPath id="clip0_1306_505">
<rect width="50" height="50" fill="white"/>
</clipPath>
</defs>
</svg>
